Roboto Serif Display Wide-Regular G4.ufo
<glyph name="exclam" format="2">
  <advance width="290"/>
  <unicode hex="0021"/>
  <outline>
    <contour>
      <point x="206" y="735" type="line"/>
      <point x="206" y="568"/>
      <point x="172" y="460"/>
      <point x="172" y="208" type="curve"/>
      <point x="117" y="208" type="line"/>
      <point x="117" y="460"/>
      <point x="83" y="567"/>
      <point x="83" y="735" type="curve"/>
    </contour>
    <component base="period" xOffset="15"/>
  </outline>
</glyph>
<glyph name="numbersign" format="2">
  <advance width="769"/>
  <unicode hex="0023"/>
  <outline>
    <contour>
      <point x="116" y="0" type="line"/>
      <point x="167" y="0" type="line"/>
      <point x="386" y="750" type="line"/>
      <point x="335" y="750" type="line"/>
    </contour>
    <contour>
      <point x="45" y="220" type="line"/>
      <point x="670" y="220" type="line"/>
      <point x="670" y="300" type="line"/>
      <point x="45" y="300" type="line"/>
    </contour>
    <contour>
      <point x="99" y="470" type="line"/>
      <point x="724" y="470" type="line"/>
      <point x="724" y="550" type="line"/>
      <point x="99" y="550" type="line"/>
    </contour>
    <contour>
      <point x="373" y="0" type="line"/>
      <point x="424" y="0" type="line"/>
      <point x="643" y="750" type="line"/>
      <point x="592" y="750" type="line"/>
    </contour>
  </outline>
</glyph>
<glyph name="dollar" format="2">
  <advance width="680"/>
  <unicode hex="0024"/>
  <outline>
    <contour>
      <point x="314" y="790" type="line"/>
      <point x="314" y="687" type="line"/>
      <point x="314" y="673" type="line"/>
      <point x="314" y="33" type="line"/>
      <point x="314" y="24" type="line"/>
      <point x="314" y="-120" type="line"/>
      <point x="370" y="-120" type="line"/>
      <point x="370" y="21" type="line"/>
      <point x="370" y="32" type="line"/>
      <point x="370" y="674" type="line"/>
      <point x="370" y="685" type="line"/>
      <point x="370" y="790" type="line"/>
    </contour>
    <contour>
      <point x="348" y="68" type="curve" smooth="yes"/>
      <point x="244" y="68"/>
      <point x="145" y="90"/>
      <point x="92" y="147" type="curve"/>
      <point x="66" y="123"/>
      <point x="112" y="73"/>
      <point x="139" y="71" type="curve"/>
      <point x="139" y="206" type="line"/>
      <point x="31" y="206" type="line"/>
      <point x="31" y="97" type="line"/>
      <point x="93" y="50"/>
      <point x="202" y="12"/>
      <point x="349" y="12" type="curve" smooth="yes"/>
      <point x="532" y="12"/>
      <point x="650" y="74"/>
      <point x="650" y="204" type="curve" smooth="yes"/>
      <point x="650" y="332"/>
      <point x="540" y="367"/>
      <point x="368" y="411" type="curve" smooth="yes"/>
      <point x="220" y="449"/>
      <point x="145" y="463"/>
      <point x="145" y="547" type="curve" smooth="yes"/>
      <point x="145" y="600"/>
      <point x="198" y="642"/>
      <point x="348" y="642" type="curve" smooth="yes"/>
      <point x="448" y="642"/>
      <point x="525" y="617"/>
      <point x="561" y="585" type="curve"/>
      <point x="591" y="584"/>
      <point x="544" y="644"/>
      <point x="512" y="652" type="curve"/>
      <point x="512" y="524" type="line"/>
      <point x="617" y="524" type="line"/>
      <point x="617" y="636" type="line"/>
      <point x="589" y="654"/>
      <point x="484" y="698"/>
      <point x="346" y="698" type="curve" smooth="yes"/>
      <point x="167" y="698"/>
      <point x="65" y="633"/>
      <point x="65" y="528" type="curve" smooth="yes"/>
      <point x="65" y="404"/>
      <point x="156" y="366"/>
      <point x="320" y="328" type="curve" smooth="yes"/>
      <point x="495" y="287"/>
      <point x="568" y="265"/>
      <point x="568" y="186" type="curve" smooth="yes"/>
      <point x="568" y="107"/>
      <point x="498" y="68"/>
    </contour>
  </outline>
</glyph>
<glyph name="ampersand" format="2">
  <advance width="922"/>
  <unicode hex="0026"/>
  <outline>
    <contour>
      <point x="767" y="308" type="curve" smooth="yes"/>
      <point x="777" y="341"/>
      <point x="812" y="346"/>
      <point x="863" y="346" type="curve" smooth="yes"/>
      <point x="868" y="346" type="line"/>
      <point x="868" y="394" type="line"/>
      <point x="614" y="394" type="line"/>
      <point x="614" y="346" type="line"/>
      <point x="620" y="346" type="line" smooth="yes"/>
      <point x="656" y="346"/>
      <point x="704" y="343"/>
      <point x="704" y="336" type="curve" smooth="yes"/>
      <point x="703" y="200"/>
      <point x="606" y="43"/>
      <point x="376" y="43" type="curve" smooth="yes"/>
      <point x="251" y="43"/>
      <point x="178" y="102"/>
      <point x="178" y="199" type="curve" smooth="yes"/>
      <point x="178" y="297"/>
      <point x="238" y="347"/>
      <point x="349" y="380" type="curve"/>
      <point x="328" y="420" type="line"/>
      <point x="165" y="380"/>
      <point x="66" y="317"/>
      <point x="66" y="194" type="curve" smooth="yes"/>
      <point x="66" y="64"/>
      <point x="180" y="-10"/>
      <point x="367" y="-10" type="curve" smooth="yes"/>
      <point x="648" y="-10"/>
      <point x="729" y="185"/>
    </contour>
    <contour>
      <point x="877" y="0" type="line"/>
      <point x="877" y="51" type="line"/>
      <point x="862" y="51" type="line" smooth="yes"/>
      <point x="811" y="51"/>
      <point x="782" y="62"/>
      <point x="717" y="110" type="curve" smooth="yes"/>
      <point x="460" y="302"/>
      <point x="343" y="448"/>
      <point x="343" y="550" type="curve" smooth="yes"/>
      <point x="343" y="636"/>
      <point x="390" y="677"/>
      <point x="462" y="677" type="curve" smooth="yes"/>
      <point x="526" y="677"/>
      <point x="557" y="632"/>
      <point x="557" y="586" type="curve" smooth="yes"/>
      <point x="557" y="508"/>
      <point x="492" y="465"/>
      <point x="355" y="426" type="curve"/>
      <point x="369" y="383" type="line"/>
      <point x="549" y="431"/>
      <point x="650" y="477"/>
      <point x="650" y="591" type="curve" smooth="yes"/>
      <point x="650" y="670"/>
      <point x="580" y="718"/>
      <point x="462" y="718" type="curve" smooth="yes"/>
      <point x="334" y="718"/>
      <point x="242" y="660"/>
      <point x="242" y="549" type="curve" smooth="yes"/>
      <point x="242" y="383"/>
      <point x="432" y="208"/>
      <point x="706" y="0" type="curve"/>
    </contour>
  </outline>
</glyph>
<glyph name="plus" format="2">
  <advance width="680"/>
  <unicode hex="002B"/>
  <outline>
    <contour>
      <point x="317" y="558" type="line"/>
      <point x="317" y="124" type="line"/>
      <point x="363" y="124" type="line"/>
      <point x="363" y="558" type="line"/>
    </contour>
    <contour>
      <point x="590" y="362" type="line"/>
      <point x="90" y="362" type="line"/>
      <point x="90" y="320" type="line"/>
      <point x="590" y="320" type="line"/>
    </contour>
  </outline>
</glyph>
<glyph name="comma" format="2">
  <advance width="260"/>
  <unicode hex="002C"/>
  <outline>
    <contour>
      <point x="103" y="-134" type="line"/>
      <point x="161" y="-93"/>
      <point x="212" y="-26"/>
      <point x="212" y="47" type="curve" smooth="yes"/>
      <point x="212" y="100"/>
      <point x="182" y="129"/>
      <point x="133" y="129" type="curve" smooth="yes"/>
      <point x="92" y="129"/>
      <point x="63" y="101"/>
      <point x="63" y="62" type="curve" smooth="yes"/>
      <point x="63" y="21"/>
      <point x="91" y="-3"/>
      <point x="126" y="-3" type="curve" smooth="yes"/>
      <point x="157" y="-3"/>
      <point x="176" y="12"/>
      <point x="181" y="35" type="curve"/>
      <point x="176" y="37"/>
      <point x="173" y="34"/>
      <point x="172" y="26" type="curve"/>
      <point x="168" y="-24"/>
      <point x="119" y="-59"/>
      <point x="51" y="-91" type="curve"/>
    </contour>
  </outline>
</glyph>
<glyph name="period" format="2">
  <advance width="260"/>
  <unicode hex="002E"/>
  <outline>
    <contour>
      <point x="130" y="-11" type="curve" smooth="yes"/>
      <point x="173" y="-11"/>
      <point x="200" y="17"/>
      <point x="200" y="57" type="curve" smooth="yes"/>
      <point x="200" y="97"/>
      <point x="172" y="125"/>
      <point x="130" y="125" type="curve" smooth="yes"/>
      <point x="88" y="125"/>
      <point x="60" y="97"/>
      <point x="60" y="57" type="curve" smooth="yes"/>
      <point x="60" y="17"/>
      <point x="88" y="-11"/>
    </contour>
  </outline>
</glyph>
<glyph name="zero" format="2">
  <advance width="680"/>
  <unicode hex="0030"/>
  <outline>
    <contour>
      <point x="340" y="-10" type="curve" smooth="yes"/>
      <point x="518" y="-10"/>
      <point x="643" y="116"/>
      <point x="643" y="304" type="curve" smooth="yes"/>
      <point x="643" y="493"/>
      <point x="518" y="619"/>
      <point x="340" y="619" type="curve" smooth="yes"/>
      <point x="162" y="619"/>
      <point x="37" y="493"/>
      <point x="37" y="304" type="curve" smooth="yes"/>
      <point x="37" y="116"/>
      <point x="162" y="-10"/>
    </contour>
    <contour>
      <point x="340" y="40" type="curve" smooth="yes"/>
      <point x="207" y="40"/>
      <point x="149" y="141"/>
      <point x="149" y="304" type="curve" smooth="yes"/>
      <point x="149" y="468"/>
      <point x="207" y="569"/>
      <point x="340" y="569" type="curve" smooth="yes"/>
      <point x="473" y="569"/>
      <point x="531" y="468"/>
      <point x="531" y="304" type="curve" smooth="yes"/>
      <point x="531" y="141"/>
      <point x="473" y="40"/>
    </contour>
  </outline>
</glyph>
<glyph name="one" format="2">
  <advance width="680"/>
  <unicode hex="0031"/>
  <outline>
    <contour>
      <point x="416" y="105" type="curve" smooth="yes"/>
      <point x="416" y="609" type="line"/>
      <point x="351" y="609" type="line"/>
      <point x="309" y="552"/>
      <point x="216" y="527"/>
      <point x="83" y="526" type="curve"/>
      <point x="83" y="450" type="line"/>
      <point x="199" y="449"/>
      <point x="303" y="497"/>
      <point x="328" y="547" type="curve"/>
      <point x="309" y="538" type="line"/>
      <point x="309" y="105" type="line" smooth="yes"/>
      <point x="309" y="63"/>
      <point x="259" y="52"/>
      <point x="180" y="52" type="curve" smooth="yes"/>
      <point x="100" y="52" type="line"/>
      <point x="100" y="0" type="line"/>
      <point x="627" y="0" type="line"/>
      <point x="627" y="52" type="line"/>
      <point x="544" y="52" type="line" smooth="yes"/>
      <point x="458" y="52"/>
      <point x="416" y="63"/>
    </contour>
  </outline>
</glyph>
<glyph name="five" format="2">
  <advance width="680"/>
  <unicode hex="0035"/>
  <outline>
    <contour>
      <point x="323" y="-90" type="curve" smooth="yes"/>
      <point x="160" y="-90"/>
      <point x="75" y="-25"/>
      <point x="30" y="56" type="curve"/>
      <point x="78" y="94" type="line"/>
      <point x="116" y="18"/>
      <point x="194" y="-38"/>
      <point x="316" y="-38" type="curve" smooth="yes"/>
      <point x="448" y="-38"/>
      <point x="530" y="33"/>
      <point x="530" y="145" type="curve" smooth="yes"/>
      <point x="530" y="264"/>
      <point x="453" y="314"/>
      <point x="342" y="314" type="curve" smooth="yes"/>
      <point x="247" y="314"/>
      <point x="195" y="281"/>
      <point x="142" y="215" type="curve"/>
      <point x="90" y="215" type="line"/>
      <point x="90" y="609" type="line"/>
      <point x="585" y="609" type="line"/>
      <point x="569" y="517" type="line"/>
      <point x="111" y="517" type="line"/>
      <point x="148" y="564" type="line"/>
      <point x="148" y="248" type="line"/>
      <point x="145" y="239"/>
      <point x="138" y="235"/>
      <point x="132" y="240" type="curve"/>
      <point x="180" y="323"/>
      <point x="249" y="366"/>
      <point x="358" y="366" type="curve" smooth="yes"/>
      <point x="522" y="366"/>
      <point x="640" y="277"/>
      <point x="640" y="145" type="curve" smooth="yes"/>
      <point x="640" y="5"/>
      <point x="511" y="-90"/>
    </contour>
  </outline>
</glyph>
<glyph name="six" format="2">
  <advance width="680"/>
  <unicode hex="0036"/>
  <outline>
    <contour>
      <point x="547" y="698" type="line"/>
      <point x="297" y="664"/>
      <point x="147" y="519"/>
      <point x="147" y="287" type="curve" smooth="yes"/>
      <point x="147" y="122"/>
      <point x="225" y="40"/>
      <point x="346" y="40" type="curve" smooth="yes"/>
      <point x="470" y="40"/>
      <point x="533" y="115"/>
      <point x="533" y="233" type="curve" smooth="yes"/>
      <point x="533" y="336"/>
      <point x="480" y="405"/>
      <point x="357" y="405" type="curve" smooth="yes"/>
      <point x="271" y="405"/>
      <point x="179" y="345"/>
      <point x="138" y="278" type="curve"/>
      <point x="125" y="300" type="line"/>
      <point x="167" y="388"/>
      <point x="262" y="457"/>
      <point x="381" y="457" type="curve" smooth="yes"/>
      <point x="535" y="457"/>
      <point x="643" y="367"/>
      <point x="643" y="233" type="curve" smooth="yes"/>
      <point x="643" y="91"/>
      <point x="517" y="-10"/>
      <point x="346" y="-10" type="curve" smooth="yes"/>
      <point x="173" y="-10"/>
      <point x="37" y="94"/>
      <point x="37" y="288" type="curve" smooth="yes"/>
      <point x="37" y="527"/>
      <point x="240" y="707"/>
      <point x="540" y="740" type="curve"/>
    </contour>
  </outline>
</glyph>
<glyph name="nine" format="2">
  <advance width="680"/>
  <unicode hex="0039"/>
  <outline>
    <contour>
      <point x="133" y="-50" type="line"/>
      <point x="383" y="-26"/>
      <point x="533" y="110"/>
      <point x="533" y="335" type="curve" smooth="yes"/>
      <point x="533" y="497"/>
      <point x="450" y="569"/>
      <point x="334" y="569" type="curve" smooth="yes"/>
      <point x="215" y="569"/>
      <point x="147" y="507"/>
      <point x="147" y="396" type="curve" smooth="yes"/>
      <point x="147" y="296"/>
      <point x="203" y="226"/>
      <point x="323" y="226" type="curve" smooth="yes"/>
      <point x="417" y="226"/>
      <point x="497" y="277"/>
      <point x="542" y="370" type="curve"/>
      <point x="555" y="326" type="line"/>
      <point x="512" y="238"/>
      <point x="433" y="174"/>
      <point x="300" y="174" type="curve" smooth="yes"/>
      <point x="148" y="174"/>
      <point x="37" y="258"/>
      <point x="37" y="387" type="curve" smooth="yes"/>
      <point x="37" y="524"/>
      <point x="163" y="619"/>
      <point x="334" y="619" type="curve" smooth="yes"/>
      <point x="507" y="619"/>
      <point x="643" y="515"/>
      <point x="643" y="332" type="curve" smooth="yes"/>
      <point x="643" y="102"/>
      <point x="447" y="-70"/>
      <point x="140" y="-93" type="curve"/>
    </contour>
  </outline>
</glyph>
<glyph name="less" format="2">
  <advance width="680"/>
  <unicode hex="003C"/>
  <outline>
    <contour>
      <point x="558" y="546" type="line"/>
      <point x="123" y="368" type="line"/>
      <point x="123" y="336" type="line"/>
      <point x="143" y="334" type="line"/>
      <point x="558" y="502" type="line"/>
    </contour>
    <contour>
      <point x="558" y="193" type="line"/>
      <point x="144" y="361" type="line"/>
      <point x="123" y="344" type="line"/>
      <point x="123" y="323" type="line"/>
      <point x="558" y="145" type="line"/>
    </contour>
  </outline>
</glyph>
<glyph name="B" format="2">
  <advance width="787"/>
  <unicode hex="0042"/>
  <outline>
    <contour>
      <point x="412" y="710" type="curve" smooth="yes"/>
      <point x="40" y="710" type="line"/>
      <point x="40" y="660" type="line"/>
      <point x="65" y="660" type="line" smooth="yes"/>
      <point x="100" y="660"/>
      <point x="139" y="650"/>
      <point x="139" y="606" type="curve" smooth="yes"/>
      <point x="139" y="104" type="line" smooth="yes"/>
      <point x="139" y="60"/>
      <point x="101" y="50"/>
      <point x="65" y="50" type="curve" smooth="yes"/>
      <point x="40" y="50" type="line"/>
      <point x="40" y="0" type="line"/>
      <point x="431" y="0" type="line" smooth="yes"/>
      <point x="636" y="0"/>
      <point x="732" y="75"/>
      <point x="732" y="191" type="curve" smooth="yes"/>
      <point x="732" y="309"/>
      <point x="632" y="381"/>
      <point x="403" y="381" type="curve"/>
      <point x="478" y="364" type="line"/>
      <point x="478" y="384" type="line"/>
      <point x="384" y="366" type="line"/>
      <point x="597" y="366"/>
      <point x="686" y="431"/>
      <point x="686" y="537" type="curve" smooth="yes"/>
      <point x="686" y="641"/>
      <point x="601" y="710"/>
    </contour>
    <contour>
      <point x="212" y="398" type="line"/>
      <point x="212" y="345" type="line"/>
      <point x="415" y="345" type="line" smooth="yes"/>
      <point x="576" y="345"/>
      <point x="620" y="279"/>
      <point x="620" y="195" type="curve" smooth="yes"/>
      <point x="620" y="105"/>
      <point x="576" y="55"/>
      <point x="430" y="55" type="curve" smooth="yes"/>
      <point x="246" y="55" type="line"/>
      <point x="246" y="655" type="line"/>
      <point x="411" y="655" type="line" smooth="yes"/>
      <point x="542" y="655"/>
      <point x="577" y="609"/>
      <point x="577" y="532" type="curve" smooth="yes"/>
      <point x="577" y="453"/>
      <point x="543" y="398"/>
      <point x="404" y="398" type="curve" smooth="yes"/>
    </contour>
  </outline>
</glyph>
<glyph name="C" format="2">
  <advance width="866"/>
  <unicode hex="0043"/>
  <outline>
    <contour>
      <point x="467" y="666" type="curve" smooth="yes"/>
      <point x="626" y="666"/>
      <point x="706" y="586"/>
      <point x="752" y="496" type="curve"/>
      <point x="803" y="496" type="line"/>
      <point x="803" y="710" type="line"/>
      <point x="755" y="710" type="line"/>
      <point x="735" y="569" type="line"/>
      <point x="764" y="552" type="line"/>
      <point x="728" y="644"/>
      <point x="626" y="720"/>
      <point x="464" y="720" type="curve" smooth="yes"/>
      <point x="228" y="720"/>
      <point x="45" y="568"/>
      <point x="45" y="355" type="curve" smooth="yes"/>
      <point x="45" y="138"/>
      <point x="227" y="-10"/>
      <point x="465" y="-10" type="curve" smooth="yes"/>
      <point x="650" y="-10"/>
      <point x="777" y="87"/>
      <point x="821" y="227" type="curve"/>
      <point x="772" y="245" type="line"/>
      <point x="736" y="132"/>
      <point x="631" y="46"/>
      <point x="470" y="46" type="curve" smooth="yes"/>
      <point x="274" y="46"/>
      <point x="160" y="168"/>
      <point x="160" y="355" type="curve" smooth="yes"/>
      <point x="160" y="543"/>
      <point x="263" y="666"/>
    </contour>
  </outline>
</glyph>
<glyph name="H" format="2">
  <advance width="969"/>
  <unicode hex="0048"/>
  <outline>
    <contour>
      <point x="206" y="394" type="line"/>
      <point x="206" y="339" type="line"/>
      <point x="763" y="339" type="line"/>
      <point x="763" y="394" type="line"/>
    </contour>
    <contour>
      <point x="40" y="0" type="line"/>
      <point x="354" y="0" type="line"/>
      <point x="354" y="50" type="line"/>
      <point x="328" y="50" type="line" smooth="yes"/>
      <point x="292" y="50"/>
      <point x="246" y="55"/>
      <point x="246" y="66" type="curve" smooth="yes"/>
      <point x="246" y="644" type="line" smooth="yes"/>
      <point x="246" y="655"/>
      <point x="292" y="660"/>
      <point x="328" y="660" type="curve" smooth="yes"/>
      <point x="354" y="660" type="line"/>
      <point x="354" y="710" type="line"/>
      <point x="40" y="710" type="line"/>
      <point x="40" y="660" type="line"/>
      <point x="65" y="660" type="line" smooth="yes"/>
      <point x="100" y="660"/>
      <point x="139" y="650"/>
      <point x="139" y="606" type="curve" smooth="yes"/>
      <point x="139" y="104" type="line" smooth="yes"/>
      <point x="139" y="60"/>
      <point x="100" y="50"/>
      <point x="65" y="50" type="curve" smooth="yes"/>
      <point x="40" y="50" type="line"/>
    </contour>
    <contour>
      <point x="615" y="0" type="line"/>
      <point x="929" y="0" type="line"/>
      <point x="929" y="50" type="line"/>
      <point x="904" y="50" type="line" smooth="yes"/>
      <point x="869" y="50"/>
      <point x="830" y="60"/>
      <point x="830" y="104" type="curve" smooth="yes"/>
      <point x="830" y="606" type="line" smooth="yes"/>
      <point x="830" y="650"/>
      <point x="869" y="660"/>
      <point x="904" y="660" type="curve" smooth="yes"/>
      <point x="929" y="660" type="line"/>
      <point x="929" y="710" type="line"/>
      <point x="615" y="710" type="line"/>
      <point x="615" y="660" type="line"/>
      <point x="641" y="660" type="line" smooth="yes"/>
      <point x="677" y="660"/>
      <point x="723" y="655"/>
      <point x="723" y="644" type="curve" smooth="yes"/>
      <point x="723" y="66" type="line" smooth="yes"/>
      <point x="723" y="55"/>
      <point x="677" y="50"/>
      <point x="641" y="50" type="curve" smooth="yes"/>
      <point x="615" y="50" type="line"/>
    </contour>
  </outline>
</glyph>
<glyph name="I" format="2">
  <advance width="395"/>
  <unicode hex="0049"/>
  <outline>
    <contour>
      <point x="144" y="104" type="line" smooth="yes"/>
      <point x="144" y="60"/>
      <point x="105" y="50"/>
      <point x="65" y="50" type="curve" smooth="yes"/>
      <point x="40" y="50" type="line"/>
      <point x="40" y="0" type="line"/>
      <point x="355" y="0" type="line"/>
      <point x="355" y="50" type="line"/>
      <point x="330" y="50" type="line" smooth="yes"/>
      <point x="290" y="50"/>
      <point x="251" y="60"/>
      <point x="251" y="104" type="curve" smooth="yes"/>
      <point x="251" y="606" type="line" smooth="yes"/>
      <point x="251" y="650"/>
      <point x="290" y="660"/>
      <point x="330" y="660" type="curve" smooth="yes"/>
      <point x="355" y="660" type="line"/>
      <point x="355" y="710" type="line"/>
      <point x="40" y="710" type="line"/>
      <point x="40" y="660" type="line"/>
      <point x="65" y="660" type="line" smooth="yes"/>
      <point x="105" y="660"/>
      <point x="144" y="650"/>
      <point x="144" y="606" type="curve" smooth="yes"/>
    </contour>
  </outline>
</glyph>
<glyph name="J" format="2">
  <advance width="689"/>
  <unicode hex="004A"/>
  <outline>
    <contour>
      <point x="317" y="710" type="line"/>
      <point x="317" y="660" type="line"/>
      <point x="359" y="660" type="line" smooth="yes"/>
      <point x="402.5555555556" y="660"/>
      <point x="443" y="650"/>
      <point x="443" y="606" type="curve" smooth="yes"/>
      <point x="443" y="243" type="line" smooth="yes"/>
      <point x="443" y="85"/>
      <point x="376.8920454545" y="45"/>
      <point x="264" y="45" type="curve" smooth="yes"/>
      <point x="189" y="45"/>
      <point x="129" y="66"/>
      <point x="103" y="99" type="curve"/>
      <point x="107" y="73"/>
      <point x="144" y="25"/>
      <point x="156" y="18" type="curve"/>
      <point x="156" y="168" type="line"/>
      <point x="45" y="168" type="line"/>
      <point x="45" y="54" type="line"/>
      <point x="85" y="23"/>
      <point x="157" y="-10"/>
      <point x="266" y="-10" type="curve" smooth="yes"/>
      <point x="412.5480427046" y="-10"/>
      <point x="550" y="52"/>
      <point x="550" y="244" type="curve" smooth="yes"/>
      <point x="550" y="606" type="line" smooth="yes"/>
      <point x="550" y="650"/>
      <point x="587.4805194805" y="660"/>
      <point x="624" y="660" type="curve" smooth="yes"/>
      <point x="649" y="660" type="line"/>
      <point x="649" y="710" type="line"/>
    </contour>
  </outline>
</glyph>
<glyph name="K" format="2">
  <advance width="848"/>
  <unicode hex="004B"/>
  <outline>
    <contour>
      <point x="40" y="0" type="line"/>
      <point x="354" y="0" type="line"/>
      <point x="354" y="50" type="line"/>
      <point x="328" y="50" type="line" smooth="yes"/>
      <point x="292" y="50"/>
      <point x="246" y="55"/>
      <point x="246" y="66" type="curve" smooth="yes"/>
      <point x="246" y="644" type="line" smooth="yes"/>
      <point x="246" y="655"/>
      <point x="292" y="660"/>
      <point x="328" y="660" type="curve" smooth="yes"/>
      <point x="354" y="660" type="line"/>
      <point x="354" y="710" type="line"/>
      <point x="40" y="710" type="line"/>
      <point x="40" y="660" type="line"/>
      <point x="65" y="660" type="line" smooth="yes"/>
      <point x="100" y="660"/>
      <point x="139" y="650"/>
      <point x="139" y="606" type="curve" smooth="yes"/>
      <point x="139" y="104" type="line" smooth="yes"/>
      <point x="139" y="60"/>
      <point x="101" y="50"/>
      <point x="65" y="50" type="curve" smooth="yes"/>
      <point x="40" y="50" type="line"/>
    </contour>
    <contour>
      <point x="511" y="0" type="line"/>
      <point x="838" y="0" type="line"/>
      <point x="838" y="50" type="line"/>
      <point x="830" y="50" type="line" smooth="yes"/>
      <point x="781.5" y="50"/>
      <point x="763.346383204" y="55.6798489161"/>
      <point x="733" y="83" type="curve" smooth="yes"/>
      <point x="372" y="408" type="line"/>
      <point x="378" y="371" type="line"/>
      <point x="682" y="622" type="line" smooth="yes"/>
      <point x="716" y="650"/>
      <point x="734" y="660"/>
      <point x="775" y="660" type="curve" smooth="yes"/>
      <point x="789" y="660" type="line"/>
      <point x="789" y="710" type="line"/>
      <point x="537" y="710" type="line"/>
      <point x="537" y="660" type="line"/>
      <point x="556" y="660" type="line" smooth="yes"/>
      <point x="584.049382716" y="660"/>
      <point x="627" y="655"/>
      <point x="627" y="646" type="curve"/>
      <point x="284" y="362" type="line"/>
      <point x="284" y="353" type="line"/>
      <point x="609" y="60" type="line"/>
      <point x="609" y="53"/>
      <point x="560.1764705882" y="50"/>
      <point x="526" y="50" type="curve" smooth="yes"/>
      <point x="511" y="50" type="line"/>
    </contour>
  </outline>
</glyph>
<glyph name="L" format="2">
  <advance width="725"/>
  <unicode hex="004C"/>
  <outline>
    <contour>
      <point x="367" y="710" type="line"/>
      <point x="367" y="660" type="line"/>
      <point x="332" y="660" type="line" smooth="yes"/>
      <point x="285" y="660"/>
      <point x="246" y="650"/>
      <point x="246" y="606" type="curve" smooth="yes"/>
      <point x="246" y="55" type="line"/>
      <point x="494" y="55" type="line" smooth="yes"/>
      <point x="587" y="55"/>
      <point x="605" y="75"/>
      <point x="616" y="145" type="curve" smooth="yes"/>
      <point x="633" y="233" type="line"/>
      <point x="680" y="233" type="line"/>
      <point x="680" y="0" type="line"/>
      <point x="40" y="0" type="line"/>
      <point x="40" y="50" type="line"/>
      <point x="65" y="50" type="line" smooth="yes"/>
      <point x="101" y="50"/>
      <point x="139" y="60"/>
      <point x="139" y="104" type="curve" smooth="yes"/>
      <point x="139" y="606" type="line" smooth="yes"/>
      <point x="139" y="650"/>
      <point x="100" y="660"/>
      <point x="65" y="660" type="curve" smooth="yes"/>
      <point x="40" y="660" type="line"/>
      <point x="40" y="710" type="line"/>
    </contour>
  </outline>
</glyph>
<glyph name="Q" format="2">
  <advance width="956"/>
  <unicode hex="0051"/>
  <outline>
    <contour>
      <point x="457" y="-4" type="line"/>
      <point x="457" y="-116"/>
      <point x="543" y="-194"/>
      <point x="708" y="-194" type="curve" smooth="yes"/>
      <point x="774" y="-194"/>
      <point x="840" y="-181"/>
      <point x="877" y="-164" type="curve"/>
      <point x="877" y="-64" type="line"/>
      <point x="834" y="-85"/>
      <point x="775" y="-104"/>
      <point x="690" y="-104" type="curve" smooth="yes"/>
      <point x="604" y="-104"/>
      <point x="510" y="-89"/>
      <point x="510" y="8" type="curve"/>
    </contour>
    <contour>
      <point x="478" y="-10" type="curve" smooth="yes"/>
      <point x="720" y="-10"/>
      <point x="911" y="140"/>
      <point x="911" y="355" type="curve" smooth="yes"/>
      <point x="911" y="571"/>
      <point x="720" y="720"/>
      <point x="478" y="720" type="curve" smooth="yes"/>
      <point x="236" y="720"/>
      <point x="45" y="571"/>
      <point x="45" y="355" type="curve" smooth="yes"/>
      <point x="45" y="140"/>
      <point x="236" y="-10"/>
    </contour>
    <contour>
      <point x="478" y="46" type="curve" smooth="yes"/>
      <point x="282" y="46"/>
      <point x="160" y="166"/>
      <point x="160" y="355" type="curve" smooth="yes"/>
      <point x="160" y="544"/>
      <point x="281" y="664"/>
      <point x="478" y="664" type="curve" smooth="yes"/>
      <point x="674" y="664"/>
      <point x="806" y="544"/>
      <point x="806" y="355" type="curve" smooth="yes"/>
      <point x="806" y="166"/>
      <point x="674" y="46"/>
    </contour>
  </outline>
</glyph>
<glyph name="R" format="2">
  <advance width="815"/>
  <unicode hex="0052"/>
  <outline>
    <contour>
      <point x="420" y="330" type="line"/>
      <point x="519" y="362" type="line"/>
      <point x="707" y="80" type="line" smooth="yes"/>
      <point x="726" y="51"/>
      <point x="745" y="50"/>
      <point x="796" y="50" type="curve" smooth="yes"/>
      <point x="805" y="50" type="line"/>
      <point x="805" y="0" type="line"/>
      <point x="634" y="0" type="line"/>
    </contour>
    <contour>
      <point x="246" y="66" type="line" smooth="yes"/>
      <point x="246" y="55"/>
      <point x="292" y="50"/>
      <point x="328" y="50" type="curve" smooth="yes"/>
      <point x="354" y="50" type="line"/>
      <point x="354" y="0" type="line"/>
      <point x="40" y="0" type="line"/>
      <point x="40" y="50" type="line"/>
      <point x="65" y="50" type="line" smooth="yes"/>
      <point x="101" y="50"/>
      <point x="139" y="60"/>
      <point x="139" y="104" type="curve" smooth="yes"/>
      <point x="139" y="606" type="line" smooth="yes"/>
      <point x="139" y="650"/>
      <point x="100" y="660"/>
      <point x="65" y="660" type="curve" smooth="yes"/>
      <point x="40" y="660" type="line"/>
      <point x="40" y="710" type="line"/>
      <point x="409" y="710" type="line" smooth="yes"/>
      <point x="616" y="710"/>
      <point x="707" y="637"/>
      <point x="707" y="520" type="curve" smooth="yes"/>
      <point x="707" y="406"/>
      <point x="633" y="342"/>
      <point x="503" y="319" type="curve" smooth="yes"/>
      <point x="474" y="314"/>
      <point x="449" y="310"/>
      <point x="429" y="310" type="curve" smooth="yes"/>
      <point x="224" y="310" type="line"/>
      <point x="224" y="363" type="line"/>
      <point x="415" y="363" type="line" smooth="yes"/>
      <point x="559" y="363"/>
      <point x="605" y="422"/>
      <point x="605" y="516" type="curve" smooth="yes"/>
      <point x="605" y="605"/>
      <point x="560" y="655"/>
      <point x="407" y="655" type="curve" smooth="yes"/>
      <point x="246" y="655" type="line"/>
    </contour>
  </outline>
</glyph>
<glyph name="S" format="2">
  <advance width="696"/>
  <unicode hex="0053"/>
  <outline>
    <contour>
      <point x="388" y="46" type="curve" smooth="yes"/>
      <point x="232" y="46"/>
      <point x="144" y="117"/>
      <point x="98" y="221" type="curve"/>
      <point x="50" y="221" type="line"/>
      <point x="50" y="0" type="line"/>
      <point x="97" y="0" type="line"/>
      <point x="121" y="132" type="line"/>
      <point x="84" y="161" type="line"/>
      <point x="121" y="58"/>
      <point x="234" y="-10"/>
      <point x="389" y="-10" type="curve" smooth="yes"/>
      <point x="530" y="-10"/>
      <point x="656" y="49"/>
      <point x="656" y="189" type="curve" smooth="yes"/>
      <point x="656" y="348"/>
      <point x="537" y="378"/>
      <point x="392" y="414" type="curve" smooth="yes"/>
      <point x="267" y="445"/>
      <point x="156" y="457"/>
      <point x="156" y="553" type="curve" smooth="yes"/>
      <point x="156" y="627"/>
      <point x="236" y="664"/>
      <point x="326" y="664" type="curve" smooth="yes"/>
      <point x="461" y="664"/>
      <point x="530" y="596"/>
      <point x="555" y="523" type="curve"/>
      <point x="601" y="523" type="line"/>
      <point x="601" y="710" type="line"/>
      <point x="554" y="710" type="line"/>
      <point x="534" y="599" type="line"/>
      <point x="574" y="574" type="line"/>
      <point x="557" y="652"/>
      <point x="473" y="720"/>
      <point x="327" y="720" type="curve" smooth="yes"/>
      <point x="192" y="720"/>
      <point x="74" y="660"/>
      <point x="74" y="539" type="curve" smooth="yes"/>
      <point x="74" y="386"/>
      <point x="195" y="357"/>
      <point x="339" y="320" type="curve" smooth="yes"/>
      <point x="471" y="286"/>
      <point x="572" y="272"/>
      <point x="572" y="166" type="curve" smooth="yes"/>
      <point x="572" y="86"/>
      <point x="497" y="46"/>
    </contour>
  </outline>
</glyph>
<glyph name="U" format="2">
  <advance width="925"/>
  <unicode hex="0055"/>
  <outline>
    <contour>
      <point x="240" y="293" type="curve" smooth="yes"/>
      <point x="240" y="644" type="line" smooth="yes"/>
      <point x="240" y="655"/>
      <point x="287" y="660"/>
      <point x="323" y="660" type="curve" smooth="yes"/>
      <point x="349" y="660" type="line"/>
      <point x="349" y="710" type="line"/>
      <point x="34" y="710" type="line"/>
      <point x="34" y="660" type="line"/>
      <point x="59" y="660" type="line" smooth="yes"/>
      <point x="94" y="660"/>
      <point x="133" y="650"/>
      <point x="133" y="606" type="curve" smooth="yes"/>
      <point x="133" y="267" type="line" smooth="yes"/>
      <point x="133" y="78"/>
      <point x="278" y="-10"/>
      <point x="467" y="-10" type="curve" smooth="yes"/>
      <point x="654" y="-10"/>
      <point x="792" y="86"/>
      <point x="792" y="282" type="curve" smooth="yes"/>
      <point x="792" y="567" type="line" smooth="yes"/>
      <point x="792" y="634"/>
      <point x="830" y="660"/>
      <point x="863" y="660" type="curve" smooth="yes"/>
      <point x="891" y="660" type="line"/>
      <point x="891" y="710" type="line"/>
      <point x="615" y="710" type="line"/>
      <point x="615" y="660" type="line"/>
      <point x="658" y="660" type="line" smooth="yes"/>
      <point x="693" y="660"/>
      <point x="730" y="650"/>
      <point x="730" y="612" type="curve" smooth="yes"/>
      <point x="730" y="297" type="line" smooth="yes"/>
      <point x="730" y="136"/>
      <point x="638" y="57"/>
      <point x="484" y="57" type="curve" smooth="yes"/>
      <point x="339" y="57"/>
      <point x="240" y="130"/>
    </contour>
  </outline>
</glyph>
<glyph name="Z" format="2">
  <advance width="756"/>
  <unicode hex="005A"/>
  <outline>
    <contour>
      <point x="235" y="655" type="curve" smooth="yes"/>
      <point x="634" y="655" type="line"/>
      <point x="586" y="694" type="line"/>
      <point x="45" y="55" type="line"/>
      <point x="45" y="0" type="line"/>
      <point x="702" y="0" type="line"/>
      <point x="702" y="221" type="line"/>
      <point x="655" y="221" type="line"/>
      <point x="638" y="145" type="line" smooth="yes"/>
      <point x="625" y="77"/>
      <point x="631" y="55"/>
      <point x="532" y="55" type="curve" smooth="yes"/>
      <point x="96" y="55" type="line"/>
      <point x="146" y="9" type="line"/>
      <point x="693" y="655" type="line"/>
      <point x="693" y="710" type="line"/>
      <point x="67" y="710" type="line"/>
      <point x="67" y="518" type="line"/>
      <point x="114" y="518" type="line"/>
      <point x="132" y="585" type="line" smooth="yes"/>
      <point x="143" y="633"/>
      <point x="139" y="655"/>
    </contour>
  </outline>
</glyph>
<glyph name="c" format="2">
  <advance width="648"/>
  <unicode hex="0063"/>
  <outline>
    <contour>
      <point x="369" y="42" type="curve" smooth="yes"/>
      <point x="235" y="42"/>
      <point x="155" y="129"/>
      <point x="155" y="259" type="curve" smooth="yes"/>
      <point x="155" y="385"/>
      <point x="220" y="476"/>
      <point x="373" y="476" type="curve" smooth="yes"/>
      <point x="440" y="476"/>
      <point x="513" y="458"/>
      <point x="541" y="422" type="curve"/>
      <point x="548" y="441"/>
      <point x="503" y="485"/>
      <point x="483" y="484" type="curve"/>
      <point x="483" y="360" type="line"/>
      <point x="585" y="360" type="line"/>
      <point x="585" y="471" type="line"/>
      <point x="550" y="497"/>
      <point x="471" y="528"/>
      <point x="373" y="528" type="curve" smooth="yes"/>
      <point x="181" y="528"/>
      <point x="45" y="416"/>
      <point x="45" y="259" type="curve" smooth="yes"/>
      <point x="45" y="99"/>
      <point x="188" y="-10"/>
      <point x="362" y="-10" type="curve" smooth="yes"/>
      <point x="473" y="-10"/>
      <point x="556" y="34"/>
      <point x="603" y="106" type="curve"/>
      <point x="568" y="135" type="line"/>
      <point x="528" y="74"/>
      <point x="465" y="42"/>
    </contour>
  </outline>
</glyph>
<glyph name="d" format="2">
  <advance width="782"/>
  <unicode hex="0064"/>
  <outline>
    <contour>
      <point x="669" y="100" type="curve" smooth="yes"/>
      <point x="669" y="750" type="line"/>
      <point x="462" y="750" type="line"/>
      <point x="462" y="701" type="line"/>
      <point x="492" y="699" type="line" smooth="yes"/>
      <point x="544" y="696"/>
      <point x="565" y="678"/>
      <point x="565" y="642" type="curve" smooth="yes"/>
      <point x="565" y="115" type="line"/>
      <point x="574" y="125" type="line"/>
      <point x="574" y="0" type="line"/>
      <point x="756" y="0" type="line"/>
      <point x="756" y="50" type="line"/>
      <point x="740" y="50" type="line"/>
      <point x="700" y="50"/>
      <point x="669" y="62"/>
    </contour>
    <contour>
      <point x="331" y="528" type="curve" smooth="yes"/>
      <point x="172" y="528"/>
      <point x="45" y="418"/>
      <point x="45" y="259" type="curve" smooth="yes"/>
      <point x="45" y="97"/>
      <point x="172" y="-10"/>
      <point x="331" y="-10" type="curve" smooth="yes"/>
      <point x="441" y="-10"/>
      <point x="518" y="35"/>
      <point x="581" y="108" type="curve"/>
      <point x="581" y="168" type="line"/>
      <point x="516" y="91"/>
      <point x="443" y="46"/>
      <point x="353" y="46" type="curve" smooth="yes"/>
      <point x="229" y="46"/>
      <point x="155" y="133"/>
      <point x="155" y="259" type="curve" smooth="yes"/>
      <point x="155" y="386"/>
      <point x="230" y="472"/>
      <point x="351" y="472" type="curve" smooth="yes"/>
      <point x="443" y="472"/>
      <point x="516" y="429"/>
      <point x="581" y="350" type="curve"/>
      <point x="581" y="410" type="line"/>
      <point x="518" y="484"/>
      <point x="441" y="528"/>
    </contour>
  </outline>
</glyph>
<glyph name="f" format="2">
  <advance width="440"/>
  <unicode hex="0066"/>
  <outline>
    <contour>
      <point x="26" y="518" type="line"/>
      <point x="26" y="466" type="line"/>
      <point x="413" y="466" type="line"/>
      <point x="413" y="518" type="line"/>
    </contour>
    <contour>
      <point x="445" y="745" type="line"/>
      <point x="431" y="750"/>
      <point x="397" y="758"/>
      <point x="354" y="758" type="curve" smooth="yes"/>
      <point x="217" y="758"/>
      <point x="143" y="700"/>
      <point x="143" y="587" type="curve" smooth="yes"/>
      <point x="143" y="96" type="line" smooth="yes"/>
      <point x="143" y="58"/>
      <point x="107" y="50"/>
      <point x="55" y="50" type="curve" smooth="yes"/>
      <point x="28" y="50" type="line"/>
      <point x="28" y="0" type="line"/>
      <point x="371" y="0" type="line"/>
      <point x="371" y="50" type="line"/>
      <point x="330" y="50" type="line" smooth="yes"/>
      <point x="287" y="50"/>
      <point x="247" y="54"/>
      <point x="247" y="64" type="curve" smooth="yes"/>
      <point x="247" y="588" type="line" smooth="yes"/>
      <point x="247" y="668"/>
      <point x="282" y="704"/>
      <point x="359" y="704" type="curve" smooth="yes"/>
      <point x="399" y="704"/>
      <point x="430" y="694"/>
      <point x="445" y="689" type="curve"/>
    </contour>
  </outline>
</glyph>
<glyph name="g" format="2">
  <advance width="689"/>
  <unicode hex="0067"/>
  <outline>
    <contour>
      <point x="669" y="443" type="curve"/>
      <point x="669" y="543" type="line"/>
      <point x="592" y="547"/>
      <point x="533" y="503"/>
      <point x="487" y="437" type="curve"/>
      <point x="502" y="404" type="line"/>
      <point x="535" y="446"/>
      <point x="584" y="447"/>
    </contour>
    <contour>
      <point x="328" y="161" type="curve" smooth="yes"/>
      <point x="459" y="161"/>
      <point x="568" y="232"/>
      <point x="568" y="343" type="curve" smooth="yes"/>
      <point x="568" y="454"/>
      <point x="459" y="528"/>
      <point x="328" y="528" type="curve" smooth="yes"/>
      <point x="197" y="528"/>
      <point x="88" y="454"/>
      <point x="88" y="343" type="curve" smooth="yes"/>
      <point x="88" y="232"/>
      <point x="197" y="161"/>
    </contour>
    <contour>
      <point x="328" y="196" type="curve" smooth="yes"/>
      <point x="248" y="196"/>
      <point x="194" y="254"/>
      <point x="194" y="343" type="curve" smooth="yes"/>
      <point x="194" y="433"/>
      <point x="247" y="494"/>
      <point x="328" y="494" type="curve" smooth="yes"/>
      <point x="411" y="494"/>
      <point x="462" y="433"/>
      <point x="462" y="343" type="curve" smooth="yes"/>
      <point x="462" y="254"/>
      <point x="410" y="196"/>
    </contour>
    <contour>
      <point x="322" y="-248" type="curve" smooth="yes"/>
      <point x="344" y="-248" type="line" smooth="yes"/>
      <point x="522" y="-248"/>
      <point x="656" y="-184"/>
      <point x="656" y="-61" type="curve" smooth="yes"/>
      <point x="656" y="24"/>
      <point x="597" y="74"/>
      <point x="449" y="74" type="curve" smooth="yes"/>
      <point x="251" y="74" type="line" smooth="yes"/>
      <point x="178" y="74"/>
      <point x="148" y="81"/>
      <point x="148" y="113" type="curve" smooth="yes"/>
      <point x="148" y="143"/>
      <point x="181" y="162"/>
      <point x="239" y="184" type="curve"/>
      <point x="198" y="193" type="line"/>
      <point x="113" y="168"/>
      <point x="69" y="130"/>
      <point x="69" y="75" type="curve" smooth="yes"/>
      <point x="69" y="35"/>
      <point x="93" y="-3"/>
      <point x="155" y="-16" type="curve"/>
      <point x="155" y="-24" type="line"/>
      <point x="444" y="-24" type="line" smooth="yes"/>
      <point x="540" y="-24"/>
      <point x="566" y="-49"/>
      <point x="566" y="-91" type="curve" smooth="yes"/>
      <point x="566" y="-166"/>
      <point x="486" y="-214"/>
      <point x="336" y="-214" type="curve" smooth="yes"/>
      <point x="334" y="-214" type="line" smooth="yes"/>
      <point x="162" y="-214"/>
      <point x="110" y="-169"/>
      <point x="110" y="-115" type="curve" smooth="yes"/>
      <point x="110" y="-68"/>
      <point x="137" y="-28"/>
      <point x="214" y="-5" type="curve"/>
      <point x="190" y="9" type="line"/>
      <point x="87" y="-20"/>
      <point x="23" y="-57"/>
      <point x="23" y="-120" type="curve" smooth="yes"/>
      <point x="23" y="-206"/>
      <point x="140" y="-248"/>
    </contour>
  </outline>
</glyph>
<glyph name="h" format="2">
  <advance width="766"/>
  <unicode hex="0068"/>
  <outline>
    <contour>
      <point x="224" y="750" type="line"/>
      <point x="31" y="750" type="line"/>
      <point x="31" y="700" type="line"/>
      <point x="59" y="698" type="line" smooth="yes"/>
      <point x="101" y="695"/>
      <point x="120" y="677"/>
      <point x="120" y="641" type="curve" smooth="yes"/>
      <point x="120" y="96" type="line" smooth="yes"/>
      <point x="120" y="58"/>
      <point x="85" y="50"/>
      <point x="48" y="50" type="curve" smooth="yes"/>
      <point x="31" y="50" type="line"/>
      <point x="31" y="0" type="line"/>
      <point x="314" y="0" type="line"/>
      <point x="314" y="50" type="line"/>
      <point x="300" y="50" type="line" smooth="yes"/>
      <point x="264" y="50"/>
      <point x="224" y="54"/>
      <point x="224" y="64" type="curve"/>
    </contour>
    <contour>
      <point x="740" y="0" type="line"/>
      <point x="740" y="50" type="line"/>
      <point x="723" y="50" type="line" smooth="yes"/>
      <point x="675" y="50"/>
      <point x="651" y="58"/>
      <point x="651" y="96" type="curve" smooth="yes"/>
      <point x="651" y="369" type="line" smooth="yes"/>
      <point x="651" y="475"/>
      <point x="577" y="528"/>
      <point x="461" y="528" type="curve" smooth="yes"/>
      <point x="343" y="528"/>
      <point x="271" y="484"/>
      <point x="208" y="409" type="curve"/>
      <point x="208" y="349" type="line"/>
      <point x="274" y="428"/>
      <point x="336" y="470"/>
      <point x="427" y="470" type="curve" smooth="yes"/>
      <point x="509" y="470"/>
      <point x="547" y="439"/>
      <point x="547" y="367" type="curve" smooth="yes"/>
      <point x="547" y="64" type="line" smooth="yes"/>
      <point x="547" y="54"/>
      <point x="507" y="50"/>
      <point x="471" y="50" type="curve" smooth="yes"/>
      <point x="457" y="50" type="line"/>
      <point x="457" y="0" type="line"/>
    </contour>
  </outline>
</glyph>
<glyph name="n" format="2">
  <advance width="766"/>
  <unicode hex="006E"/>
  <outline>
    <contour>
      <point x="31" y="0" type="line"/>
      <point x="314" y="0" type="line"/>
      <point x="314" y="50" type="line"/>
      <point x="300" y="50" type="line" smooth="yes"/>
      <point x="264" y="50"/>
      <point x="224" y="54"/>
      <point x="224" y="64" type="curve" smooth="yes"/>
      <point x="224" y="405" type="line"/>
      <point x="215" y="395" type="line"/>
      <point x="215" y="518" type="line"/>
      <point x="31" y="518" type="line"/>
      <point x="31" y="468" type="line"/>
      <point x="59" y="466" type="line" smooth="yes"/>
      <point x="100" y="464"/>
      <point x="120" y="445"/>
      <point x="120" y="409" type="curve" smooth="yes"/>
      <point x="120" y="96" type="line" smooth="yes"/>
      <point x="120" y="58"/>
      <point x="95" y="50"/>
      <point x="48" y="50" type="curve" smooth="yes"/>
      <point x="31" y="50" type="line"/>
    </contour>
    <contour>
      <point x="740" y="0" type="line"/>
      <point x="740" y="50" type="line"/>
      <point x="723" y="50" type="line" smooth="yes"/>
      <point x="676" y="50"/>
      <point x="651" y="58"/>
      <point x="651" y="96" type="curve" smooth="yes"/>
      <point x="651" y="369" type="line" smooth="yes"/>
      <point x="651" y="475"/>
      <point x="577" y="528"/>
      <point x="460" y="528" type="curve" smooth="yes"/>
      <point x="343" y="528"/>
      <point x="271" y="484"/>
      <point x="208" y="410" type="curve"/>
      <point x="208" y="350" type="line"/>
      <point x="274" y="428"/>
      <point x="335" y="470"/>
      <point x="427" y="470" type="curve" smooth="yes"/>
      <point x="509" y="470"/>
      <point x="547" y="439"/>
      <point x="547" y="367" type="curve" smooth="yes"/>
      <point x="547" y="64" type="line" smooth="yes"/>
      <point x="547" y="54"/>
      <point x="507" y="50"/>
      <point x="471" y="50" type="curve" smooth="yes"/>
      <point x="457" y="50" type="line"/>
      <point x="457" y="0" type="line"/>
    </contour>
  </outline>
</glyph>
<glyph name="p" format="2">
  <advance width="789"/>
  <unicode hex="0070"/>
  <outline>
    <contour>
      <point x="338" y="-223" type="line"/>
      <point x="338" y="-173" type="line"/>
      <point x="300" y="-173" type="line" smooth="yes"/>
      <point x="264" y="-173"/>
      <point x="224" y="-169"/>
      <point x="224" y="-159" type="curve" smooth="yes"/>
      <point x="224" y="401" type="line"/>
      <point x="215" y="391" type="line"/>
      <point x="215" y="518" type="line"/>
      <point x="31" y="518" type="line"/>
      <point x="31" y="468" type="line"/>
      <point x="59" y="466" type="line" smooth="yes"/>
      <point x="100" y="464"/>
      <point x="120" y="445"/>
      <point x="120" y="409" type="curve" smooth="yes"/>
      <point x="120" y="-127" type="line" smooth="yes"/>
      <point x="120" y="-165"/>
      <point x="85" y="-173"/>
      <point x="48" y="-173" type="curve"/>
      <point x="31" y="-173" type="line"/>
      <point x="31" y="-223" type="line"/>
    </contour>
    <contour>
      <point x="458" y="-10" type="curve" smooth="yes"/>
      <point x="616" y="-10"/>
      <point x="744" y="100"/>
      <point x="744" y="259" type="curve" smooth="yes"/>
      <point x="744" y="421"/>
      <point x="616" y="528"/>
      <point x="459" y="528" type="curve" smooth="yes"/>
      <point x="347" y="528"/>
      <point x="272" y="482"/>
      <point x="208" y="408" type="curve"/>
      <point x="208" y="350" type="line"/>
      <point x="273" y="428"/>
      <point x="346" y="472"/>
      <point x="437" y="472" type="curve" smooth="yes"/>
      <point x="559" y="472"/>
      <point x="634" y="386"/>
      <point x="634" y="259" type="curve" smooth="yes"/>
      <point x="634" y="132"/>
      <point x="559" y="46"/>
      <point x="439" y="46" type="curve" smooth="yes"/>
      <point x="347" y="46"/>
      <point x="274" y="87"/>
      <point x="208" y="167" type="curve"/>
      <point x="208" y="108" type="line"/>
      <point x="271" y="34"/>
      <point x="349" y="-10"/>
    </contour>
  </outline>
</glyph>
<glyph name="q" format="2">
  <advance width="766"/>
  <unicode hex="0071"/>
  <outline>
    <contour>
      <point x="451" y="-223" type="line"/>
      <point x="758" y="-223" type="line"/>
      <point x="758" y="-173" type="line"/>
      <point x="741" y="-173" type="line"/>
      <point x="704" y="-173"/>
      <point x="669" y="-165"/>
      <point x="669" y="-127" type="curve" smooth="yes"/>
      <point x="669" y="524" type="line"/>
      <point x="636" y="524" type="line"/>
      <point x="572" y="411" type="line"/>
      <point x="565" y="411" type="line"/>
      <point x="565" y="-159" type="line" smooth="yes"/>
      <point x="565" y="-169"/>
      <point x="525" y="-173"/>
      <point x="489" y="-173" type="curve" smooth="yes"/>
      <point x="451" y="-173" type="line"/>
    </contour>
    <contour>
      <point x="331" y="528" type="curve" smooth="yes"/>
      <point x="172" y="528"/>
      <point x="45" y="418"/>
      <point x="45" y="259" type="curve" smooth="yes"/>
      <point x="45" y="97"/>
      <point x="172" y="-10"/>
      <point x="331" y="-10" type="curve" smooth="yes"/>
      <point x="440" y="-10"/>
      <point x="518" y="36"/>
      <point x="581" y="109" type="curve"/>
      <point x="581" y="168" type="line"/>
      <point x="516" y="90"/>
      <point x="443" y="46"/>
      <point x="353" y="46" type="curve" smooth="yes"/>
      <point x="228" y="46"/>
      <point x="155" y="132"/>
      <point x="155" y="259" type="curve" smooth="yes"/>
      <point x="155" y="386"/>
      <point x="229" y="472"/>
      <point x="351" y="472" type="curve" smooth="yes"/>
      <point x="443" y="472"/>
      <point x="516" y="430"/>
      <point x="581" y="348" type="curve"/>
      <point x="581" y="410" type="line"/>
      <point x="517" y="485"/>
      <point x="441" y="528"/>
    </contour>
  </outline>
</glyph>
<glyph name="s" format="2">
  <advance width="573"/>
  <unicode hex="0073"/>
  <outline>
    <contour>
      <point x="452" y="116" type="curve" smooth="yes"/>
      <point x="452" y="71"/>
      <point x="402" y="40"/>
      <point x="290" y="40" type="curve" smooth="yes"/>
      <point x="222" y="40"/>
      <point x="150" y="55"/>
      <point x="113" y="81" type="curve"/>
      <point x="108" y="77"/>
      <point x="122" y="38"/>
      <point x="137" y="33" type="curve"/>
      <point x="137" y="162" type="line"/>
      <point x="40" y="162" type="line"/>
      <point x="40" y="51" type="line"/>
      <point x="89" y="21"/>
      <point x="174" y="-10"/>
      <point x="290" y="-10" type="curve" smooth="yes"/>
      <point x="441" y="-10"/>
      <point x="533" y="45"/>
      <point x="533" y="143" type="curve" smooth="yes"/>
      <point x="533" y="257"/>
      <point x="427" y="280"/>
      <point x="320" y="304" type="curve" smooth="yes"/>
      <point x="216" y="327"/>
      <point x="140" y="338"/>
      <point x="140" y="403" type="curve" smooth="yes"/>
      <point x="140" y="447"/>
      <point x="185" y="478"/>
      <point x="289" y="478" type="curve" smooth="yes"/>
      <point x="349" y="478"/>
      <point x="408" y="463"/>
      <point x="435" y="445" type="curve"/>
      <point x="438" y="461"/>
      <point x="419" y="493"/>
      <point x="396" y="492" type="curve"/>
      <point x="396" y="381" type="line"/>
      <point x="491" y="381" type="line"/>
      <point x="491" y="483" type="line"/>
      <point x="463" y="502"/>
      <point x="385" y="528"/>
      <point x="289" y="528" type="curve" smooth="yes"/>
      <point x="149" y="528"/>
      <point x="64" y="473"/>
      <point x="64" y="381" type="curve" smooth="yes"/>
      <point x="64" y="267"/>
      <point x="174" y="241"/>
      <point x="277" y="219" type="curve" smooth="yes"/>
      <point x="385" y="196"/>
      <point x="452" y="184"/>
    </contour>
  </outline>
</glyph>
<glyph name="t" format="2">
  <advance width="423"/>
  <unicode hex="0074"/>
  <outline>
    <contour>
      <point x="15" y="466" type="line"/>
      <point x="372" y="466" type="line"/>
      <point x="372" y="518" type="line"/>
      <point x="162" y="518" type="line"/>
      <point x="134" y="586" type="line"/>
      <point x="128" y="532"/>
      <point x="94" y="515"/>
      <point x="20" y="515" type="curve" smooth="yes"/>
      <point x="15" y="515" type="line"/>
    </contour>
    <contour>
      <point x="212" y="156" type="curve"/>
      <point x="212" y="662" type="line"/>
      <point x="141" y="662" type="line"/>
      <point x="128" y="523" type="line"/>
      <point x="109" y="522" type="line"/>
      <point x="109" y="138" type="line" smooth="yes"/>
      <point x="109" y="31"/>
      <point x="189" y="-10"/>
      <point x="290" y="-10" type="curve" smooth="yes"/>
      <point x="334" y="-10"/>
      <point x="368" y="0"/>
      <point x="391" y="11" type="curve"/>
      <point x="391" y="64" type="line"/>
      <point x="379" y="57"/>
      <point x="348" y="45"/>
      <point x="309" y="45" type="curve" smooth="yes"/>
      <point x="253" y="45"/>
      <point x="212" y="71"/>
    </contour>
  </outline>
</glyph>
<glyph name="u" format="2">
  <advance width="751"/>
  <unicode hex="0075"/>
  <outline>
    <contour>
      <point x="219" y="518" type="line"/>
      <point x="26" y="518" type="line"/>
      <point x="26" y="468" type="line"/>
      <point x="54" y="466" type="line" smooth="yes"/>
      <point x="96" y="463"/>
      <point x="115" y="445"/>
      <point x="115" y="407" type="curve" smooth="yes"/>
      <point x="115" y="149" type="line" smooth="yes"/>
      <point x="115" y="43"/>
      <point x="193" y="-10"/>
      <point x="306" y="-10" type="curve" smooth="yes"/>
      <point x="412" y="-10"/>
      <point x="485" y="34"/>
      <point x="548" y="108" type="curve"/>
      <point x="548" y="168" type="line"/>
      <point x="482" y="90"/>
      <point x="416" y="48"/>
      <point x="330" y="48" type="curve" smooth="yes"/>
      <point x="257" y="48"/>
      <point x="219" y="72"/>
      <point x="219" y="151" type="curve" smooth="yes"/>
    </contour>
    <contour>
      <point x="636" y="518" type="line"/>
      <point x="421" y="518" type="line"/>
      <point x="421" y="468" type="line"/>
      <point x="459" y="466" type="line" smooth="yes"/>
      <point x="511" y="463"/>
      <point x="532" y="445"/>
      <point x="532" y="407" type="curve" smooth="yes"/>
      <point x="532" y="112" type="line"/>
      <point x="541" y="132" type="line"/>
      <point x="541" y="0" type="line"/>
      <point x="725" y="0" type="line"/>
      <point x="725" y="50" type="line"/>
      <point x="707" y="50" type="line" smooth="yes"/>
      <point x="667" y="50"/>
      <point x="636" y="62"/>
      <point x="636" y="100" type="curve" smooth="yes"/>
    </contour>
  </outline>
</glyph>
<glyph name="v" format="2">
  <advance width="656"/>
  <unicode hex="0076"/>
  <outline>
    <contour>
      <point x="525" y="446" type="curve"/>
      <point x="335" y="46" type="line"/>
      <point x="371" y="47" type="line"/>
      <point x="173" y="462" type="line"/>
      <point x="173" y="469"/>
      <point x="230" y="471"/>
      <point x="274" y="471" type="curve" smooth="yes"/>
      <point x="276" y="471" type="line"/>
      <point x="276" y="518" type="line"/>
      <point x="10" y="518" type="line"/>
      <point x="10" y="471" type="line"/>
      <point x="14" y="471" type="line" smooth="yes"/>
      <point x="42" y="471"/>
      <point x="67" y="469"/>
      <point x="80" y="441" type="curve" smooth="yes"/>
      <point x="291" y="0" type="line"/>
      <point x="370" y="0" type="line"/>
      <point x="575" y="428" type="line" smooth="yes"/>
      <point x="590" y="458"/>
      <point x="611" y="471"/>
      <point x="638" y="471" type="curve" smooth="yes"/>
      <point x="646" y="471" type="line"/>
      <point x="646" y="518" type="line"/>
      <point x="443" y="518" type="line"/>
      <point x="443" y="471" type="line"/>
      <point x="446" y="471" type="line" smooth="yes"/>
      <point x="481" y="471"/>
      <point x="527" y="461"/>
    </contour>
  </outline>
</glyph>
<glyph name="cent" format="2">
  <advance width="680"/>
  <unicode hex="00A2"/>
  <outline>
    <contour>
      <point x="385" y="36" type="curve" smooth="yes"/>
      <point x="239" y="36"/>
      <point x="162" y="111"/>
      <point x="162" y="259" type="curve" smooth="yes"/>
      <point x="162" y="403"/>
      <point x="224" y="483"/>
      <point x="389" y="483" type="curve" smooth="yes"/>
      <point x="461" y="483"/>
      <point x="536" y="466"/>
      <point x="567" y="431" type="curve"/>
      <point x="574" y="450"/>
      <point x="536" y="485"/>
      <point x="516" y="484" type="curve"/>
      <point x="516" y="363" type="line"/>
      <point x="611" y="363" type="line"/>
      <point x="611" y="471" type="line"/>
      <point x="576" y="497"/>
      <point x="492" y="528"/>
      <point x="389" y="528" type="curve" smooth="yes"/>
      <point x="192" y="528"/>
      <point x="52" y="418"/>
      <point x="52" y="259" type="curve" smooth="yes"/>
      <point x="52" y="97"/>
      <point x="199" y="-10"/>
      <point x="378" y="-10" type="curve" smooth="yes"/>
      <point x="497" y="-10"/>
      <point x="580" y="33"/>
      <point x="628" y="103" type="curve"/>
      <point x="596" y="121" type="line"/>
      <point x="557" y="61"/>
      <point x="481" y="36"/>
    </contour>
    <contour>
      <point x="346" y="623" type="line"/>
      <point x="346" y="516" type="line"/>
      <point x="346" y="505" type="line"/>
      <point x="346" y="5" type="line"/>
      <point x="346" y="-1" type="line"/>
      <point x="346" y="-126" type="line"/>
      <point x="402" y="-126" type="line"/>
      <point x="402" y="-2" type="line"/>
      <point x="402" y="2" type="line"/>
      <point x="402" y="506" type="line"/>
      <point x="402" y="515" type="line"/>
      <point x="402" y="623" type="line"/>
    </contour>
  </outline>
</glyph>
<glyph name="sterling" format="2">
  <advance width="680"/>
  <unicode hex="00A3"/>
  <outline>
    <contour>
      <point x="31" y="-10" type="line"/>
      <point x="195" y="24"/>
      <point x="290" y="95"/>
      <point x="290" y="229" type="curve" smooth="yes"/>
      <point x="290" y="351"/>
      <point x="207" y="422"/>
      <point x="207" y="541" type="curve" smooth="yes"/>
      <point x="207" y="636"/>
      <point x="281" y="670"/>
      <point x="380" y="670" type="curve" smooth="yes"/>
      <point x="464" y="670"/>
      <point x="525" y="648"/>
      <point x="551" y="619" type="curve"/>
      <point x="550" y="640"/>
      <point x="532" y="680"/>
      <point x="506" y="682" type="curve"/>
      <point x="506" y="562" type="line"/>
      <point x="606" y="562" type="line"/>
      <point x="606" y="663" type="line"/>
      <point x="568" y="688"/>
      <point x="484" y="720"/>
      <point x="377" y="720" type="curve" smooth="yes"/>
      <point x="220" y="720"/>
      <point x="98" y="651"/>
      <point x="98" y="525" type="curve" smooth="yes"/>
      <point x="98" y="402"/>
      <point x="207" y="337"/>
      <point x="207" y="207" type="curve" smooth="yes"/>
      <point x="207" y="116"/>
      <point x="153" y="75"/>
      <point x="31" y="44" type="curve"/>
    </contour>
    <contour>
      <point x="480" y="-10" type="curve" smooth="yes"/>
      <point x="570" y="-10"/>
      <point x="622" y="72"/>
      <point x="652" y="178" type="curve"/>
      <point x="618" y="189" type="line"/>
      <point x="579" y="101"/>
      <point x="518" y="92"/>
      <point x="480" y="92" type="curve" smooth="yes"/>
      <point x="433" y="92"/>
      <point x="345" y="90"/>
      <point x="254" y="167" type="curve"/>
      <point x="246" y="162"/>
      <point x="230" y="148"/>
      <point x="229" y="140" type="curve"/>
      <point x="327" y="50"/>
      <point x="389" y="-10"/>
    </contour>
    <contour>
      <point x="31" y="364" type="line"/>
      <point x="31" y="312" type="line"/>
      <point x="506" y="312" type="line"/>
      <point x="506" y="364" type="line"/>
    </contour>
  </outline>
</glyph>
<glyph name="currency" format="2">
  <advance width="680"/>
  <unicode hex="00A4"/>
  <outline>
    <contour>
      <point x="484" y="373" type="curve" smooth="yes"/>
      <point x="484" y="285"/>
      <point x="425" y="229"/>
      <point x="340" y="229" type="curve" smooth="yes"/>
      <point x="256" y="229"/>
      <point x="196" y="285"/>
      <point x="196" y="373" type="curve" smooth="yes"/>
      <point x="196" y="462"/>
      <point x="256" y="518"/>
      <point x="340" y="518" type="curve" smooth="yes"/>
      <point x="425" y="518"/>
      <point x="484" y="462"/>
    </contour>
    <contour>
      <point x="136" y="373" type="curve" smooth="yes"/>
      <point x="136" y="259"/>
      <point x="230" y="178"/>
      <point x="340" y="178" type="curve" smooth="yes"/>
      <point x="450" y="178"/>
      <point x="544" y="259"/>
      <point x="544" y="373" type="curve" smooth="yes"/>
      <point x="544" y="488"/>
      <point x="450" y="569"/>
      <point x="340" y="569" type="curve" smooth="yes"/>
      <point x="230" y="569"/>
      <point x="136" y="488"/>
    </contour>
    <contour>
      <point x="91" y="580" type="line"/>
      <point x="190" y="481" type="line"/>
      <point x="222" y="531" type="line"/>
      <point x="132" y="621" type="line"/>
    </contour>
    <contour>
      <point x="589" y="580" type="line"/>
      <point x="548" y="621" type="line"/>
      <point x="458" y="531" type="line"/>
      <point x="490" y="481" type="line"/>
    </contour>
    <contour>
      <point x="91" y="167" type="line"/>
      <point x="132" y="126" type="line"/>
      <point x="228" y="222" type="line"/>
      <point x="190" y="266" type="line"/>
    </contour>
    <contour>
      <point x="589" y="167" type="line"/>
      <point x="490" y="266" type="line"/>
      <point x="452" y="222" type="line"/>
      <point x="548" y="126" type="line"/>
    </contour>
  </outline>
</glyph>
<glyph name="brokenbar" format="2">
  <advance width="260"/>
  <unicode hex="00A6"/>
  <outline>
    <contour>
      <point x="105" y="750" type="line"/>
      <point x="105" y="380" type="line"/>
      <point x="155" y="380" type="line"/>
      <point x="155" y="750" type="line"/>
    </contour>
    <contour>
      <point x="105" y="242" type="line"/>
      <point x="105" y="-128" type="line"/>
      <point x="155" y="-128" type="line"/>
      <point x="155" y="242" type="line"/>
    </contour>
  </outline>
</glyph>
<glyph name="section" format="2">
  <advance width="744"/>
  <unicode hex="00A7"/>
  <outline>
    <contour>
      <point x="275" y="425" type="line"/>
      <point x="158" y="412"/>
      <point x="60" y="343"/>
      <point x="60" y="254" type="curve" smooth="yes"/>
      <point x="60" y="156"/>
      <point x="121" y="114"/>
      <point x="317" y="48" type="curve" smooth="yes"/>
      <point x="500" y="-14"/>
      <point x="523" y="-47"/>
      <point x="523" y="-89" type="curve" smooth="yes"/>
      <point x="523" y="-143"/>
      <point x="473" y="-186"/>
      <point x="347" y="-186" type="curve" smooth="yes"/>
      <point x="265" y="-186"/>
      <point x="176" y="-156"/>
      <point x="141" y="-125" type="curve"/>
      <point x="134" y="-141"/>
      <point x="158" y="-183"/>
      <point x="191" y="-186" type="curve"/>
      <point x="191" y="-60" type="line"/>
      <point x="86" y="-60" type="line"/>
      <point x="86" y="-167" type="line"/>
      <point x="135" y="-199"/>
      <point x="222" y="-236"/>
      <point x="351" y="-236" type="curve" smooth="yes"/>
      <point x="506" y="-236"/>
      <point x="621" y="-169"/>
      <point x="621" y="-67" type="curve" smooth="yes"/>
      <point x="621" y="24"/>
      <point x="549" y="75"/>
      <point x="353" y="138" type="curve" smooth="yes"/>
      <point x="185" y="192"/>
      <point x="159" y="224"/>
      <point x="159" y="272" type="curve" smooth="yes"/>
      <point x="159" y="314"/>
      <point x="205" y="368"/>
      <point x="299" y="384" type="curve"/>
    </contour>
    <contour>
      <point x="469" y="59" type="line"/>
      <point x="586" y="72"/>
      <point x="684" y="141"/>
      <point x="684" y="230" type="curve" smooth="yes"/>
      <point x="684" y="328"/>
      <point x="622" y="373"/>
      <point x="424" y="438" type="curve" smooth="yes"/>
      <point x="252" y="495"/>
      <point x="216" y="511"/>
      <point x="216" y="573" type="curve" smooth="yes"/>
      <point x="216" y="634"/>
      <point x="271" y="670"/>
      <point x="387" y="670" type="curve" smooth="yes"/>
      <point x="459" y="670"/>
      <point x="516" y="658"/>
      <point x="549" y="616" type="curve"/>
      <point x="556" y="643"/>
      <point x="545" y="667"/>
      <point x="512" y="670" type="curve"/>
      <point x="512" y="559" type="line"/>
      <point x="612" y="559" type="line"/>
      <point x="612" y="657" type="line"/>
      <point x="563" y="689"/>
      <point x="485" y="720"/>
      <point x="383" y="720" type="curve" smooth="yes"/>
      <point x="228" y="720"/>
      <point x="123" y="653"/>
      <point x="123" y="551" type="curve" smooth="yes"/>
      <point x="123" y="460"/>
      <point x="197" y="409"/>
      <point x="393" y="346" type="curve" smooth="yes"/>
      <point x="561" y="292"/>
      <point x="592" y="270"/>
      <point x="592" y="208" type="curve" smooth="yes"/>
      <point x="592" y="155"/>
      <point x="521" y="110"/>
      <point x="430" y="96" type="curve"/>
    </contour>
  </outline>
</glyph>
<glyph name="registered" format="2">
  <advance width="890"/>
  <unicode hex="00AE"/>
  <outline>
    <contour>
      <point x="445" y="22" type="curve" smooth="yes"/>
      <point x="232" y="22"/>
      <point x="97" y="161"/>
      <point x="97" y="355" type="curve" smooth="yes"/>
      <point x="97" y="549"/>
      <point x="232" y="688"/>
      <point x="445" y="688" type="curve" smooth="yes"/>
      <point x="658" y="688"/>
      <point x="793" y="549"/>
      <point x="793" y="355" type="curve" smooth="yes"/>
      <point x="793" y="161"/>
      <point x="658" y="22"/>
    </contour>
    <contour>
      <point x="445" y="-28" type="curve" smooth="yes"/>
      <point x="685" y="-28"/>
      <point x="850" y="133"/>
      <point x="850" y="355" type="curve" smooth="yes"/>
      <point x="850" y="577"/>
      <point x="685" y="738"/>
      <point x="445" y="738" type="curve" smooth="yes"/>
      <point x="205" y="738"/>
      <point x="40" y="577"/>
      <point x="40" y="355" type="curve" smooth="yes"/>
      <point x="40" y="133"/>
      <point x="205" y="-28"/>
    </contour>
    <contour>
      <point x="237" y="153" type="line"/>
      <point x="441" y="153" type="line"/>
      <point x="441" y="195" type="line"/>
      <point x="432" y="195" type="line" smooth="yes"/>
      <point x="413" y="195"/>
      <point x="374" y="196"/>
      <point x="374" y="200" type="curve" smooth="yes"/>
      <point x="374" y="324" type="line"/>
      <point x="458" y="324" type="line" smooth="yes"/>
      <point x="555" y="324"/>
      <point x="639" y="365"/>
      <point x="639" y="446" type="curve" smooth="yes"/>
      <point x="639" y="519"/>
      <point x="570" y="557"/>
      <point x="461" y="557" type="curve" smooth="yes"/>
      <point x="237" y="557" type="line"/>
      <point x="237" y="516" type="line"/>
      <point x="254" y="516" type="line" smooth="yes"/>
      <point x="286" y="516"/>
      <point x="299" y="510"/>
      <point x="299" y="492" type="curve" smooth="yes"/>
      <point x="299" y="231" type="line" smooth="yes"/>
      <point x="299" y="202"/>
      <point x="286" y="195"/>
      <point x="254" y="195" type="curve" smooth="yes"/>
      <point x="237" y="195" type="line"/>
    </contour>
    <contour>
      <point x="460" y="513" type="line" smooth="yes"/>
      <point x="524" y="513"/>
      <point x="561" y="494"/>
      <point x="561" y="446" type="curve" smooth="yes"/>
      <point x="561" y="394"/>
      <point x="524" y="369"/>
      <point x="457" y="369" type="curve" smooth="yes"/>
      <point x="374" y="369" type="line"/>
      <point x="374" y="513" type="line"/>
    </contour>
    <contour>
      <point x="452" y="343" type="line"/>
      <point x="565" y="152" type="line"/>
      <point x="671" y="152" type="line"/>
      <point x="671" y="194" type="line"/>
      <point x="657" y="194" type="line" smooth="yes"/>
      <point x="634" y="194"/>
      <point x="621" y="200"/>
      <point x="612" y="216" type="curve" smooth="yes"/>
      <point x="521" y="362" type="line"/>
    </contour>
  </outline>
</glyph>
<glyph name="cedilla" format="2">
  <advance width="730"/>
  <unicode hex="00B8"/>
  <outline>
    <contour>
      <point x="371" y="4" type="line"/>
      <point x="310" y="4" type="line"/>
      <point x="270" y="-105" type="line"/>
      <point x="306" y="-105" type="line" smooth="yes"/>
      <point x="360" y="-105"/>
      <point x="384" y="-122"/>
      <point x="384" y="-148" type="curve" smooth="yes"/>
      <point x="384" y="-176"/>
      <point x="357" y="-195"/>
      <point x="319" y="-195" type="curve" smooth="yes"/>
      <point x="284" y="-195"/>
      <point x="253" y="-186"/>
      <point x="226" y="-157" type="curve"/>
      <point x="196" y="-185" type="line"/>
      <point x="225" y="-218"/>
      <point x="270" y="-243"/>
      <point x="332" y="-243" type="curve" smooth="yes"/>
      <point x="415" y="-243"/>
      <point x="473" y="-208"/>
      <point x="473" y="-147" type="curve" smooth="yes"/>
      <point x="473" y="-86"/>
      <point x="413" y="-59"/>
      <point x="315" y="-67" type="curve"/>
      <point x="326" y="-78" type="line"/>
    </contour>
  </outline>
</glyph>
<glyph name="ordmasculine" format="2">
  <advance width="566"/>
  <unicode hex="00BA"/>
  <outline>
    <contour>
      <point x="520" y="516" type="curve" smooth="yes"/>
      <point x="520" y="637"/>
      <point x="419" y="720"/>
      <point x="283" y="720" type="curve" smooth="yes"/>
      <point x="147" y="720"/>
      <point x="46" y="637"/>
      <point x="46" y="516" type="curve" smooth="yes"/>
      <point x="46" y="395"/>
      <point x="147" y="312"/>
      <point x="283" y="312" type="curve" smooth="yes"/>
      <point x="419" y="312"/>
      <point x="520" y="395"/>
    </contour>
    <contour>
      <point x="142" y="516" type="curve" smooth="yes"/>
      <point x="142" y="624"/>
      <point x="193" y="677"/>
      <point x="283" y="677" type="curve" smooth="yes"/>
      <point x="374" y="677"/>
      <point x="424" y="624"/>
      <point x="424" y="516" type="curve" smooth="yes"/>
      <point x="424" y="409"/>
      <point x="373" y="355"/>
      <point x="283" y="355" type="curve" smooth="yes"/>
      <point x="193" y="355"/>
      <point x="142" y="409"/>
    </contour>
  </outline>
</glyph>
<glyph name="AE" format="2">
  <advance width="1144"/>
  <unicode hex="00C6"/>
  <outline>
    <contour>
      <point x="268" y="301" type="line"/>
      <point x="244" y="244" type="line"/>
      <point x="631" y="244" type="line"/>
      <point x="631" y="301" type="line"/>
    </contour>
    <contour>
      <point x="636" y="389" type="curve"/>
      <point x="636" y="337" type="line"/>
      <point x="768" y="335"/>
      <point x="858" y="330"/>
      <point x="962" y="318" type="curve"/>
      <point x="962" y="407" type="line"/>
      <point x="858" y="396"/>
      <point x="768" y="391"/>
    </contour>
    <contour>
      <point x="446" y="0" type="line"/>
      <point x="1094" y="0" type="line"/>
      <point x="1094" y="217" type="line"/>
      <point x="1047" y="217" type="line"/>
      <point x="1030" y="140" type="line" smooth="yes"/>
      <point x="1019" y="75"/>
      <point x="1003" y="55"/>
      <point x="910" y="55" type="curve" smooth="yes"/>
      <point x="656" y="55" type="line"/>
      <point x="656" y="655" type="line"/>
      <point x="882" y="655" type="line" smooth="yes"/>
      <point x="975" y="655"/>
      <point x="990" y="634"/>
      <point x="1007" y="571" type="curve" smooth="yes"/>
      <point x="1021" y="518" type="line"/>
      <point x="1068" y="518" type="line"/>
      <point x="1068" y="710" type="line"/>
      <point x="394" y="710" type="line"/>
      <point x="394" y="660" type="line"/>
      <point x="419" y="660" type="line" smooth="yes"/>
      <point x="455" y="660"/>
      <point x="463" y="662"/>
      <point x="474" y="639" type="curve"/>
      <point x="85" y="104" type="line" smooth="yes"/>
      <point x="59" y="67"/>
      <point x="47" y="50"/>
      <point x="8" y="50" type="curve" smooth="yes"/>
      <point x="0" y="50" type="line"/>
      <point x="0" y="0" type="line"/>
      <point x="229" y="0" type="line"/>
      <point x="229" y="50" type="line"/>
      <point x="199" y="50" type="line" smooth="yes"/>
      <point x="137" y="50"/>
      <point x="134" y="60"/>
      <point x="134" y="72" type="curve"/>
      <point x="556" y="654" type="line"/>
      <point x="549" y="674" type="line"/>
      <point x="549" y="104" type="line" smooth="yes"/>
      <point x="549" y="60"/>
      <point x="517" y="50"/>
      <point x="471" y="50" type="curve" smooth="yes"/>
      <point x="446" y="50" type="line"/>
    </contour>
  </outline>
</glyph>
<glyph name="Oslash" format="2">
  <advance width="956"/>
  <unicode hex="00D8"/>
  <outline>
    <contour>
      <point x="478" y="664" type="curve" smooth="yes"/>
      <point x="669" y="664"/>
      <point x="796" y="564"/>
      <point x="796" y="355" type="curve" smooth="yes"/>
      <point x="796" y="166"/>
      <point x="675" y="46"/>
      <point x="478" y="46" type="curve" smooth="yes"/>
      <point x="287" y="46"/>
      <point x="160" y="146"/>
      <point x="160" y="355" type="curve" smooth="yes"/>
      <point x="160" y="542"/>
      <point x="280" y="664"/>
    </contour>
    <contour>
      <point x="478" y="-10" type="curve" smooth="yes"/>
      <point x="720" y="-10"/>
      <point x="911" y="139"/>
      <point x="911" y="355" type="curve" smooth="yes"/>
      <point x="911" y="571"/>
      <point x="720" y="720"/>
      <point x="478" y="720" type="curve" smooth="yes"/>
      <point x="236" y="720"/>
      <point x="45" y="571"/>
      <point x="45" y="355" type="curve" smooth="yes"/>
      <point x="45" y="139"/>
      <point x="236" y="-10"/>
    </contour>
    <contour>
      <point x="71" y="-10" type="line"/>
      <point x="145" y="-10" type="line"/>
      <point x="892" y="720" type="line"/>
      <point x="818" y="720" type="line"/>
    </contour>
  </outline>
</glyph>
<glyph name="Thorn" format="2">
  <advance width="760"/>
  <unicode hex="00DE"/>
  <outline>
    <contour>
      <point x="376" y="710" type="line"/>
      <point x="376" y="660" type="line"/>
      <point x="334" y="660" type="line" smooth="yes"/>
      <point x="295" y="660"/>
      <point x="246" y="655"/>
      <point x="246" y="624" type="curve" smooth="yes"/>
      <point x="246" y="86" type="line" smooth="yes"/>
      <point x="246" y="55"/>
      <point x="295" y="50"/>
      <point x="334" y="50" type="curve" smooth="yes"/>
      <point x="376" y="50" type="line"/>
      <point x="376" y="0" type="line"/>
      <point x="40" y="0" type="line"/>
      <point x="40" y="50" type="line"/>
      <point x="65" y="50" type="line" smooth="yes"/>
      <point x="111" y="50"/>
      <point x="139" y="60"/>
      <point x="139" y="104" type="curve" smooth="yes"/>
      <point x="139" y="606" type="line" smooth="yes"/>
      <point x="139" y="650"/>
      <point x="111" y="660"/>
      <point x="65" y="660" type="curve" smooth="yes"/>
      <point x="40" y="660" type="line"/>
      <point x="40" y="710" type="line"/>
    </contour>
    <contour>
      <point x="710" y="365" type="curve" smooth="yes"/>
      <point x="710" y="239"/>
      <point x="605" y="157"/>
      <point x="402" y="157" type="curve" smooth="yes"/>
      <point x="206" y="157" type="line"/>
      <point x="206" y="212" type="line"/>
      <point x="400" y="212" type="line" smooth="yes"/>
      <point x="553" y="212"/>
      <point x="597" y="265"/>
      <point x="597" y="364" type="curve" smooth="yes"/>
      <point x="597" y="464"/>
      <point x="552" y="508"/>
      <point x="406" y="508" type="curve" smooth="yes"/>
      <point x="206" y="508" type="line"/>
      <point x="206" y="563" type="line"/>
      <point x="409" y="563" type="line" smooth="yes"/>
      <point x="611" y="563"/>
      <point x="710" y="490"/>
    </contour>
  </outline>
</glyph>
<glyph name="germandbls" format="2">
  <advance width="724"/>
  <unicode hex="00DF"/>
  <outline>
    <contour>
      <point x="26" y="518" type="line"/>
      <point x="26" y="466" type="line"/>
      <point x="183" y="466" type="line"/>
      <point x="183" y="518" type="line"/>
    </contour>
    <contour>
      <point x="336" y="418" type="line"/>
      <point x="493" y="433"/>
      <point x="605" y="506"/>
      <point x="605" y="605" type="curve" smooth="yes"/>
      <point x="605" y="690"/>
      <point x="528" y="758"/>
      <point x="384" y="758" type="curve" smooth="yes"/>
      <point x="267" y="758"/>
      <point x="150" y="709"/>
      <point x="150" y="574" type="curve" smooth="yes"/>
      <point x="150" y="96" type="line" smooth="yes"/>
      <point x="150" y="58"/>
      <point x="114" y="50"/>
      <point x="55" y="50" type="curve" smooth="yes"/>
      <point x="28" y="50" type="line"/>
      <point x="28" y="0" type="line"/>
      <point x="254" y="0" type="line"/>
      <point x="254" y="574" type="line" smooth="yes"/>
      <point x="254" y="666"/>
      <point x="302" y="708"/>
      <point x="381" y="708" type="curve" smooth="yes"/>
      <point x="456" y="708"/>
      <point x="507" y="665"/>
      <point x="507" y="595" type="curve" smooth="yes"/>
      <point x="507" y="510"/>
      <point x="444" y="462"/>
      <point x="319" y="446" type="curve"/>
      <point x="319" y="399" type="line"/>
      <point x="322" y="399" type="line" smooth="yes"/>
      <point x="470" y="399"/>
      <point x="582" y="304"/>
      <point x="582" y="191" type="curve" smooth="yes"/>
      <point x="582" y="86"/>
      <point x="526" y="39"/>
      <point x="437" y="39" type="curve" smooth="yes"/>
      <point x="383" y="39"/>
      <point x="336" y="59"/>
      <point x="317" y="69" type="curve"/>
      <point x="317" y="14" type="line"/>
      <point x="336" y="4"/>
      <point x="388" y="-11"/>
      <point x="443" y="-11" type="curve" smooth="yes"/>
      <point x="581" y="-11"/>
      <point x="686" y="57"/>
      <point x="686" y="186" type="curve" smooth="yes"/>
      <point x="686" y="308"/>
      <point x="572" y="404"/>
      <point x="372" y="432" type="curve"/>
      <point x="381" y="415" type="line"/>
      <point x="386" y="436" type="line"/>
    </contour>
  </outline>
</glyph>
<glyph name="ae" format="2">
  <advance width="1039"/>
  <unicode hex="00E6"/>
  <outline>
    <contour>
      <point x="445" y="313" type="line"/>
      <point x="180" y="282"/>
      <point x="45" y="257"/>
      <point x="45" y="122" type="curve" smooth="yes"/>
      <point x="45" y="26"/>
      <point x="137" y="-10"/>
      <point x="223" y="-10" type="curve" smooth="yes"/>
      <point x="358" y="-10"/>
      <point x="459" y="78"/>
      <point x="499" y="149" type="curve"/>
      <point x="460" y="188" type="line"/>
      <point x="420" y="120"/>
      <point x="359" y="40"/>
      <point x="257" y="40" type="curve" smooth="yes"/>
      <point x="197" y="40"/>
      <point x="148" y="65"/>
      <point x="148" y="132" type="curve" smooth="yes"/>
      <point x="148" y="234"/>
      <point x="243" y="247"/>
      <point x="447" y="269" type="curve"/>
    </contour>
    <contour>
      <point x="312" y="528" type="curve" smooth="yes"/>
      <point x="192" y="528"/>
      <point x="119" y="493"/>
      <point x="84" y="471" type="curve"/>
      <point x="84" y="370" type="line"/>
      <point x="181" y="370" type="line"/>
      <point x="181" y="488" type="line"/>
      <point x="156" y="490"/>
      <point x="120" y="462"/>
      <point x="117" y="422" type="curve"/>
      <point x="152" y="464"/>
      <point x="210" y="483"/>
      <point x="293" y="483" type="curve" smooth="yes"/>
      <point x="384" y="483"/>
      <point x="432" y="454"/>
      <point x="432" y="368" type="curve" smooth="yes"/>
      <point x="432" y="259" type="line"/>
      <point x="550" y="383" type="line"/>
      <point x="550" y="495"/>
      <point x="417" y="528"/>
    </contour>
    <contour>
      <point x="746" y="42" type="curve" smooth="yes"/>
      <point x="626" y="42"/>
      <point x="536" y="105"/>
      <point x="536" y="256" type="curve" smooth="yes"/>
      <point x="536" y="408"/>
      <point x="602" y="476"/>
      <point x="716" y="476" type="curve" smooth="yes"/>
      <point x="833" y="476"/>
      <point x="887" y="407"/>
      <point x="890" y="289" type="curve"/>
      <point x="921" y="309" type="line"/>
      <point x="513" y="309" type="line"/>
      <point x="513" y="266" type="line"/>
      <point x="994" y="266" type="line"/>
      <point x="993" y="436"/>
      <point x="893" y="528"/>
      <point x="720" y="528" type="curve" smooth="yes"/>
      <point x="579" y="528"/>
      <point x="488" y="434"/>
      <point x="470" y="405" type="curve"/>
      <point x="448" y="382"/>
      <point x="432" y="327"/>
      <point x="432" y="258" type="curve" smooth="yes"/>
      <point x="432" y="101"/>
      <point x="545" y="-10"/>
      <point x="735" y="-10" type="curve" smooth="yes"/>
      <point x="858" y="-10"/>
      <point x="939" y="34"/>
      <point x="986" y="106" type="curve"/>
      <point x="951" y="135" type="line"/>
      <point x="912" y="72"/>
      <point x="850" y="42"/>
    </contour>
  </outline>
</glyph>
<glyph name="idieresis" format="2">
  <advance width="349"/>
  <unicode hex="00EF"/>
  <outline>
    <contour>
      <point x="51" y="612" type="curve" smooth="yes"/>
      <point x="94" y="612"/>
      <point x="121" y="639"/>
      <point x="121" y="678" type="curve" smooth="yes"/>
      <point x="121" y="716"/>
      <point x="94" y="743"/>
      <point x="51" y="743" type="curve" smooth="yes"/>
      <point x="9" y="743"/>
      <point x="-19" y="716"/>
      <point x="-19" y="678" type="curve" smooth="yes"/>
      <point x="-19" y="639"/>
      <point x="9" y="612"/>
    </contour>
    <contour>
      <point x="273" y="612" type="curve" smooth="yes"/>
      <point x="315" y="612"/>
      <point x="344" y="639"/>
      <point x="344" y="678" type="curve" smooth="yes"/>
      <point x="344" y="716"/>
      <point x="315" y="743"/>
      <point x="273" y="743" type="curve" smooth="yes"/>
      <point x="231" y="743"/>
      <point x="203" y="716"/>
      <point x="203" y="678" type="curve" smooth="yes"/>
      <point x="203" y="639"/>
      <point x="231" y="612"/>
    </contour>
    <component base="dotlessi"/>
  </outline>
</glyph>
<glyph name="eth" format="2">
  <advance width="696"/>
  <unicode hex="00F0"/>
  <outline>
    <contour>
      <point x="574" y="417" type="line"/>
      <point x="540" y="485"/>
      <point x="451" y="528"/>
      <point x="349" y="528" type="curve" smooth="yes"/>
      <point x="173" y="528"/>
      <point x="38" y="413"/>
      <point x="38" y="255" type="curve" smooth="yes"/>
      <point x="38" y="97"/>
      <point x="167" y="-10"/>
      <point x="349" y="-10" type="curve" smooth="yes"/>
      <point x="529" y="-10"/>
      <point x="658" y="110"/>
      <point x="658" y="302" type="curve" smooth="yes"/>
      <point x="658" y="494"/>
      <point x="530" y="673"/>
      <point x="206" y="760" type="curve"/>
      <point x="178" y="721" type="line"/>
      <point x="469" y="630"/>
      <point x="551" y="510"/>
      <point x="551" y="300" type="curve" smooth="yes"/>
      <point x="551" y="134"/>
      <point x="474" y="42"/>
      <point x="349" y="42" type="curve" smooth="yes"/>
      <point x="218" y="42"/>
      <point x="148" y="122"/>
      <point x="148" y="255" type="curve" smooth="yes"/>
      <point x="148" y="386"/>
      <point x="226" y="476"/>
      <point x="360" y="476" type="curve" smooth="yes"/>
      <point x="451" y="476"/>
      <point x="526" y="442"/>
      <point x="561" y="357" type="curve"/>
    </contour>
    <contour>
      <point x="128" y="589" type="line"/>
      <point x="146" y="548" type="line"/>
      <point x="586" y="697" type="line"/>
      <point x="569" y="738" type="line"/>
    </contour>
  </outline>
</glyph>
<glyph name="divide" format="2">
  <advance width="680"/>
  <unicode hex="00F7"/>
  <outline>
    <contour>
      <point x="397" y="515" type="curve" smooth="yes"/>
      <point x="397" y="547"/>
      <point x="374" y="569"/>
      <point x="340" y="569" type="curve" smooth="yes"/>
      <point x="306" y="569"/>
      <point x="283" y="547"/>
      <point x="283" y="515" type="curve" smooth="yes"/>
      <point x="283" y="484"/>
      <point x="306" y="461"/>
      <point x="340" y="461" type="curve" smooth="yes"/>
      <point x="374" y="461"/>
      <point x="397" y="484"/>
    </contour>
    <contour>
      <point x="397" y="165" type="curve" smooth="yes"/>
      <point x="397" y="197"/>
      <point x="374" y="219"/>
      <point x="340" y="219" type="curve" smooth="yes"/>
      <point x="306" y="219"/>
      <point x="283" y="197"/>
      <point x="283" y="165" type="curve" smooth="yes"/>
      <point x="283" y="133"/>
      <point x="306" y="111"/>
      <point x="340" y="111" type="curve" smooth="yes"/>
      <point x="374" y="111"/>
      <point x="397" y="133"/>
    </contour>
    <component base="minus"/>
  </outline>
</glyph>
<glyph name="oslash" format="2">
  <advance width="732"/>
  <unicode hex="00F8"/>
  <outline>
    <contour>
      <point x="45" y="-10" type="line"/>
      <point x="113" y="-10" type="line"/>
      <point x="687" y="528" type="line"/>
      <point x="619" y="528" type="line"/>
    </contour>
    <contour>
      <point x="159" y="258" type="curve" smooth="yes"/>
      <point x="159" y="387"/>
      <point x="221" y="476"/>
      <point x="366" y="476" type="curve" smooth="yes"/>
      <point x="514" y="476"/>
      <point x="573" y="417"/>
      <point x="573" y="258" type="curve" smooth="yes"/>
      <point x="573" y="126"/>
      <point x="511" y="42"/>
      <point x="366" y="42" type="curve" smooth="yes"/>
      <point x="218" y="42"/>
      <point x="159" y="97"/>
    </contour>
    <contour>
      <point x="45" y="258" type="curve" smooth="yes"/>
      <point x="45" y="114"/>
      <point x="175" y="-10"/>
      <point x="366" y="-10" type="curve" smooth="yes"/>
      <point x="557" y="-10"/>
      <point x="687" y="114"/>
      <point x="687" y="258" type="curve" smooth="yes"/>
      <point x="687" y="401"/>
      <point x="557" y="528"/>
      <point x="366" y="528" type="curve" smooth="yes"/>
      <point x="175" y="528"/>
      <point x="45" y="401"/>
    </contour>
  </outline>
</glyph>
<glyph name="Aogonek" format="2">
  <advance width="793"/>
  <unicode hex="0104"/>
  <outline>
    <contour>
      <point x="196" y="297" type="line"/>
      <point x="182" y="240" type="line"/>
      <point x="565" y="240" type="line"/>
      <point x="565" y="297" type="line"/>
    </contour>
    <contour>
      <point x="689" y="28" type="line"/>
      <point x="562" y="-25"/>
      <point x="488" y="-78"/>
      <point x="488" y="-147" type="curve" smooth="yes"/>
      <point x="488" y="-197"/>
      <point x="533" y="-235"/>
      <point x="606" y="-235" type="curve" smooth="yes"/>
      <point x="668" y="-235"/>
      <point x="699" y="-216"/>
      <point x="728" y="-187" type="curve"/>
      <point x="707" y="-162" type="line"/>
      <point x="686" y="-183"/>
      <point x="667" y="-190"/>
      <point x="639" y="-190" type="curve" smooth="yes"/>
      <point x="607" y="-190"/>
      <point x="583" y="-167"/>
      <point x="583" y="-135" type="curve" smooth="yes"/>
      <point x="583" y="-87"/>
      <point x="616" y="-43"/>
      <point x="711" y="16" type="curve"/>
    </contour>
    <contour>
      <point x="788" y="0" type="line"/>
      <point x="788" y="50" type="line"/>
      <point x="782" y="50" type="line" smooth="yes"/>
      <point x="759" y="50"/>
      <point x="737" y="53"/>
      <point x="724" y="82" type="curve" smooth="yes"/>
      <point x="439" y="710" type="line"/>
      <point x="350" y="710" type="line"/>
      <point x="77" y="104" type="line" smooth="yes"/>
      <point x="60" y="65"/>
      <point x="42" y="50"/>
      <point x="13" y="50" type="curve" smooth="yes"/>
      <point x="5" y="50" type="line"/>
      <point x="5" y="0" type="line"/>
      <point x="232" y="0" type="line"/>
      <point x="232" y="50" type="line"/>
      <point x="202" y="50" type="line" smooth="yes"/>
      <point x="150" y="50"/>
      <point x="129" y="60"/>
      <point x="129" y="72" type="curve"/>
      <point x="386" y="639" type="line"/>
      <point x="350" y="665" type="line"/>
      <point x="649" y="0" type="line"/>
    </contour>
  </outline>
</glyph>
<glyph name="aogonek" format="2">
  <advance width="655"/>
  <unicode hex="0105"/>
  <outline>
    <contour>
      <point x="306" y="-147" type="curve" smooth="yes"/>
      <point x="306" y="-197"/>
      <point x="351" y="-235"/>
      <point x="424" y="-235" type="curve" smooth="yes"/>
      <point x="486" y="-235"/>
      <point x="517" y="-216"/>
      <point x="546" y="-187" type="curve"/>
      <point x="525" y="-162" type="line"/>
      <point x="504" y="-183"/>
      <point x="485" y="-190"/>
      <point x="457" y="-190" type="curve" smooth="yes"/>
      <point x="425" y="-190"/>
      <point x="401" y="-167"/>
      <point x="401" y="-135" type="curve" smooth="yes"/>
      <point x="401" y="-88"/>
      <point x="429" y="-47"/>
      <point x="527" y="17" type="curve"/>
      <point x="513" y="38" type="line"/>
      <point x="376" y="-27"/>
      <point x="306" y="-76"/>
    </contour>
    <contour>
      <point x="629" y="0" type="line"/>
      <point x="629" y="50" type="line"/>
      <point x="613" y="50" type="line" smooth="yes"/>
      <point x="563" y="50"/>
      <point x="538" y="62"/>
      <point x="538" y="100" type="curve" smooth="yes"/>
      <point x="538" y="371" type="line" smooth="yes"/>
      <point x="538" y="483"/>
      <point x="431" y="528"/>
      <point x="306" y="528" type="curve" smooth="yes"/>
      <point x="192" y="528"/>
      <point x="119" y="497"/>
      <point x="80" y="471" type="curve"/>
      <point x="80" y="370" type="line"/>
      <point x="176" y="370" type="line"/>
      <point x="176" y="488" type="line"/>
      <point x="151" y="490"/>
      <point x="114" y="462"/>
      <point x="111" y="422" type="curve"/>
      <point x="146" y="464"/>
      <point x="204" y="483"/>
      <point x="290" y="483" type="curve" smooth="yes"/>
      <point x="391" y="483"/>
      <point x="436" y="449"/>
      <point x="436" y="368" type="curve" smooth="yes"/>
      <point x="436" y="102" type="line"/>
      <point x="444" y="102" type="line"/>
      <point x="444" y="0" type="line"/>
    </contour>
    <contour>
      <point x="39" y="124" type="curve" smooth="yes"/>
      <point x="39" y="26"/>
      <point x="127" y="-10"/>
      <point x="222" y="-10" type="curve" smooth="yes"/>
      <point x="335" y="-10"/>
      <point x="418" y="36"/>
      <point x="451" y="96" type="curve"/>
      <point x="451" y="159" type="line"/>
      <point x="413" y="93"/>
      <point x="347" y="43"/>
      <point x="255" y="43" type="curve" smooth="yes"/>
      <point x="192" y="43"/>
      <point x="142" y="66"/>
      <point x="142" y="132" type="curve" smooth="yes"/>
      <point x="142" y="231"/>
      <point x="239" y="257"/>
      <point x="451" y="268" type="curve"/>
      <point x="451" y="306" type="line"/>
      <point x="177" y="291"/>
      <point x="39" y="259"/>
    </contour>
  </outline>
</glyph>
<glyph name="eogonek" format="2">
  <advance width="658"/>
  <unicode hex="0119"/>
  <outline>
    <contour>
      <point x="495" y="34" type="line"/>
      <point x="377" y="-21"/>
      <point x="304" y="-76"/>
      <point x="304" y="-147" type="curve" smooth="yes"/>
      <point x="304" y="-197"/>
      <point x="349" y="-235"/>
      <point x="422" y="-235" type="curve" smooth="yes"/>
      <point x="484" y="-235"/>
      <point x="515" y="-216"/>
      <point x="544" y="-187" type="curve"/>
      <point x="523" y="-162" type="line"/>
      <point x="502" y="-183"/>
      <point x="483" y="-190"/>
      <point x="455" y="-190" type="curve" smooth="yes"/>
      <point x="423" y="-190"/>
      <point x="399" y="-167"/>
      <point x="399" y="-135" type="curve" smooth="yes"/>
      <point x="399" y="-97"/>
      <point x="424" y="-35"/>
      <point x="521" y="28" type="curve" smooth="yes"/>
      <point x="554" y="49"/>
      <point x="584" y="74"/>
      <point x="605" y="106" type="curve"/>
      <point x="570" y="135" type="line"/>
      <point x="530" y="74"/>
      <point x="470" y="42"/>
      <point x="368" y="42" type="curve" smooth="yes"/>
      <point x="242" y="42"/>
      <point x="151" y="121"/>
      <point x="151" y="256" type="curve" smooth="yes"/>
      <point x="151" y="392"/>
      <point x="221" y="476"/>
      <point x="343" y="476" type="curve" smooth="yes"/>
      <point x="453" y="476"/>
      <point x="506" y="408"/>
      <point x="509" y="289" type="curve"/>
      <point x="540" y="312" type="line"/>
      <point x="118" y="312" type="line"/>
      <point x="118" y="265" type="line"/>
      <point x="613" y="265" type="line"/>
      <point x="612" y="435"/>
      <point x="501" y="528"/>
      <point x="343" y="528" type="curve" smooth="yes"/>
      <point x="176" y="528"/>
      <point x="45" y="420"/>
      <point x="45" y="258" type="curve" smooth="yes"/>
      <point x="45" y="95"/>
      <point x="183" y="-10"/>
      <point x="360" y="-10" type="curve" smooth="yes"/>
      <point x="402" y="-10"/>
      <point x="439" y="-4"/>
      <point x="472" y="6" type="curve"/>
    </contour>
  </outline>
</glyph>
<glyph name="Hbar" format="2">
  <advance width="969"/>
  <unicode hex="0126"/>
  <outline>
    <contour>
      <point x="214" y="394" type="line"/>
      <point x="214" y="339" type="line"/>
      <point x="762" y="339" type="line"/>
      <point x="762" y="394" type="line"/>
    </contour>
    <contour>
      <point x="40" y="0" type="line"/>
      <point x="354" y="0" type="line"/>
      <point x="354" y="50" type="line"/>
      <point x="328" y="50" type="line" smooth="yes"/>
      <point x="292" y="50"/>
      <point x="246" y="55"/>
      <point x="246" y="66" type="curve" smooth="yes"/>
      <point x="246" y="644" type="line" smooth="yes"/>
      <point x="246" y="655"/>
      <point x="292" y="660"/>
      <point x="328" y="660" type="curve" smooth="yes"/>
      <point x="354" y="660" type="line"/>
      <point x="354" y="710" type="line"/>
      <point x="40" y="710" type="line"/>
      <point x="40" y="660" type="line"/>
      <point x="65" y="660" type="line" smooth="yes"/>
      <point x="100" y="660"/>
      <point x="139" y="650"/>
      <point x="139" y="606" type="curve" smooth="yes"/>
      <point x="139" y="104" type="line" smooth="yes"/>
      <point x="139" y="60"/>
      <point x="100" y="50"/>
      <point x="65" y="50" type="curve" smooth="yes"/>
      <point x="40" y="50" type="line"/>
    </contour>
    <contour>
      <point x="615" y="0" type="line"/>
      <point x="929" y="0" type="line"/>
      <point x="929" y="50" type="line"/>
      <point x="904" y="50" type="line" smooth="yes"/>
      <point x="869" y="50"/>
      <point x="830" y="60"/>
      <point x="830" y="104" type="curve" smooth="yes"/>
      <point x="830" y="606" type="line" smooth="yes"/>
      <point x="830" y="650"/>
      <point x="869" y="660"/>
      <point x="904" y="660" type="curve" smooth="yes"/>
      <point x="929" y="660" type="line"/>
      <point x="929" y="710" type="line"/>
      <point x="615" y="710" type="line"/>
      <point x="615" y="660" type="line"/>
      <point x="641" y="660" type="line" smooth="yes"/>
      <point x="677" y="660"/>
      <point x="723" y="655"/>
      <point x="723" y="644" type="curve" smooth="yes"/>
      <point x="723" y="66" type="line" smooth="yes"/>
      <point x="723" y="55"/>
      <point x="677" y="50"/>
      <point x="641" y="50" type="curve" smooth="yes"/>
      <point x="615" y="50" type="line"/>
    </contour>
    <contour>
      <point x="40" y="499" type="line"/>
      <point x="929" y="499" type="line"/>
      <point x="929" y="551" type="line"/>
      <point x="40" y="551" type="line"/>
    </contour>
  </outline>
</glyph>
<glyph name="hbar" format="2">
  <advance width="766"/>
  <unicode hex="0127"/>
  <outline>
    <contour>
      <point x="740" y="0" type="line"/>
      <point x="740" y="50" type="line"/>
      <point x="723" y="50" type="line" smooth="yes"/>
      <point x="675" y="50"/>
      <point x="651" y="58"/>
      <point x="651" y="96" type="curve" smooth="yes"/>
      <point x="651" y="369" type="line" smooth="yes"/>
      <point x="651" y="475"/>
      <point x="577" y="528"/>
      <point x="461" y="528" type="curve" smooth="yes"/>
      <point x="354" y="528"/>
      <point x="278" y="493"/>
      <point x="208" y="410" type="curve"/>
      <point x="208" y="350" type="line"/>
      <point x="262" y="415"/>
      <point x="326" y="470"/>
      <point x="427" y="470" type="curve" smooth="yes"/>
      <point x="509" y="470"/>
      <point x="547" y="439"/>
      <point x="547" y="367" type="curve" smooth="yes"/>
      <point x="547" y="64" type="line" smooth="yes"/>
      <point x="547" y="54"/>
      <point x="507" y="50"/>
      <point x="471" y="50" type="curve" smooth="yes"/>
      <point x="457" y="50" type="line"/>
      <point x="457" y="0" type="line"/>
    </contour>
    <contour>
      <point x="120" y="750" type="line"/>
      <point x="120" y="96" type="line" smooth="yes"/>
      <point x="120" y="58"/>
      <point x="95" y="50"/>
      <point x="48" y="50" type="curve" smooth="yes"/>
      <point x="31" y="50" type="line"/>
      <point x="31" y="0" type="line"/>
      <point x="314" y="0" type="line"/>
      <point x="314" y="50" type="line"/>
      <point x="300" y="50" type="line" smooth="yes"/>
      <point x="264" y="50"/>
      <point x="224" y="54"/>
      <point x="224" y="64" type="curve"/>
      <point x="224" y="750" type="line"/>
    </contour>
    <contour>
      <point x="465" y="645" type="line"/>
      <point x="9" y="645" type="line"/>
      <point x="9" y="593" type="line"/>
      <point x="465" y="593" type="line"/>
    </contour>
  </outline>
</glyph>
<glyph name="itilde" format="2">
  <advance width="349"/>
  <unicode hex="0129"/>
  <outline>
    <contour>
      <point x="226" y="603" type="curve" smooth="yes"/>
      <point x="285" y="603"/>
      <point x="323" y="650"/>
      <point x="339" y="728" type="curve"/>
      <point x="301" y="740" type="line"/>
      <point x="288" y="692"/>
      <point x="271" y="669"/>
      <point x="249" y="669" type="curve" smooth="yes"/>
      <point x="202" y="669"/>
      <point x="162" y="748"/>
      <point x="94" y="748" type="curve" smooth="yes"/>
      <point x="35" y="748"/>
      <point x="-3" y="701"/>
      <point x="-19" y="623" type="curve"/>
      <point x="19" y="610" type="line"/>
      <point x="32" y="658"/>
      <point x="51" y="683"/>
      <point x="70" y="683" type="curve" smooth="yes"/>
      <point x="117" y="683"/>
      <point x="158" y="603"/>
    </contour>
    <component base="dotlessi"/>
  </outline>
</glyph>
<glyph name="kgreenlandic" format="2">
  <advance width="706"/>
  <unicode hex="0138"/>
  <outline>
    <contour>
      <point x="696" y="0" type="line"/>
      <point x="696" y="50" type="line"/>
      <point x="684" y="50" type="line"/>
      <point x="650" y="50"/>
      <point x="636" y="57"/>
      <point x="608" y="82" type="curve" smooth="yes"/>
      <point x="347" y="321" type="line"/>
      <point x="343" y="289" type="line"/>
      <point x="550" y="425" type="line" smooth="yes"/>
      <point x="592" y="453"/>
      <point x="615" y="468"/>
      <point x="656" y="468" type="curve"/>
      <point x="663" y="468" type="line"/>
      <point x="663" y="518" type="line"/>
      <point x="418" y="518" type="line"/>
      <point x="418" y="468" type="line"/>
      <point x="431" y="468" type="line"/>
      <point x="473" y="468"/>
      <point x="509" y="460"/>
      <point x="510" y="446" type="curve"/>
      <point x="260" y="280" type="line"/>
      <point x="260" y="275" type="line"/>
      <point x="498" y="58" type="line"/>
      <point x="498" y="51"/>
      <point x="469" y="50"/>
      <point x="442" y="50" type="curve"/>
      <point x="417" y="50" type="line"/>
      <point x="417" y="0" type="line"/>
    </contour>
    <contour>
      <point x="224" y="518" type="line"/>
      <point x="31" y="518" type="line"/>
      <point x="31" y="468" type="line"/>
      <point x="59" y="466" type="line" smooth="yes"/>
      <point x="111" y="462"/>
      <point x="120" y="445"/>
      <point x="120" y="407" type="curve" smooth="yes"/>
      <point x="120" y="96" type="line" smooth="yes"/>
      <point x="120" y="58"/>
      <point x="95" y="50"/>
      <point x="48" y="50" type="curve"/>
      <point x="31" y="50" type="line"/>
      <point x="31" y="0" type="line"/>
      <point x="317" y="0" type="line"/>
      <point x="317" y="50" type="line"/>
      <point x="300" y="50" type="line" smooth="yes"/>
      <point x="264" y="50"/>
      <point x="224" y="54"/>
      <point x="224" y="64" type="curve" smooth="yes"/>
    </contour>
  </outline>
</glyph>
<glyph name="Lslash" format="2">
  <advance width="725"/>
  <unicode hex="0141"/>
  <outline>
    <contour>
      <point x="40" y="199" type="line"/>
      <point x="40" y="255" type="line"/>
      <point x="505" y="547" type="line"/>
      <point x="505" y="491" type="line"/>
    </contour>
    <component base="L"/>
  </outline>
</glyph>
<glyph name="Eng" format="2">
  <advance width="916"/>
  <unicode hex="014A"/>
  <outline>
    <contour>
      <point x="777" y="-24" type="curve" smooth="yes"/>
      <point x="777" y="567" type="line" smooth="yes"/>
      <point x="777" y="634"/>
      <point x="805" y="660"/>
      <point x="848" y="660" type="curve" smooth="yes"/>
      <point x="876" y="660" type="line"/>
      <point x="876" y="710" type="line"/>
      <point x="600" y="710" type="line"/>
      <point x="600" y="660" type="line"/>
      <point x="643" y="660" type="line" smooth="yes"/>
      <point x="688" y="660"/>
      <point x="714" y="650"/>
      <point x="714" y="612" type="curve" smooth="yes"/>
      <point x="714" y="80" type="line"/>
      <point x="741" y="82" type="line"/>
      <point x="262" y="710" type="line"/>
      <point x="40" y="710" type="line"/>
      <point x="40" y="660" type="line"/>
      <point x="65" y="660" type="line" smooth="yes"/>
      <point x="110" y="660"/>
      <point x="139" y="650"/>
      <point x="139" y="606" type="curve" smooth="yes"/>
      <point x="139" y="143" type="line" smooth="yes"/>
      <point x="139" y="76"/>
      <point x="111" y="50"/>
      <point x="68" y="50" type="curve" smooth="yes"/>
      <point x="40" y="50" type="line"/>
      <point x="40" y="0" type="line"/>
      <point x="316" y="0" type="line"/>
      <point x="316" y="50" type="line"/>
      <point x="273" y="50" type="line" smooth="yes"/>
      <point x="228" y="50"/>
      <point x="201" y="60"/>
      <point x="201" y="98" type="curve" smooth="yes"/>
      <point x="201" y="690" type="line"/>
      <point x="157" y="683" type="line"/>
      <point x="730" y="-53" type="line"/>
      <point x="715" y="26" type="line"/>
      <point x="715" y="-26" type="line" smooth="yes"/>
      <point x="715" y="-119"/>
      <point x="650" y="-158"/>
      <point x="554" y="-158" type="curve" smooth="yes"/>
      <point x="500" y="-158"/>
      <point x="446" y="-141"/>
      <point x="424" y="-131" type="curve"/>
      <point x="424" y="-190" type="line"/>
      <point x="452" y="-202"/>
      <point x="499" y="-212"/>
      <point x="554" y="-212" type="curve" smooth="yes"/>
      <point x="664" y="-212"/>
      <point x="777" y="-160"/>
    </contour>
  </outline>
</glyph>
<glyph name="oe" format="2">
  <advance width="1190"/>
  <unicode hex="0153"/>
  <outline>
    <contour>
      <point x="689" y="256" type="curve" smooth="yes"/>
      <point x="689" y="378"/>
      <point x="754" y="475"/>
      <point x="878" y="475" type="curve" smooth="yes"/>
      <point x="986" y="475"/>
      <point x="1038" y="404"/>
      <point x="1041" y="289" type="curve"/>
      <point x="1072" y="312" type="line"/>
      <point x="656" y="312" type="line"/>
      <point x="656" y="265" type="line"/>
      <point x="1145" y="265" type="line"/>
      <point x="1144" y="435"/>
      <point x="1034" y="528"/>
      <point x="878" y="528" type="curve" smooth="yes"/>
      <point x="718" y="528"/>
      <point x="596" y="425"/>
      <point x="596" y="258" type="curve" smooth="yes"/>
      <point x="596" y="90"/>
      <point x="720" y="-10"/>
      <point x="895" y="-10" type="curve" smooth="yes"/>
      <point x="1009" y="-10"/>
      <point x="1090" y="34"/>
      <point x="1137" y="106" type="curve"/>
      <point x="1101" y="133" type="line"/>
      <point x="1061" y="72"/>
      <point x="999" y="42"/>
      <point x="903" y="42" type="curve" smooth="yes"/>
      <point x="800" y="42"/>
      <point x="689" y="105"/>
    </contour>
    <contour>
      <point x="673" y="258" type="curve" smooth="yes"/>
      <point x="673" y="407"/>
      <point x="552" y="528"/>
      <point x="363" y="528" type="curve" smooth="yes"/>
      <point x="176" y="528"/>
      <point x="45" y="402"/>
      <point x="45" y="258" type="curve" smooth="yes"/>
      <point x="45" y="114"/>
      <point x="174" y="-10"/>
      <point x="363" y="-10" type="curve" smooth="yes"/>
      <point x="552" y="-10"/>
      <point x="673" y="104"/>
    </contour>
    <contour>
      <point x="155" y="258" type="curve" smooth="yes"/>
      <point x="155" y="397"/>
      <point x="228" y="476"/>
      <point x="363" y="476" type="curve" smooth="yes"/>
      <point x="510" y="476"/>
      <point x="579" y="397"/>
      <point x="579" y="258" type="curve" smooth="yes"/>
      <point x="579" y="119"/>
      <point x="510" y="42"/>
      <point x="365" y="42" type="curve" smooth="yes"/>
      <point x="227" y="42"/>
      <point x="155" y="119"/>
    </contour>
  </outline>
</glyph>
<glyph name="Tbar" format="2">
  <advance width="765"/>
  <unicode hex="0166"/>
  <outline>
    <contour>
      <point x="149" y="380" type="line"/>
      <point x="149" y="328" type="line"/>
      <point x="616" y="328" type="line"/>
      <point x="616" y="380" type="line"/>
    </contour>
    <component base="T"/>
  </outline>
</glyph>
<glyph name="tbar" format="2">
  <advance width="423"/>
  <unicode hex="0167"/>
  <outline>
    <contour>
      <point x="15" y="286" type="line"/>
      <point x="372" y="286" type="line"/>
      <point x="372" y="338" type="line"/>
      <point x="15" y="338" type="line"/>
    </contour>
    <component base="t"/>
  </outline>
</glyph>
<glyph name="Uogonek" format="2">
  <advance width="925"/>
  <unicode hex="0172"/>
  <outline>
    <contour>
      <point x="597" y="31" type="line"/>
      <point x="471" y="-31"/>
      <point x="433" y="-87"/>
      <point x="433" y="-147" type="curve" smooth="yes"/>
      <point x="433" y="-197"/>
      <point x="478" y="-235"/>
      <point x="551" y="-235" type="curve" smooth="yes"/>
      <point x="613" y="-235"/>
      <point x="644" y="-216"/>
      <point x="673" y="-187" type="curve"/>
      <point x="651" y="-159" type="line"/>
      <point x="630" y="-179"/>
      <point x="615" y="-185"/>
      <point x="585" y="-185" type="curve" smooth="yes"/>
      <point x="550" y="-185"/>
      <point x="531" y="-161"/>
      <point x="531" y="-135" type="curve" smooth="yes"/>
      <point x="531" y="-82"/>
      <point x="558" y="-32"/>
      <point x="658" y="29" type="curve" smooth="yes"/>
      <point x="741" y="80"/>
      <point x="792" y="164"/>
      <point x="792" y="282" type="curve" smooth="yes"/>
      <point x="792" y="567" type="line" smooth="yes"/>
      <point x="792" y="634"/>
      <point x="820" y="660"/>
      <point x="863" y="660" type="curve" smooth="yes"/>
      <point x="891" y="660" type="line"/>
      <point x="891" y="710" type="line"/>
      <point x="615" y="710" type="line"/>
      <point x="615" y="660" type="line"/>
      <point x="658" y="660" type="line" smooth="yes"/>
      <point x="703" y="660"/>
      <point x="730" y="650"/>
      <point x="730" y="612" type="curve" smooth="yes"/>
      <point x="730" y="282" type="line" smooth="yes"/>
      <point x="730" y="131"/>
      <point x="640" y="59"/>
      <point x="488" y="59" type="curve" smooth="yes"/>
      <point x="339" y="59"/>
      <point x="240" y="125"/>
      <point x="240" y="278" type="curve" smooth="yes"/>
      <point x="240" y="644" type="line" smooth="yes"/>
      <point x="240" y="655"/>
      <point x="287" y="660"/>
      <point x="323" y="660" type="curve" smooth="yes"/>
      <point x="349" y="660" type="line"/>
      <point x="349" y="710" type="line"/>
      <point x="34" y="710" type="line"/>
      <point x="34" y="660" type="line"/>
      <point x="59" y="660" type="line" smooth="yes"/>
      <point x="104" y="660"/>
      <point x="133" y="650"/>
      <point x="133" y="606" type="curve" smooth="yes"/>
      <point x="133" y="267" type="line" smooth="yes"/>
      <point x="133" y="78"/>
      <point x="273" y="-10"/>
      <point x="467" y="-10" type="curve" smooth="yes"/>
      <point x="529" y="-10"/>
      <point x="570" y="0"/>
      <point x="612" y="18" type="curve"/>
    </contour>
  </outline>
</glyph>
<glyph name="uogonek" format="2">
  <advance width="751"/>
  <unicode hex="0173"/>
  <outline>
    <contour>
      <point x="219" y="518" type="line"/>
      <point x="26" y="518" type="line"/>
      <point x="26" y="468" type="line"/>
      <point x="54" y="466" type="line" smooth="yes"/>
      <point x="96" y="463"/>
      <point x="115" y="445"/>
      <point x="115" y="407" type="curve" smooth="yes"/>
      <point x="115" y="149" type="line" smooth="yes"/>
      <point x="115" y="43"/>
      <point x="193" y="-10"/>
      <point x="306" y="-10" type="curve" smooth="yes"/>
      <point x="412" y="-10"/>
      <point x="485" y="34"/>
      <point x="548" y="108" type="curve"/>
      <point x="548" y="168" type="line"/>
      <point x="482" y="90"/>
      <point x="416" y="48"/>
      <point x="330" y="48" type="curve" smooth="yes"/>
      <point x="257" y="48"/>
      <point x="219" y="72"/>
      <point x="219" y="151" type="curve" smooth="yes"/>
    </contour>
    <contour>
      <point x="636" y="518" type="line"/>
      <point x="421" y="518" type="line"/>
      <point x="421" y="468" type="line"/>
      <point x="459" y="466" type="line" smooth="yes"/>
      <point x="511" y="463"/>
      <point x="532" y="445"/>
      <point x="532" y="407" type="curve" smooth="yes"/>
      <point x="532" y="112" type="line"/>
      <point x="541" y="132" type="line"/>
      <point x="541" y="0" type="line"/>
      <point x="725" y="0" type="line"/>
      <point x="725" y="50" type="line"/>
      <point x="707" y="50" type="line" smooth="yes"/>
      <point x="667" y="50"/>
      <point x="636" y="62"/>
      <point x="636" y="100" type="curve" smooth="yes"/>
    </contour>
    <contour>
      <point x="616" y="38" type="line"/>
      <point x="479" y="-27"/>
      <point x="409" y="-76"/>
      <point x="409" y="-147" type="curve" smooth="yes"/>
      <point x="409" y="-197"/>
      <point x="454" y="-235"/>
      <point x="527" y="-235" type="curve" smooth="yes"/>
      <point x="589" y="-235"/>
      <point x="620" y="-216"/>
      <point x="649" y="-187" type="curve"/>
      <point x="628" y="-162" type="line"/>
      <point x="607" y="-183"/>
      <point x="588" y="-190"/>
      <point x="560" y="-190" type="curve" smooth="yes"/>
      <point x="528" y="-190"/>
      <point x="504" y="-167"/>
      <point x="504" y="-135" type="curve" smooth="yes"/>
      <point x="504" y="-89"/>
      <point x="532" y="-47"/>
      <point x="630" y="17" type="curve"/>
    </contour>
  </outline>
</glyph>
<glyph name="florin" format="2">
  <advance width="680"/>
  <unicode hex="0192"/>
  <outline>
    <contour>
      <point x="173" y="508" type="line"/>
      <point x="166" y="455" type="line"/>
      <point x="593" y="455" type="line"/>
      <point x="600" y="508" type="line"/>
    </contour>
    <contour>
      <point x="327" y="70" type="curve" smooth="yes"/>
      <point x="414" y="573" type="line" smooth="yes"/>
      <point x="432" y="671"/>
      <point x="479" y="706"/>
      <point x="551" y="706" type="curve" smooth="yes"/>
      <point x="594" y="706"/>
      <point x="632" y="698"/>
      <point x="665" y="685" type="curve"/>
      <point x="672" y="739" type="line"/>
      <point x="645" y="749"/>
      <point x="593" y="758"/>
      <point x="552" y="758" type="curve" smooth="yes"/>
      <point x="429" y="758"/>
      <point x="338" y="701"/>
      <point x="317" y="579" type="curve" smooth="yes"/>
      <point x="228" y="56" type="line" smooth="yes"/>
      <point x="196" y="-132"/>
      <point x="155" y="-184"/>
      <point x="70" y="-184" type="curve" smooth="yes"/>
      <point x="42" y="-184"/>
      <point x="9" y="-179"/>
      <point x="-23" y="-166" type="curve"/>
      <point x="-28" y="-221" type="line"/>
      <point x="2" y="-231"/>
      <point x="32" y="-236"/>
      <point x="65" y="-236" type="curve" smooth="yes"/>
      <point x="215" y="-236"/>
      <point x="289" y="-151"/>
    </contour>
  </outline>
</glyph>
<glyph name="khook" format="2">
  <advance width="706"/>
  <unicode hex="0199"/>
  <outline>
    <contour>
      <point x="696" y="0" type="line"/>
      <point x="696" y="50" type="line"/>
      <point x="684" y="50" type="line" smooth="yes"/>
      <point x="651" y="50"/>
      <point x="637" y="56"/>
      <point x="609" y="82" type="curve" smooth="yes"/>
      <point x="352" y="320" type="line"/>
      <point x="361" y="289" type="line"/>
      <point x="566" y="437" type="line" smooth="yes"/>
      <point x="604" y="464"/>
      <point x="626" y="468"/>
      <point x="656" y="468" type="curve" smooth="yes"/>
      <point x="663" y="468" type="line"/>
      <point x="663" y="518" type="line"/>
      <point x="418" y="518" type="line"/>
      <point x="418" y="468" type="line"/>
      <point x="426" y="468" type="line" smooth="yes"/>
      <point x="459" y="468"/>
      <point x="489" y="458"/>
      <point x="489" y="446" type="curve"/>
      <point x="260" y="280" type="line"/>
      <point x="260" y="275" type="line"/>
      <point x="494" y="58" type="line"/>
      <point x="494" y="51"/>
      <point x="451" y="50"/>
      <point x="424" y="50" type="curve" smooth="yes"/>
      <point x="417" y="50" type="line"/>
      <point x="417" y="0" type="line"/>
    </contour>
    <contour>
      <point x="120" y="557" type="curve" smooth="yes"/>
      <point x="120" y="96" type="line" smooth="yes"/>
      <point x="120" y="58"/>
      <point x="85" y="50"/>
      <point x="48" y="50" type="curve" smooth="yes"/>
      <point x="31" y="50" type="line"/>
      <point x="31" y="0" type="line"/>
      <point x="317" y="0" type="line"/>
      <point x="317" y="50" type="line"/>
      <point x="300" y="50" type="line" smooth="yes"/>
      <point x="264" y="50"/>
      <point x="224" y="54"/>
      <point x="224" y="64" type="curve" smooth="yes"/>
      <point x="224" y="557" type="line" smooth="yes"/>
      <point x="224.0" y="676.2098765432099"/>
      <point x="307.0" y="699.0"/>
      <point x="365" y="699" type="curve" smooth="yes"/>
      <point x="418" y="699.0"/>
      <point x="467" y="687.0"/>
      <point x="495" y="676" type="curve"/>
      <point x="495" y="744" type="line"/>
      <point x="473" y="749.0"/>
      <point x="422" y="758.0"/>
      <point x="368" y="758" type="curve" smooth="yes"/>
      <point x="256.5042016806723" y="758.0"/>
      <point x="120.0" y="716.0"/>
    </contour>
  </outline>
</glyph>
<glyph name="Ohorn" format="2">
  <advance width="961"/>
  <unicode hex="01A0"/>
  <outline>
    <contour>
      <point x="478" y="46" type="curve" smooth="yes"/>
      <point x="279" y="46"/>
      <point x="160" y="161"/>
      <point x="160" y="355" type="curve" smooth="yes"/>
      <point x="160" y="549"/>
      <point x="279" y="664"/>
      <point x="478" y="664" type="curve" smooth="yes"/>
      <point x="677" y="664"/>
      <point x="796" y="549"/>
      <point x="796" y="355" type="curve" smooth="yes"/>
      <point x="796" y="161"/>
      <point x="677" y="46"/>
    </contour>
    <contour>
      <point x="686" y="659" type="line"/>
      <point x="686" y="687" type="line"/>
      <point x="626" y="677" type="line"/>
      <point x="654" y="668"/>
      <point x="705" y="660"/>
      <point x="731" y="660" type="curve" smooth="yes"/>
      <point x="876" y="660"/>
      <point x="937" y="718"/>
      <point x="945" y="852" type="curve"/>
      <point x="856" y="852" type="line"/>
      <point x="848" y="746"/>
      <point x="821" y="707"/>
      <point x="722" y="707" type="curve" smooth="yes"/>
      <point x="649" y="707"/>
      <point x="575" y="720"/>
      <point x="478" y="720" type="curve" smooth="yes"/>
      <point x="236" y="720"/>
      <point x="45" y="571"/>
      <point x="45" y="355" type="curve" smooth="yes"/>
      <point x="45" y="139"/>
      <point x="236" y="-10"/>
      <point x="478" y="-10" type="curve" smooth="yes"/>
      <point x="720" y="-10"/>
      <point x="911" y="139"/>
      <point x="911" y="355" type="curve" smooth="yes"/>
      <point x="911" y="508"/>
      <point x="818" y="633"/>
      <point x="652" y="687" type="curve"/>
    </contour>
  </outline>
</glyph>
<glyph name="Uhorn" format="2">
  <advance width="942"/>
  <unicode hex="01AF"/>
  <outline>
    <contour>
      <point x="133" y="267" type="line" smooth="yes"/>
      <point x="133" y="78"/>
      <point x="272" y="-10"/>
      <point x="467" y="-10" type="curve" smooth="yes"/>
      <point x="661" y="-10"/>
      <point x="792" y="86"/>
      <point x="792" y="282" type="curve" smooth="yes"/>
      <point x="792" y="580" type="line" smooth="yes"/>
      <point x="792" y="647"/>
      <point x="811" y="656"/>
      <point x="874" y="671" type="curve" smooth="yes"/>
      <point x="1002" y="702"/>
      <point x="1015" y="761"/>
      <point x="1017" y="852" type="curve"/>
      <point x="928" y="852" type="line"/>
      <point x="925" y="740"/>
      <point x="873" y="710"/>
      <point x="769" y="710" type="curve" smooth="yes"/>
      <point x="615" y="710" type="line"/>
      <point x="615" y="660" type="line"/>
      <point x="658" y="660" type="line" smooth="yes"/>
      <point x="703" y="660"/>
      <point x="730" y="650"/>
      <point x="730" y="612" type="curve" smooth="yes"/>
      <point x="730" y="282" type="line" smooth="yes"/>
      <point x="730" y="131"/>
      <point x="634" y="58"/>
      <point x="488" y="58" type="curve" smooth="yes"/>
      <point x="339" y="58"/>
      <point x="240" y="125"/>
      <point x="240" y="278" type="curve" smooth="yes"/>
      <point x="240" y="644" type="line" smooth="yes"/>
      <point x="240" y="655"/>
      <point x="287" y="660"/>
      <point x="323" y="660" type="curve" smooth="yes"/>
      <point x="349" y="660" type="line"/>
      <point x="349" y="710" type="line"/>
      <point x="34" y="710" type="line"/>
      <point x="34" y="660" type="line"/>
      <point x="59" y="660" type="line" smooth="yes"/>
      <point x="104" y="660"/>
      <point x="133" y="650"/>
      <point x="133" y="606" type="curve" smooth="yes"/>
    </contour>
  </outline>
</glyph>
<glyph name="Yhook" format="2">
  <advance width="818"/>
  <unicode hex="01B3"/>
  <outline>
    <contour>
      <point x="557" y="570" type="curve" smooth="yes"/>
      <point x="376" y="309" type="line"/>
      <point x="425" y="312" type="line"/>
      <point x="191" y="647" type="line"/>
      <point x="191" y="657"/>
      <point x="225" y="660"/>
      <point x="262" y="660" type="curve" smooth="yes"/>
      <point x="283" y="660" type="line"/>
      <point x="283" y="710" type="line"/>
      <point x="10" y="710" type="line"/>
      <point x="10" y="660" type="line"/>
      <point x="16" y="660" type="line" smooth="yes"/>
      <point x="38" y="660"/>
      <point x="65" y="654"/>
      <point x="85" y="626" type="curve" smooth="yes"/>
      <point x="330" y="278" type="line"/>
      <point x="322" y="311" type="line"/>
      <point x="322" y="104" type="line" smooth="yes"/>
      <point x="322" y="60"/>
      <point x="283" y="50"/>
      <point x="241" y="50" type="curve" smooth="yes"/>
      <point x="206" y="50" type="line"/>
      <point x="206" y="0" type="line"/>
      <point x="545" y="0" type="line"/>
      <point x="545" y="50" type="line"/>
      <point x="510" y="50" type="line" smooth="yes"/>
      <point x="468.0" y="50.0"/>
      <point x="429.0" y="60.0"/>
      <point x="429" y="104" type="curve" smooth="yes"/>
      <point x="429" y="311" type="line"/>
      <point x="417" y="279" type="line"/>
      <point x="602" y="545" type="line" smooth="yes"/>
      <point x="658" y="625"/>
      <point x="680.2037037037037" y="652.0"/>
      <point x="705" y="652" type="curve"/>
      <point x="732.75" y="652.0"/>
      <point x="742.0" y="628.0"/>
      <point x="742" y="579" type="curve"/>
      <point x="742.0" y="537"/>
      <point x="729.0" y="492"/>
      <point x="716" y="468" type="curve"/>
      <point x="819" y="468" type="line"/>
      <point x="830.0" y="492"/>
      <point x="838.0" y="539"/>
      <point x="838" y="590" type="curve"/>
      <point x="838.0" y="665.0"/>
      <point x="806" y="719.0"/>
      <point x="736" y="719" type="curve"/>
      <point x="677.3446327683616" y="719.0"/>
      <point x="644" y="696"/>
    </contour>
  </outline>
</glyph>
<glyph name="dhook" format="2">
  <advance width="782"/>
  <unicode hex="0257"/>
  <outline>
    <contour>
      <point x="669" y="573" type="line"/>
      <point x="669.0" y="675.8095238095239"/>
      <point x="709.0" y="700.0"/>
      <point x="755" y="700" type="curve"/>
      <point x="783" y="700.0"/>
      <point x="819" y="691.0"/>
      <point x="839" y="682" type="curve"/>
      <point x="839" y="751" type="line"/>
      <point x="822" y="755.0"/>
      <point x="791" y="758.0"/>
      <point x="756" y="758" type="curve"/>
      <point x="667" y="758.0"/>
      <point x="565.0" y="714.0"/>
      <point x="565" y="573" type="curve"/>
      <point x="565" y="115" type="line"/>
      <point x="574" y="125" type="line"/>
      <point x="574" y="0" type="line"/>
      <point x="756" y="0" type="line"/>
      <point x="756" y="50" type="line"/>
      <point x="740" y="50" type="line"/>
      <point x="700" y="50"/>
      <point x="669" y="62"/>
      <point x="669" y="100" type="curve" smooth="yes"/>
    </contour>
    <contour>
      <point x="331" y="528" type="curve" smooth="yes"/>
      <point x="172" y="528"/>
      <point x="45" y="418"/>
      <point x="45" y="259" type="curve" smooth="yes"/>
      <point x="45" y="97"/>
      <point x="172" y="-10"/>
      <point x="331" y="-10" type="curve" smooth="yes"/>
      <point x="441" y="-10"/>
      <point x="518" y="35"/>
      <point x="581" y="108" type="curve"/>
      <point x="581" y="168" type="line"/>
      <point x="516" y="91"/>
      <point x="443" y="46"/>
      <point x="353" y="46" type="curve" smooth="yes"/>
      <point x="229" y="46"/>
      <point x="155" y="133"/>
      <point x="155" y="259" type="curve" smooth="yes"/>
      <point x="155" y="386"/>
      <point x="230" y="472"/>
      <point x="351" y="472" type="curve" smooth="yes"/>
      <point x="443" y="472"/>
      <point x="516" y="429"/>
      <point x="581" y="350" type="curve"/>
      <point x="581" y="410" type="line"/>
      <point x="518" y="484"/>
      <point x="441" y="528"/>
    </contour>
  </outline>
</glyph>
<glyph name="ringhalfright" format="2">
  <advance width="630"/>
  <unicode hex="02BE"/>
  <outline>
    <contour>
      <point x="317" y="784" type="line"/>
      <point x="393" y="784"/>
      <point x="446" y="747"/>
      <point x="446" y="680" type="curve" smooth="yes"/>
      <point x="446" y="612"/>
      <point x="393" y="576"/>
      <point x="317" y="576" type="curve"/>
      <point x="317" y="613" type="line"/>
      <point x="351" y="613"/>
      <point x="376" y="635"/>
      <point x="376" y="680" type="curve" smooth="yes"/>
      <point x="376" y="724"/>
      <point x="351" y="748"/>
      <point x="317" y="748" type="curve"/>
    </contour>
  </outline>
</glyph>
<glyph name="dotaccent" format="2">
  <advance width="630"/>
  <unicode hex="02D9"/>
  <outline>
    <contour>
      <point x="315" y="633" type="curve" smooth="yes"/>
      <point x="364" y="633"/>
      <point x="391" y="664"/>
      <point x="391" y="703" type="curve" smooth="yes"/>
      <point x="391" y="742"/>
      <point x="364" y="773"/>
      <point x="315" y="773" type="curve" smooth="yes"/>
      <point x="266" y="773"/>
      <point x="239" y="742"/>
      <point x="239" y="703" type="curve" smooth="yes"/>
      <point x="239" y="664"/>
      <point x="266" y="633"/>
    </contour>
  </outline>
</glyph>
<glyph name="tilde" format="2">
  <advance width="630"/>
  <unicode hex="02DC"/>
  <outline>
    <contour>
      <point x="383" y="599" type="curve" smooth="yes"/>
      <point x="446" y="599"/>
      <point x="480" y="648"/>
      <point x="496" y="726" type="curve"/>
      <point x="458" y="739" type="line"/>
      <point x="445" y="691"/>
      <point x="429" y="668"/>
      <point x="406" y="668" type="curve" smooth="yes"/>
      <point x="361" y="668"/>
      <point x="317" y="748"/>
      <point x="251" y="748" type="curve" smooth="yes"/>
      <point x="190" y="748"/>
      <point x="154" y="699"/>
      <point x="138" y="621" type="curve"/>
      <point x="176" y="608" type="line"/>
      <point x="189" y="656"/>
      <point x="204" y="679"/>
      <point x="228" y="679" type="curve" smooth="yes"/>
      <point x="271" y="679"/>
      <point x="315" y="599"/>
    </contour>
  </outline>
</glyph>
<glyph name="Delta" format="2">
  <advance width="857"/>
  <unicode hex="0394"/>
  <outline>
    <contour>
      <point x="35" y="0" type="line"/>
      <point x="822" y="0" type="line"/>
      <point x="822" y="77" type="line"/>
      <point x="472" y="710" type="line"/>
      <point x="385" y="710" type="line"/>
      <point x="35" y="77" type="line"/>
    </contour>
    <contour>
      <point x="731" y="47" type="line"/>
      <point x="761" y="92" type="line"/>
      <point x="66" y="92" type="line"/>
      <point x="80" y="45" type="line"/>
      <point x="439" y="698" type="line"/>
      <point x="395" y="664" type="line"/>
    </contour>
  </outline>
</glyph>
<glyph name="Omega" format="2">
  <advance width="970"/>
  <unicode hex="03A9"/>
  <outline>
    <contour>
      <point x="485" y="720" type="curve" smooth="yes"/>
      <point x="725" y="720"/>
      <point x="883" y="591"/>
      <point x="883" y="430" type="curve" smooth="yes"/>
      <point x="883" y="269"/>
      <point x="738" y="162"/>
      <point x="602" y="52" type="curve"/>
      <point x="603" y="72" type="line"/>
      <point x="754" y="72" type="line" smooth="yes"/>
      <point x="839" y="72"/>
      <point x="856" y="80"/>
      <point x="863" y="115" type="curve" smooth="yes"/>
      <point x="879" y="192" type="line"/>
      <point x="925" y="192" type="line"/>
      <point x="925" y="0" type="line"/>
      <point x="560" y="0" type="line"/>
      <point x="560" y="92" type="line"/>
      <point x="694" y="203"/>
      <point x="770" y="289"/>
      <point x="770" y="430" type="curve" smooth="yes"/>
      <point x="770" y="568"/>
      <point x="670" y="669"/>
      <point x="485" y="669" type="curve" smooth="yes"/>
      <point x="300" y="669"/>
      <point x="200" y="568"/>
      <point x="200" y="430" type="curve" smooth="yes"/>
      <point x="200" y="289"/>
      <point x="276" y="203"/>
      <point x="410" y="92" type="curve"/>
      <point x="410" y="0" type="line"/>
      <point x="45" y="0" type="line"/>
      <point x="45" y="192" type="line"/>
      <point x="91" y="192" type="line"/>
      <point x="107" y="115" type="line" smooth="yes"/>
      <point x="114" y="80"/>
      <point x="141" y="72"/>
      <point x="216" y="72" type="curve" smooth="yes"/>
      <point x="367" y="72" type="line"/>
      <point x="368" y="52" type="line"/>
      <point x="232" y="162"/>
      <point x="87" y="269"/>
      <point x="87" y="430" type="curve" smooth="yes"/>
      <point x="87" y="591"/>
      <point x="245" y="720"/>
    </contour>
  </outline>
</glyph>
<glyph name="pi" format="2">
  <advance width="868"/>
  <unicode hex="03C0"/>
  <outline>
    <contour>
      <point x="348" y="0" type="line"/>
      <point x="348" y="488" type="line"/>
      <point x="271" y="488" type="line"/>
      <point x="261" y="218"/>
      <point x="240" y="184"/>
      <point x="240" y="0" type="curve"/>
    </contour>
    <contour>
      <point x="812" y="428" type="line"/>
      <point x="812" y="518" type="line"/>
      <point x="251" y="518" type="line" smooth="yes"/>
      <point x="137" y="518"/>
      <point x="69" y="462"/>
      <point x="40" y="353" type="curve"/>
      <point x="76" y="340" type="line"/>
      <point x="96" y="420"/>
      <point x="152" y="428"/>
      <point x="216" y="428" type="curve" smooth="yes"/>
    </contour>
    <contour>
      <point x="661" y="96" type="curve" smooth="yes"/>
      <point x="661" y="488" type="line"/>
      <point x="580" y="488" type="line"/>
      <point x="570" y="245"/>
      <point x="563" y="169"/>
      <point x="563" y="84" type="curve" smooth="yes"/>
      <point x="563" y="18"/>
      <point x="613" y="-10"/>
      <point x="694" y="-10" type="curve" smooth="yes"/>
      <point x="758" y="-10"/>
      <point x="806" y="32"/>
      <point x="828" y="81" type="curve"/>
      <point x="798" y="97" type="line"/>
      <point x="777" y="56"/>
      <point x="748" y="45"/>
      <point x="715" y="45" type="curve" smooth="yes"/>
      <point x="677" y="45"/>
      <point x="661" y="59"/>
    </contour>
  </outline>
</glyph>
<glyph name="Djecyr" format="2">
  <advance width="961"/>
  <unicode hex="0402"/>
  <guideline x="568" y="625" angle="90" identifier="YDADns81zF"/>
  <outline>
    <contour>
      <point x="926" y="200" type="curve" smooth="yes"/>
      <point x="926" y="330"/>
      <point x="833" y="420"/>
      <point x="634" y="420" type="curve" smooth="yes"/>
      <point x="556" y="420"/>
      <point x="470" y="399"/>
      <point x="398" y="360" type="curve"/>
      <point x="398" y="305" type="line"/>
      <point x="471" y="346"/>
      <point x="556" y="365"/>
      <point x="634" y="365" type="curve" smooth="yes"/>
      <point x="756" y="365"/>
      <point x="817" y="294"/>
      <point x="817" y="200" type="curve" smooth="yes"/>
      <point x="817" y="76"/>
      <point x="757" y="30"/>
      <point x="651" y="30" type="curve"/>
      <point x="651" y="-20" type="line"/>
      <point x="823" y="-20"/>
      <point x="926" y="57"/>
    </contour>
    <contour>
      <point x="193" y="0" type="line"/>
      <point x="522" y="0" type="line"/>
      <point x="522" y="50" type="line"/>
      <point x="498" y="50" type="line" smooth="yes"/>
      <point x="462" y="50"/>
      <point x="416" y="55"/>
      <point x="416" y="66" type="curve" smooth="yes"/>
      <point x="416" y="655" type="line"/>
      <point x="579" y="655" type="line" smooth="yes"/>
      <point x="638" y="655"/>
      <point x="648" y="648"/>
      <point x="673" y="566" type="curve" smooth="yes"/>
      <point x="688" y="518" type="line"/>
      <point x="735" y="518" type="line"/>
      <point x="735" y="710" type="line"/>
      <point x="30" y="710" type="line"/>
      <point x="30" y="518" type="line"/>
      <point x="77" y="518" type="line"/>
      <point x="92" y="566" type="line" smooth="yes"/>
      <point x="117" y="648"/>
      <point x="127" y="655"/>
      <point x="186" y="655" type="curve" smooth="yes"/>
      <point x="309" y="655" type="line"/>
      <point x="309" y="104" type="line" smooth="yes"/>
      <point x="309" y="60"/>
      <point x="272" y="50"/>
      <point x="228" y="50" type="curve" smooth="yes"/>
      <point x="193" y="50" type="line"/>
    </contour>
  </outline>
</glyph>
<glyph name="Yukrcyr" format="2">
  <advance width="395"/>
  <unicode hex="0407"/>
  <outline>
    <contour>
      <point x="168" y="844" type="curve" smooth="yes"/>
      <point x="168" y="882"/>
      <point x="142" y="908"/>
      <point x="99" y="908" type="curve" smooth="yes"/>
      <point x="56" y="908"/>
      <point x="30" y="882"/>
      <point x="30" y="844" type="curve" smooth="yes"/>
      <point x="30" y="805"/>
      <point x="56" y="779"/>
      <point x="99" y="779" type="curve" smooth="yes"/>
      <point x="142" y="779"/>
      <point x="168" y="805"/>
    </contour>
    <contour>
      <point x="365" y="844" type="curve" smooth="yes"/>
      <point x="365" y="882"/>
      <point x="338" y="908"/>
      <point x="295" y="908" type="curve" smooth="yes"/>
      <point x="254" y="908"/>
      <point x="226" y="882"/>
      <point x="226" y="844" type="curve" smooth="yes"/>
      <point x="226" y="805"/>
      <point x="254" y="779"/>
      <point x="295" y="779" type="curve" smooth="yes"/>
      <point x="338" y="779"/>
      <point x="365" y="805"/>
    </contour>
    <component base="I"/>
  </outline>
</glyph>
<glyph name="Ljecyr" format="2">
  <advance width="1195"/>
  <unicode hex="0409"/>
  <outline>
    <contour>
      <point x="241" y="710" type="line"/>
      <point x="241" y="655" type="line"/>
      <point x="648" y="655" type="line"/>
      <point x="648" y="710" type="line"/>
    </contour>
    <contour>
      <point x="199" y="278" type="line" smooth="yes"/>
      <point x="190" y="136"/>
      <point x="148" y="81"/>
      <point x="77" y="81" type="curve" smooth="yes"/>
      <point x="46" y="81"/>
      <point x="23" y="90"/>
      <point x="10" y="96" type="curve"/>
      <point x="10" y="0" type="line"/>
      <point x="23" y="-7"/>
      <point x="45" y="-15"/>
      <point x="79" y="-15" type="curve" smooth="yes"/>
      <point x="191" y="-15"/>
      <point x="244" y="72"/>
      <point x="257" y="275" type="curve" smooth="yes"/>
      <point x="284" y="710" type="line"/>
      <point x="119" y="710" type="line"/>
      <point x="119" y="660" type="line"/>
      <point x="130" y="660" type="line" smooth="yes"/>
      <point x="190" y="660"/>
      <point x="222" y="652"/>
      <point x="219" y="597" type="curve" smooth="yes"/>
    </contour>
    <contour>
      <point x="859" y="0" type="line" smooth="yes"/>
      <point x="1041" y="0"/>
      <point x="1160" y="84"/>
      <point x="1160" y="211" type="curve" smooth="yes"/>
      <point x="1160" y="349"/>
      <point x="1047" y="425"/>
      <point x="864" y="425" type="curve" smooth="yes"/>
      <point x="635" y="425" type="line"/>
      <point x="635" y="370" type="line"/>
      <point x="862" y="370" type="line" smooth="yes"/>
      <point x="993" y="370"/>
      <point x="1053" y="313"/>
      <point x="1053" y="210" type="curve" smooth="yes"/>
      <point x="1053" y="115"/>
      <point x="994" y="55"/>
      <point x="857" y="55" type="curve" smooth="yes"/>
      <point x="705" y="55" type="line"/>
      <point x="705" y="606" type="line" smooth="yes"/>
      <point x="705" y="650"/>
      <point x="744" y="660"/>
      <point x="779" y="660" type="curve" smooth="yes"/>
      <point x="808" y="660" type="line"/>
      <point x="808" y="710" type="line"/>
      <point x="598" y="710" type="line"/>
      <point x="598" y="66" type="line" smooth="yes"/>
      <point x="598" y="55"/>
      <point x="552" y="50"/>
      <point x="516" y="50" type="curve" smooth="yes"/>
      <point x="495" y="50" type="line"/>
      <point x="495" y="0" type="line"/>
    </contour>
  </outline>
</glyph>
<glyph name="Dzhecyr" format="2">
  <advance width="949"/>
  <unicode hex="040F"/>
  <outline>
    <contour>
      <point x="40" y="710" type="line"/>
      <point x="40" y="660" type="line"/>
      <point x="65" y="660" type="line" smooth="yes"/>
      <point x="100" y="660"/>
      <point x="139" y="650"/>
      <point x="139" y="606" type="curve" smooth="yes"/>
      <point x="139" y="104" type="line" smooth="yes"/>
      <point x="139" y="60"/>
      <point x="100" y="50"/>
      <point x="65" y="50" type="curve" smooth="yes"/>
      <point x="40" y="50" type="line"/>
      <point x="40" y="0" type="line"/>
      <point x="246" y="0" type="line"/>
      <point x="246" y="644" type="line" smooth="yes"/>
      <point x="246" y="655"/>
      <point x="292" y="660"/>
      <point x="328" y="660" type="curve" smooth="yes"/>
      <point x="354" y="660" type="line"/>
      <point x="354" y="710" type="line"/>
    </contour>
    <contour>
      <point x="595" y="710" type="line"/>
      <point x="595" y="660" type="line"/>
      <point x="621" y="660" type="line" smooth="yes"/>
      <point x="657" y="660"/>
      <point x="703" y="655"/>
      <point x="703" y="644" type="curve" smooth="yes"/>
      <point x="703" y="0" type="line"/>
      <point x="909" y="0" type="line"/>
      <point x="909" y="50" type="line"/>
      <point x="884" y="50" type="line" smooth="yes"/>
      <point x="849" y="50"/>
      <point x="810" y="60"/>
      <point x="810" y="104" type="curve" smooth="yes"/>
      <point x="810" y="606" type="line" smooth="yes"/>
      <point x="810" y="650"/>
      <point x="849" y="660"/>
      <point x="884" y="660" type="curve" smooth="yes"/>
      <point x="909" y="660" type="line"/>
      <point x="909" y="710" type="line"/>
    </contour>
    <contour>
      <point x="192" y="0" type="line"/>
      <point x="335" y="0" type="line" smooth="yes"/>
      <point x="409" y="0"/>
      <point x="431" y="-6"/>
      <point x="437" y="-48" type="curve" smooth="yes"/>
      <point x="451" y="-150" type="line"/>
      <point x="498" y="-150" type="line"/>
      <point x="512" y="-48" type="line" smooth="yes"/>
      <point x="518" y="-6"/>
      <point x="540" y="0"/>
      <point x="614" y="0" type="curve" smooth="yes"/>
      <point x="757" y="0" type="line"/>
      <point x="757" y="55" type="line"/>
      <point x="192" y="55" type="line"/>
    </contour>
  </outline>
</glyph>
<glyph name="Becyr" format="2">
  <advance width="761"/>
  <unicode hex="0411"/>
  <outline>
    <contour>
      <point x="40" y="710" type="line"/>
      <point x="40" y="660" type="line"/>
      <point x="65" y="660" type="line" smooth="yes"/>
      <point x="100" y="660"/>
      <point x="139" y="650"/>
      <point x="139" y="608" type="curve" smooth="yes"/>
      <point x="139" y="104" type="line" smooth="yes"/>
      <point x="139" y="60"/>
      <point x="100" y="50"/>
      <point x="65" y="50" type="curve" smooth="yes"/>
      <point x="40" y="50" type="line"/>
      <point x="40" y="0" type="line"/>
      <point x="405" y="0" type="line" smooth="yes"/>
      <point x="587" y="0"/>
      <point x="706" y="82"/>
      <point x="706" y="206" type="curve" smooth="yes"/>
      <point x="706" y="340"/>
      <point x="593" y="414"/>
      <point x="410" y="414" type="curve" smooth="yes"/>
      <point x="193" y="414" type="line"/>
      <point x="193" y="359" type="line"/>
      <point x="408" y="359" type="line" smooth="yes"/>
      <point x="539" y="359"/>
      <point x="599" y="301"/>
      <point x="599" y="205" type="curve" smooth="yes"/>
      <point x="599" y="111"/>
      <point x="540" y="55"/>
      <point x="403" y="55" type="curve" smooth="yes"/>
      <point x="246" y="55" type="line"/>
      <point x="246" y="655" type="line"/>
      <point x="480" y="655" type="line" smooth="yes"/>
      <point x="573" y="655"/>
      <point x="588" y="634"/>
      <point x="605" y="571" type="curve" smooth="yes"/>
      <point x="619" y="518" type="line"/>
      <point x="666" y="518" type="line"/>
      <point x="666" y="710" type="line"/>
    </contour>
  </outline>
</glyph>
<glyph name="Gecyr" format="2">
  <advance width="687"/>
  <unicode hex="0413"/>
  <outline>
    <contour>
      <point x="246" y="655" type="line"/>
      <point x="466" y="655" type="line" smooth="yes"/>
      <point x="558" y="655"/>
      <point x="572" y="634"/>
      <point x="590" y="571" type="curve" smooth="yes"/>
      <point x="605" y="518" type="line"/>
      <point x="652" y="518" type="line"/>
      <point x="652" y="710" type="line"/>
      <point x="40" y="710" type="line"/>
      <point x="40" y="660" type="line"/>
      <point x="65" y="660" type="line" smooth="yes"/>
      <point x="100" y="660"/>
      <point x="139" y="650"/>
      <point x="139" y="606" type="curve" smooth="yes"/>
      <point x="139" y="104" type="line" smooth="yes"/>
      <point x="139" y="60"/>
      <point x="101" y="50"/>
      <point x="65" y="50" type="curve" smooth="yes"/>
      <point x="40" y="50" type="line"/>
      <point x="40" y="0" type="line"/>
      <point x="375" y="0" type="line"/>
      <point x="375" y="50" type="line"/>
      <point x="337" y="50" type="line" smooth="yes"/>
      <point x="297" y="50"/>
      <point x="246" y="53"/>
      <point x="246" y="92" type="curve" smooth="yes"/>
    </contour>
  </outline>
</glyph>
<glyph name="Zhecyr" format="2">
  <advance width="1236"/>
  <unicode hex="0416"/>
  <guideline x="480" y="796" angle="90" identifier="LxfLwWU0sJ"/>
  <guideline x="480" y="796" angle="90" identifier="rSdoRMUZ3K"/>
  <outline>
    <contour>
      <point x="899" y="0" type="line"/>
      <point x="1226" y="0" type="line"/>
      <point x="1226" y="50" type="line"/>
      <point x="1218" y="50" type="line" smooth="yes"/>
      <point x="1170" y="50"/>
      <point x="1144" y="54"/>
      <point x="1115" y="83" type="curve" smooth="yes"/>
      <point x="792" y="408" type="line"/>
      <point x="788" y="365" type="line"/>
      <point x="1068" y="622" type="line" smooth="yes"/>
      <point x="1101" y="652"/>
      <point x="1122" y="660"/>
      <point x="1163" y="660" type="curve" smooth="yes"/>
      <point x="1177" y="660" type="line"/>
      <point x="1177" y="710" type="line"/>
      <point x="925" y="710" type="line"/>
      <point x="925" y="660" type="line"/>
      <point x="944" y="660" type="line" smooth="yes"/>
      <point x="972" y="660"/>
      <point x="1015" y="655"/>
      <point x="1015" y="646" type="curve"/>
      <point x="707" y="362" type="line"/>
      <point x="707" y="353" type="line"/>
      <point x="997" y="60" type="line"/>
      <point x="997" y="53"/>
      <point x="948" y="50"/>
      <point x="914" y="50" type="curve" smooth="yes"/>
      <point x="899" y="50" type="line"/>
    </contour>
    <contour>
      <point x="331" y="0" type="line"/>
      <point x="331" y="50" type="line"/>
      <point x="316" y="50" type="line" smooth="yes"/>
      <point x="282" y="50"/>
      <point x="233" y="53"/>
      <point x="233" y="60" type="curve"/>
      <point x="523" y="353" type="line"/>
      <point x="523" y="362" type="line"/>
      <point x="215" y="646" type="line"/>
      <point x="215" y="655"/>
      <point x="258" y="660"/>
      <point x="286" y="660" type="curve" smooth="yes"/>
      <point x="305" y="660" type="line"/>
      <point x="305" y="710" type="line"/>
      <point x="53" y="710" type="line"/>
      <point x="53" y="660" type="line"/>
      <point x="67" y="660" type="line" smooth="yes"/>
      <point x="106.7052631579" y="660"/>
      <point x="126.709714944" y="651.6378687835"/>
      <point x="159" y="622" type="curve" smooth="yes"/>
      <point x="439" y="365" type="line"/>
      <point x="444" y="408" type="line"/>
      <point x="121" y="83" type="line" smooth="yes"/>
      <point x="92" y="54"/>
      <point x="66" y="50"/>
      <point x="18" y="50" type="curve" smooth="yes"/>
      <point x="10" y="50" type="line"/>
      <point x="10" y="0" type="line"/>
    </contour>
    <contour>
      <point x="458" y="0" type="line"/>
      <point x="772" y="0" type="line"/>
      <point x="772" y="50" type="line"/>
      <point x="746" y="50" type="line" smooth="yes"/>
      <point x="712" y="50"/>
      <point x="669" y="55"/>
      <point x="669" y="66" type="curve" smooth="yes"/>
      <point x="669" y="644" type="line" smooth="yes"/>
      <point x="669" y="655"/>
      <point x="712" y="660"/>
      <point x="746" y="660" type="curve" smooth="yes"/>
      <point x="772" y="660" type="line"/>
      <point x="772" y="710" type="line"/>
      <point x="458" y="710" type="line"/>
      <point x="458" y="660" type="line"/>
      <point x="484" y="660" type="line" smooth="yes"/>
      <point x="518" y="660"/>
      <point x="561" y="655"/>
      <point x="561" y="644" type="curve" smooth="yes"/>
      <point x="561" y="66" type="line" smooth="yes"/>
      <point x="561" y="55"/>
      <point x="518" y="50"/>
      <point x="484" y="50" type="curve" smooth="yes"/>
      <point x="458" y="50" type="line"/>
    </contour>
  </outline>
</glyph>
<glyph name="Zecyr" format="2">
  <advance width="782"/>
  <unicode hex="0417"/>
  <outline>
    <contour>
      <point x="423" y="-10" type="curve" smooth="yes"/>
      <point x="618" y="-10"/>
      <point x="727" y="76"/>
      <point x="727" y="194" type="curve" smooth="yes"/>
      <point x="727" y="313"/>
      <point x="623" y="369"/>
      <point x="397" y="369" type="curve"/>
      <point x="468" y="347" type="line"/>
      <point x="468" y="378" type="line"/>
      <point x="388" y="358" type="line"/>
      <point x="591" y="358"/>
      <point x="696" y="430"/>
      <point x="696" y="533" type="curve" smooth="yes"/>
      <point x="696" y="640"/>
      <point x="612" y="720"/>
      <point x="416" y="720" type="curve" smooth="yes"/>
      <point x="261" y="720"/>
      <point x="166" y="642"/>
      <point x="136" y="562" type="curve"/>
      <point x="165" y="579" type="line"/>
      <point x="145" y="710" type="line"/>
      <point x="97" y="710" type="line"/>
      <point x="97" y="506" type="line"/>
      <point x="148" y="506" type="line"/>
      <point x="192" y="593"/>
      <point x="265" y="666"/>
      <point x="411" y="666" type="curve" smooth="yes"/>
      <point x="534" y="666"/>
      <point x="587" y="613"/>
      <point x="587" y="529" type="curve" smooth="yes"/>
      <point x="587" y="438"/>
      <point x="529" y="381"/>
      <point x="394" y="395" type="curve" smooth="yes"/>
      <point x="360.7" y="398.33"/>
      <point x="327.3" y="401.67"/>
      <point x="294" y="405" type="curve"/>
      <point x="294" y="321" type="line"/>
      <point x="325.635" y="323.997"/>
      <point x="357.365" y="327.003"/>
      <point x="389" y="330" type="curve" smooth="yes"/>
      <point x="537" y="344"/>
      <point x="616" y="294"/>
      <point x="616" y="195" type="curve" smooth="yes"/>
      <point x="616" y="103"/>
      <point x="557" y="44"/>
      <point x="424" y="44" type="curve" smooth="yes"/>
      <point x="249" y="44"/>
      <point x="173" y="119"/>
      <point x="128" y="204" type="curve"/>
      <point x="77" y="204" type="line"/>
      <point x="77" y="0" type="line"/>
      <point x="125" y="0" type="line"/>
      <point x="145" y="131" type="line"/>
      <point x="116" y="148" type="line"/>
      <point x="146" y="69"/>
      <point x="236" y="-10"/>
    </contour>
  </outline>
</glyph>
<glyph name="Icyr" format="2">
  <advance width="979"/>
  <unicode hex="0418"/>
  <outline>
    <contour>
      <point x="215" y="184" type="line"/>
      <point x="246" y="144" type="line"/>
      <point x="764" y="532" type="line"/>
      <point x="733" y="572" type="line"/>
    </contour>
    <contour>
      <point x="40" y="0" type="line"/>
      <point x="354" y="0" type="line"/>
      <point x="354" y="50" type="line"/>
      <point x="328" y="50" type="line" smooth="yes"/>
      <point x="292" y="50"/>
      <point x="246" y="55"/>
      <point x="246" y="66" type="curve" smooth="yes"/>
      <point x="246" y="644" type="line" smooth="yes"/>
      <point x="246" y="655"/>
      <point x="292" y="660"/>
      <point x="328" y="660" type="curve" smooth="yes"/>
      <point x="354" y="660" type="line"/>
      <point x="354" y="710" type="line"/>
      <point x="40" y="710" type="line"/>
      <point x="40" y="660" type="line"/>
      <point x="65" y="660" type="line" smooth="yes"/>
      <point x="100" y="660"/>
      <point x="139" y="650"/>
      <point x="139" y="606" type="curve" smooth="yes"/>
      <point x="139" y="104" type="line" smooth="yes"/>
      <point x="139" y="60"/>
      <point x="100" y="50"/>
      <point x="65" y="50" type="curve" smooth="yes"/>
      <point x="40" y="50" type="line"/>
    </contour>
    <contour>
      <point x="625" y="0" type="line"/>
      <point x="939" y="0" type="line"/>
      <point x="939" y="50" type="line"/>
      <point x="914" y="50" type="line" smooth="yes"/>
      <point x="879" y="50"/>
      <point x="840" y="60"/>
      <point x="840" y="104" type="curve" smooth="yes"/>
      <point x="840" y="606" type="line" smooth="yes"/>
      <point x="840" y="650"/>
      <point x="879" y="660"/>
      <point x="914" y="660" type="curve" smooth="yes"/>
      <point x="939" y="660" type="line"/>
      <point x="939" y="710" type="line"/>
      <point x="625" y="710" type="line"/>
      <point x="625" y="660" type="line"/>
      <point x="651" y="660" type="line" smooth="yes"/>
      <point x="687" y="660"/>
      <point x="733" y="655"/>
      <point x="733" y="644" type="curve" smooth="yes"/>
      <point x="733" y="66" type="line" smooth="yes"/>
      <point x="733" y="55"/>
      <point x="687" y="50"/>
      <point x="651" y="50" type="curve" smooth="yes"/>
      <point x="625" y="50" type="line"/>
    </contour>
  </outline>
</glyph>
<glyph name="Elcyr" format="2">
  <advance width="909"/>
  <unicode hex="041B"/>
  <outline>
    <contour>
      <point x="241" y="710" type="line"/>
      <point x="241" y="655" type="line"/>
      <point x="723" y="655" type="line"/>
      <point x="723" y="710" type="line"/>
    </contour>
    <contour>
      <point x="555" y="0" type="line"/>
      <point x="869" y="0" type="line"/>
      <point x="869" y="50" type="line"/>
      <point x="844" y="50" type="line" smooth="yes"/>
      <point x="809" y="50"/>
      <point x="770" y="60"/>
      <point x="770" y="104" type="curve" smooth="yes"/>
      <point x="770" y="606" type="line" smooth="yes"/>
      <point x="770" y="650"/>
      <point x="809" y="660"/>
      <point x="844" y="660" type="curve" smooth="yes"/>
      <point x="869" y="660" type="line"/>
      <point x="869" y="710" type="line"/>
      <point x="663" y="710" type="line"/>
      <point x="663" y="66" type="line" smooth="yes"/>
      <point x="663" y="55"/>
      <point x="617" y="50"/>
      <point x="581" y="50" type="curve" smooth="yes"/>
      <point x="555" y="50" type="line"/>
    </contour>
    <contour>
      <point x="199" y="278" type="line" smooth="yes"/>
      <point x="190" y="136"/>
      <point x="148" y="81"/>
      <point x="77" y="81" type="curve" smooth="yes"/>
      <point x="46" y="81"/>
      <point x="23" y="90"/>
      <point x="10" y="96" type="curve"/>
      <point x="10" y="0" type="line"/>
      <point x="23" y="-7"/>
      <point x="45" y="-15"/>
      <point x="79" y="-15" type="curve" smooth="yes"/>
      <point x="191" y="-15"/>
      <point x="244" y="72"/>
      <point x="257" y="275" type="curve" smooth="yes"/>
      <point x="284" y="710" type="line"/>
      <point x="119" y="710" type="line"/>
      <point x="119" y="660" type="line"/>
      <point x="130" y="660" type="line" smooth="yes"/>
      <point x="190" y="660"/>
      <point x="222" y="652"/>
      <point x="219" y="597" type="curve" smooth="yes"/>
    </contour>
  </outline>
</glyph>
<glyph name="Ucyr" format="2">
  <advance width="736"/>
  <unicode hex="0423"/>
  <outline>
    <contour>
      <point x="418" y="181" type="curve" smooth="yes"/>
      <point x="635" y="593" type="line" smooth="yes"/>
      <point x="661" y="643"/>
      <point x="694" y="660"/>
      <point x="720" y="660" type="curve" smooth="yes"/>
      <point x="726" y="660" type="line"/>
      <point x="726" y="710" type="line"/>
      <point x="510" y="710" type="line"/>
      <point x="510" y="660" type="line"/>
      <point x="535" y="660" type="line" smooth="yes"/>
      <point x="579" y="660"/>
      <point x="597" y="648"/>
      <point x="597" y="635" type="curve"/>
      <point x="370" y="201" type="line" smooth="yes"/>
      <point x="325" y="114"/>
      <point x="281" y="76"/>
      <point x="207" y="76" type="curve" smooth="yes"/>
      <point x="175" y="76"/>
      <point x="151" y="89"/>
      <point x="143" y="94" type="curve"/>
      <point x="143" y="0" type="line"/>
      <point x="157" y="-10"/>
      <point x="178" y="-18"/>
      <point x="212" y="-18" type="curve" smooth="yes"/>
      <point x="310" y="-18"/>
      <point x="349" y="47"/>
    </contour>
    <contour>
      <point x="420" y="222" type="line"/>
      <point x="179" y="647" type="line"/>
      <point x="179" y="657"/>
      <point x="221" y="660"/>
      <point x="262" y="660" type="curve" smooth="yes"/>
      <point x="283" y="660" type="line"/>
      <point x="283" y="710" type="line"/>
      <point x="10" y="710" type="line"/>
      <point x="10" y="660" type="line"/>
      <point x="16" y="660" type="line" smooth="yes"/>
      <point x="35" y="660"/>
      <point x="60" y="652"/>
      <point x="75" y="626" type="curve" smooth="yes"/>
      <point x="355" y="137" type="line"/>
    </contour>
  </outline>
</glyph>
<glyph name="Efcyr" format="2">
  <advance width="1001"/>
  <unicode hex="0424"/>
  <outline>
    <contour>
      <point x="447" y="84" type="line" smooth="yes"/>
      <point x="447" y="40"/>
      <point x="410" y="30"/>
      <point x="368" y="30" type="curve" smooth="yes"/>
      <point x="343" y="30" type="line"/>
      <point x="343" y="-20" type="line"/>
      <point x="658" y="-20" type="line"/>
      <point x="658" y="30" type="line"/>
      <point x="633" y="30" type="line" smooth="yes"/>
      <point x="591" y="30"/>
      <point x="554" y="40"/>
      <point x="554" y="84" type="curve" smooth="yes"/>
      <point x="554" y="626" type="line" smooth="yes"/>
      <point x="554" y="670"/>
      <point x="591" y="680"/>
      <point x="633" y="680" type="curve" smooth="yes"/>
      <point x="658" y="680" type="line"/>
      <point x="658" y="730" type="line"/>
      <point x="343" y="730" type="line"/>
      <point x="343" y="680" type="line"/>
      <point x="368" y="680" type="line" smooth="yes"/>
      <point x="410" y="680"/>
      <point x="447" y="670"/>
      <point x="447" y="626" type="curve" smooth="yes"/>
    </contour>
    <contour>
      <point x="460" y="620" type="line"/>
      <point x="182" y="620"/>
      <point x="30" y="520"/>
      <point x="30" y="360" type="curve" smooth="yes"/>
      <point x="30" y="200"/>
      <point x="182" y="100"/>
      <point x="460" y="100" type="curve"/>
      <point x="460" y="150" type="line"/>
      <point x="236" y="150"/>
      <point x="140" y="223"/>
      <point x="140" y="360" type="curve" smooth="yes"/>
      <point x="140" y="497"/>
      <point x="236" y="570"/>
      <point x="460" y="570" type="curve"/>
    </contour>
    <contour>
      <point x="541" y="100" type="line"/>
      <point x="819" y="100"/>
      <point x="971" y="200"/>
      <point x="971" y="360" type="curve" smooth="yes"/>
      <point x="971" y="520"/>
      <point x="819" y="620"/>
      <point x="541" y="620" type="curve"/>
      <point x="541" y="570" type="line"/>
      <point x="765" y="570"/>
      <point x="861" y="497"/>
      <point x="861" y="360" type="curve" smooth="yes"/>
      <point x="861" y="223"/>
      <point x="765" y="150"/>
      <point x="541" y="150" type="curve"/>
    </contour>
  </outline>
</glyph>
<glyph name="Hardcyr" format="2">
  <advance width="861"/>
  <unicode hex="042A"/>
  <outline>
    <contour>
      <point x="525" y="0" type="line" smooth="yes"/>
      <point x="707" y="0"/>
      <point x="826" y="84"/>
      <point x="826" y="211" type="curve" smooth="yes"/>
      <point x="826" y="349"/>
      <point x="713" y="425"/>
      <point x="530" y="425" type="curve" smooth="yes"/>
      <point x="318" y="425" type="line"/>
      <point x="318" y="370" type="line"/>
      <point x="528" y="370" type="line" smooth="yes"/>
      <point x="659" y="370"/>
      <point x="719" y="313"/>
      <point x="719" y="210" type="curve" smooth="yes"/>
      <point x="719" y="115"/>
      <point x="660" y="54"/>
      <point x="523" y="54" type="curve" smooth="yes"/>
      <point x="371" y="54" type="line"/>
      <point x="371" y="644" type="line"/>
      <point x="371" y="655"/>
      <point x="414.1951219512" y="660"/>
      <point x="448" y="660" type="curve" smooth="yes"/>
      <point x="474" y="660" type="line"/>
      <point x="474" y="710" type="line"/>
      <point x="30" y="710" type="line"/>
      <point x="30" y="518" type="line"/>
      <point x="77" y="518" type="line"/>
      <point x="92" y="566" type="line" smooth="yes"/>
      <point x="117" y="648"/>
      <point x="127" y="655"/>
      <point x="186" y="655" type="curve" smooth="yes"/>
      <point x="264" y="655" type="line"/>
      <point x="264" y="104" type="line" smooth="yes"/>
      <point x="264" y="60"/>
      <point x="222.3648648649" y="50"/>
      <point x="185" y="50" type="curve" smooth="yes"/>
      <point x="160" y="50" type="line"/>
      <point x="160" y="0" type="line"/>
    </contour>
  </outline>
</glyph>
<glyph name="Softcyr" format="2">
  <advance width="741"/>
  <unicode hex="042C"/>
  <outline>
    <contour>
      <point x="405" y="0" type="line" smooth="yes"/>
      <point x="588" y="0"/>
      <point x="706" y="84"/>
      <point x="706" y="211" type="curve" smooth="yes"/>
      <point x="706" y="349"/>
      <point x="593" y="425"/>
      <point x="410" y="425" type="curve" smooth="yes"/>
      <point x="176" y="425" type="line"/>
      <point x="176" y="370" type="line"/>
      <point x="408" y="370" type="line" smooth="yes"/>
      <point x="539" y="370"/>
      <point x="599" y="313"/>
      <point x="599" y="210" type="curve" smooth="yes"/>
      <point x="599" y="116"/>
      <point x="540" y="55"/>
      <point x="403" y="55" type="curve" smooth="yes"/>
      <point x="246" y="55" type="line"/>
      <point x="246" y="644" type="line"/>
      <point x="246" y="655"/>
      <point x="291.5555555556" y="660"/>
      <point x="328" y="660" type="curve" smooth="yes"/>
      <point x="354" y="660" type="line"/>
      <point x="354" y="710" type="line"/>
      <point x="40" y="710" type="line"/>
      <point x="40" y="660" type="line"/>
      <point x="65" y="660" type="line" smooth="yes"/>
      <point x="100" y="660"/>
      <point x="139" y="650"/>
      <point x="139" y="606" type="curve" smooth="yes"/>
      <point x="139" y="104" type="line" smooth="yes"/>
      <point x="139" y="60"/>
      <point x="100" y="50"/>
      <point x="65" y="50" type="curve" smooth="yes"/>
      <point x="40" y="50" type="line"/>
      <point x="40" y="0" type="line"/>
    </contour>
  </outline>
</glyph>
<glyph name="Yacyr" format="2">
  <advance width="815"/>
  <unicode hex="042F"/>
  <outline>
    <contour>
      <point x="395" y="330" type="line"/>
      <point x="297" y="362" type="line"/>
      <point x="109" y="80" type="line" smooth="yes"/>
      <point x="91" y="53"/>
      <point x="71" y="50"/>
      <point x="19" y="50" type="curve" smooth="yes"/>
      <point x="10" y="50" type="line"/>
      <point x="10" y="0" type="line"/>
      <point x="181" y="0" type="line"/>
    </contour>
    <contour>
      <point x="569" y="66" type="line" smooth="yes"/>
      <point x="569" y="55"/>
      <point x="523" y="50"/>
      <point x="487" y="50" type="curve" smooth="yes"/>
      <point x="461" y="50" type="line"/>
      <point x="461" y="0" type="line"/>
      <point x="775" y="0" type="line"/>
      <point x="775" y="50" type="line"/>
      <point x="750" y="50" type="line" smooth="yes"/>
      <point x="714" y="50"/>
      <point x="676" y="60"/>
      <point x="676" y="104" type="curve" smooth="yes"/>
      <point x="676" y="606" type="line" smooth="yes"/>
      <point x="676" y="650"/>
      <point x="715" y="660"/>
      <point x="750" y="660" type="curve" smooth="yes"/>
      <point x="775" y="660" type="line"/>
      <point x="775" y="710" type="line"/>
      <point x="406" y="710" type="line" smooth="yes"/>
      <point x="202" y="710"/>
      <point x="108" y="634"/>
      <point x="108" y="510" type="curve" smooth="yes"/>
      <point x="108" y="392"/>
      <point x="190" y="337"/>
      <point x="312" y="319" type="curve"/>
      <point x="369" y="310" type="line"/>
      <point x="591" y="310" type="line"/>
      <point x="591" y="363" type="line"/>
      <point x="400" y="363" type="line" smooth="yes"/>
      <point x="264" y="363"/>
      <point x="220" y="422"/>
      <point x="220" y="510" type="curve" smooth="yes"/>
      <point x="220" y="601"/>
      <point x="266" y="655"/>
      <point x="408" y="655" type="curve" smooth="yes"/>
      <point x="569" y="655" type="line"/>
    </contour>
  </outline>
</glyph>
<glyph name="icyr" format="2">
  <advance width="771"/>
  <unicode hex="0438"/>
  <outline>
    <contour>
      <point x="120" y="96" type="line" smooth="yes"/>
      <point x="120" y="58"/>
      <point x="95" y="50"/>
      <point x="48" y="50" type="curve" smooth="yes"/>
      <point x="31" y="50" type="line"/>
      <point x="31" y="0" type="line"/>
      <point x="314" y="0" type="line"/>
      <point x="314" y="50" type="line"/>
      <point x="300" y="50" type="line" smooth="yes"/>
      <point x="264" y="50"/>
      <point x="224" y="54"/>
      <point x="224" y="64" type="curve" smooth="yes"/>
      <point x="224" y="454" type="line" smooth="yes"/>
      <point x="224" y="464"/>
      <point x="264" y="468"/>
      <point x="300" y="468" type="curve" smooth="yes"/>
      <point x="314" y="468" type="line"/>
      <point x="314" y="518" type="line"/>
      <point x="31" y="518" type="line"/>
      <point x="31" y="468" type="line"/>
      <point x="48" y="468" type="line" smooth="yes"/>
      <point x="95" y="468"/>
      <point x="120" y="460"/>
      <point x="120" y="422" type="curve" smooth="yes"/>
    </contour>
    <contour>
      <point x="547" y="64" type="line" smooth="yes"/>
      <point x="547" y="54"/>
      <point x="507" y="50"/>
      <point x="471" y="50" type="curve" smooth="yes"/>
      <point x="457" y="50" type="line"/>
      <point x="457" y="0" type="line"/>
      <point x="740" y="0" type="line"/>
      <point x="740" y="50" type="line"/>
      <point x="723" y="50" type="line" smooth="yes"/>
      <point x="676" y="50"/>
      <point x="651" y="58"/>
      <point x="651" y="96" type="curve" smooth="yes"/>
      <point x="651" y="422" type="line" smooth="yes"/>
      <point x="651" y="460"/>
      <point x="676" y="468"/>
      <point x="723" y="468" type="curve" smooth="yes"/>
      <point x="740" y="468" type="line"/>
      <point x="740" y="518" type="line"/>
      <point x="457" y="518" type="line"/>
      <point x="457" y="468" type="line"/>
      <point x="471" y="468" type="line" smooth="yes"/>
      <point x="507" y="468"/>
      <point x="547" y="464"/>
      <point x="547" y="454" type="curve" smooth="yes"/>
    </contour>
    <contour>
      <point x="224" y="106" type="line"/>
      <point x="577" y="376" type="line"/>
      <point x="547" y="417" type="line"/>
      <point x="194" y="147" type="line"/>
    </contour>
  </outline>
</glyph>
<glyph name="elcyr" format="2">
  <advance width="706"/>
  <unicode hex="043B"/>
  <outline>
    <contour>
      <point x="157" y="241" type="line" smooth="yes"/>
      <point x="152" y="131"/>
      <point x="125" y="86"/>
      <point x="69" y="86" type="curve" smooth="yes"/>
      <point x="45" y="86"/>
      <point x="26" y="93"/>
      <point x="20" y="96" type="curve"/>
      <point x="20" y="0" type="line"/>
      <point x="29" y="-5"/>
      <point x="49" y="-10"/>
      <point x="69" y="-10" type="curve" smooth="yes"/>
      <point x="161" y="-10"/>
      <point x="207" y="61"/>
      <point x="215" y="238" type="curve" smooth="yes"/>
      <point x="228" y="518" type="line"/>
      <point x="89" y="518" type="line"/>
      <point x="89" y="468" type="line"/>
      <point x="109" y="468" type="line" smooth="yes"/>
      <point x="140" y="468"/>
      <point x="167" y="461"/>
      <point x="166" y="432" type="curve" smooth="yes"/>
    </contour>
    <contour>
      <point x="482" y="64" type="line" smooth="yes"/>
      <point x="482" y="54"/>
      <point x="442" y="50"/>
      <point x="406" y="50" type="curve" smooth="yes"/>
      <point x="392" y="50" type="line"/>
      <point x="392" y="0" type="line"/>
      <point x="675" y="0" type="line"/>
      <point x="675" y="50" type="line"/>
      <point x="658" y="50" type="line" smooth="yes"/>
      <point x="611" y="50"/>
      <point x="586" y="58"/>
      <point x="586" y="96" type="curve" smooth="yes"/>
      <point x="586" y="422" type="line" smooth="yes"/>
      <point x="586" y="460"/>
      <point x="611" y="468"/>
      <point x="658" y="468" type="curve" smooth="yes"/>
      <point x="675" y="468" type="line"/>
      <point x="675" y="518" type="line"/>
      <point x="482" y="518" type="line"/>
    </contour>
    <contour>
      <point x="192" y="466" type="line"/>
      <point x="543" y="466" type="line"/>
      <point x="543" y="518" type="line"/>
      <point x="192" y="518" type="line"/>
    </contour>
  </outline>
</glyph>
<glyph name="efcyr" format="2">
  <advance width="840"/>
  <unicode hex="0444"/>
  <outline>
    <contour>
      <point x="472" y="750" type="line"/>
      <point x="274" y="750" type="line"/>
      <point x="274" y="700" type="line"/>
      <point x="302" y="698" type="line" smooth="yes"/>
      <point x="349" y="695"/>
      <point x="368" y="677"/>
      <point x="368" y="641" type="curve" smooth="yes"/>
      <point x="368" y="-127" type="line" smooth="yes"/>
      <point x="368" y="-165"/>
      <point x="333" y="-173"/>
      <point x="291" y="-173" type="curve" smooth="yes"/>
      <point x="274" y="-173" type="line"/>
      <point x="274" y="-223" type="line"/>
      <point x="566" y="-223" type="line"/>
      <point x="566" y="-173" type="line"/>
      <point x="549" y="-173" type="line" smooth="yes"/>
      <point x="507" y="-173"/>
      <point x="472" y="-165"/>
      <point x="472" y="-127" type="curve" smooth="yes"/>
    </contour>
    <contour>
      <point x="376" y="518" type="line"/>
      <point x="183" y="510"/>
      <point x="45" y="419"/>
      <point x="45" y="254" type="curve" smooth="yes"/>
      <point x="45" y="89"/>
      <point x="183" y="-2"/>
      <point x="376" y="-10" type="curve"/>
      <point x="376" y="42" type="line"/>
      <point x="236" y="51"/>
      <point x="149" y="116"/>
      <point x="149" y="254" type="curve" smooth="yes"/>
      <point x="149" y="392"/>
      <point x="236" y="457"/>
      <point x="376" y="466" type="curve"/>
    </contour>
    <contour>
      <point x="464" y="-10" type="line"/>
      <point x="657" y="-2"/>
      <point x="795" y="89"/>
      <point x="795" y="254" type="curve" smooth="yes"/>
      <point x="795" y="419"/>
      <point x="657" y="510"/>
      <point x="464" y="518" type="curve"/>
      <point x="464" y="466" type="line"/>
      <point x="604" y="457"/>
      <point x="691" y="392"/>
      <point x="691" y="254" type="curve" smooth="yes"/>
      <point x="691" y="116"/>
      <point x="604" y="51"/>
      <point x="464" y="42" type="curve"/>
    </contour>
  </outline>
</glyph>
<glyph name="ereversedcyr" format="2">
  <advance width="663"/>
  <unicode hex="044D"/>
  <guideline x="889" y="493" angle="90" identifier="n4jm0tBg3Y"/>
  <outline>
    <contour>
      <point x="555" y="237" type="line"/>
      <point x="555" y="289" type="line"/>
      <point x="204" y="289" type="line"/>
      <point x="204" y="237" type="line"/>
    </contour>
    <contour>
      <point x="286" y="-10" type="curve" smooth="yes"/>
      <point x="484" y="-10"/>
      <point x="618" y="102"/>
      <point x="618" y="260" type="curve" smooth="yes"/>
      <point x="618" y="417"/>
      <point x="486" y="528"/>
      <point x="290" y="528" type="curve" smooth="yes"/>
      <point x="192" y="528"/>
      <point x="107" y="503"/>
      <point x="68" y="471" type="curve"/>
      <point x="68" y="380" type="line"/>
      <point x="170" y="380" type="line"/>
      <point x="170" y="484" type="line"/>
      <point x="148" y="485"/>
      <point x="106" y="441"/>
      <point x="112" y="422" type="curve"/>
      <point x="140" y="456"/>
      <point x="213" y="476"/>
      <point x="293" y="476" type="curve" smooth="yes"/>
      <point x="437" y="476"/>
      <point x="508" y="383"/>
      <point x="508" y="260" type="curve" smooth="yes"/>
      <point x="508" y="135"/>
      <point x="437" y="42"/>
      <point x="286" y="42" type="curve" smooth="yes"/>
      <point x="203" y="42"/>
      <point x="125" y="69"/>
      <point x="104" y="97" type="curve"/>
      <point x="98" y="78"/>
      <point x="140" y="33"/>
      <point x="162" y="34" type="curve"/>
      <point x="162" y="138" type="line"/>
      <point x="60" y="138" type="line"/>
      <point x="60" y="47" type="line"/>
      <point x="99" y="15"/>
      <point x="186" y="-10"/>
    </contour>
  </outline>
</glyph>
<glyph name="yacyr" format="2">
  <advance width="659"/>
  <unicode hex="044F"/>
  <outline>
    <contour>
      <point x="435" y="466" type="line"/>
      <point x="435" y="64" type="line" smooth="yes"/>
      <point x="435" y="54"/>
      <point x="395" y="50"/>
      <point x="359" y="50" type="curve" smooth="yes"/>
      <point x="345" y="50" type="line"/>
      <point x="345" y="0" type="line"/>
      <point x="628" y="0" type="line"/>
      <point x="628" y="50" type="line"/>
      <point x="611" y="50" type="line" smooth="yes"/>
      <point x="564" y="50"/>
      <point x="539" y="58"/>
      <point x="539" y="96" type="curve" smooth="yes"/>
      <point x="539" y="422" type="line" smooth="yes"/>
      <point x="539" y="460"/>
      <point x="564" y="468"/>
      <point x="611" y="468" type="curve" smooth="yes"/>
      <point x="628" y="468" type="line"/>
      <point x="628" y="518" type="line"/>
      <point x="305" y="518" type="line" smooth="yes"/>
      <point x="140" y="518"/>
      <point x="66" y="452"/>
      <point x="66" y="360" type="curve" smooth="yes"/>
      <point x="66" y="266"/>
      <point x="130.9991238394" y="211.0000110209"/>
      <point x="290" y="209" type="curve"/>
      <point x="300" y="205" type="line"/>
      <point x="501" y="205" type="line"/>
      <point x="501" y="257" type="line"/>
      <point x="302" y="257" type="line" smooth="yes"/>
      <point x="201" y="257"/>
      <point x="166" y="291.6634615385"/>
      <point x="166" y="360" type="curve" smooth="yes"/>
      <point x="166" y="420.5714285714"/>
      <point x="200" y="466"/>
      <point x="307" y="466" type="curve" smooth="yes"/>
    </contour>
    <contour>
      <point x="222" y="242" type="line"/>
      <point x="107" y="95" type="line" smooth="yes"/>
      <point x="84" y="66"/>
      <point x="64.1168831169" y="50"/>
      <point x="31" y="50" type="curve" smooth="yes"/>
      <point x="20" y="50" type="line"/>
      <point x="20" y="0" type="line"/>
      <point x="148" y="0" type="line"/>
      <point x="323" y="227" type="line"/>
    </contour>
  </outline>
</glyph>
<glyph name="djecyr" format="2">
  <advance width="751"/>
  <unicode hex="0452"/>
  <outline>
    <contour>
      <point x="120" y="750" type="line"/>
      <point x="120" y="96" type="line" smooth="yes"/>
      <point x="120" y="58"/>
      <point x="95" y="50"/>
      <point x="48" y="50" type="curve" smooth="yes"/>
      <point x="31" y="50" type="line"/>
      <point x="31" y="0" type="line"/>
      <point x="314" y="0" type="line"/>
      <point x="314" y="50" type="line"/>
      <point x="300" y="50" type="line" smooth="yes"/>
      <point x="264" y="50"/>
      <point x="224" y="54"/>
      <point x="224" y="64" type="curve"/>
      <point x="224" y="750" type="line"/>
    </contour>
    <contour>
      <point x="465" y="645" type="line"/>
      <point x="9" y="645" type="line"/>
      <point x="9" y="593" type="line"/>
      <point x="465" y="593" type="line"/>
    </contour>
    <contour>
      <point x="537" y="-32" type="line" smooth="yes"/>
      <point x="537" y="-147"/>
      <point x="494.3925233645" y="-189"/>
      <point x="440" y="-189" type="curve" smooth="yes"/>
      <point x="421" y="-189"/>
      <point x="398" y="-185"/>
      <point x="384" y="-180" type="curve"/>
      <point x="384" y="-228" type="line"/>
      <point x="396" y="-232"/>
      <point x="419" y="-236"/>
      <point x="439" y="-236" type="curve" smooth="yes"/>
      <point x="537.141509434" y="-236"/>
      <point x="641" y="-192"/>
      <point x="641" y="-45" type="curve" smooth="yes"/>
      <point x="641" y="369" type="line" smooth="yes"/>
      <point x="641" y="475"/>
      <point x="567" y="528"/>
      <point x="451" y="528" type="curve" smooth="yes"/>
      <point x="348" y="528"/>
      <point x="274.88885763" y="488.6764333534"/>
      <point x="208" y="409" type="curve"/>
      <point x="208" y="349" type="line"/>
      <point x="280" y="435"/>
      <point x="342" y="470"/>
      <point x="427" y="470" type="curve" smooth="yes"/>
      <point x="502.1666666667" y="470"/>
      <point x="537" y="439"/>
      <point x="537" y="367" type="curve" smooth="yes"/>
    </contour>
  </outline>
</glyph>
<glyph name="yukrcyr" format="2">
  <advance width="349"/>
  <unicode hex="0457"/>
  <outline>
    <contour>
      <point x="85" y="632" type="curve" smooth="yes"/>
      <point x="127" y="632"/>
      <point x="151" y="663"/>
      <point x="151" y="703" type="curve" smooth="yes"/>
      <point x="151" y="742"/>
      <point x="127" y="773"/>
      <point x="85" y="773" type="curve" smooth="yes"/>
      <point x="43" y="773"/>
      <point x="18" y="742"/>
      <point x="18" y="703" type="curve" smooth="yes"/>
      <point x="18" y="663"/>
      <point x="43" y="632"/>
    </contour>
    <contour>
      <point x="259" y="632" type="curve" smooth="yes"/>
      <point x="301" y="632"/>
      <point x="325" y="663"/>
      <point x="325" y="703" type="curve" smooth="yes"/>
      <point x="325" y="742"/>
      <point x="301" y="773"/>
      <point x="259" y="773" type="curve" smooth="yes"/>
      <point x="217" y="773"/>
      <point x="192" y="742"/>
      <point x="192" y="703" type="curve" smooth="yes"/>
      <point x="192" y="663"/>
      <point x="217" y="632"/>
    </contour>
    <component base="dotlessi"/>
  </outline>
</glyph>
<glyph name="ljecyr" format="2">
  <advance width="951"/>
  <unicode hex="0459"/>
  <outline>
    <contour>
      <point x="157" y="241" type="line" smooth="yes"/>
      <point x="152" y="131"/>
      <point x="125" y="86"/>
      <point x="69" y="86" type="curve" smooth="yes"/>
      <point x="45" y="86"/>
      <point x="26" y="93"/>
      <point x="20" y="96" type="curve"/>
      <point x="20" y="0" type="line"/>
      <point x="29" y="-5"/>
      <point x="49" y="-10"/>
      <point x="69" y="-10" type="curve" smooth="yes"/>
      <point x="161" y="-10"/>
      <point x="207" y="61"/>
      <point x="215" y="238" type="curve" smooth="yes"/>
      <point x="228" y="518" type="line"/>
      <point x="89" y="518" type="line"/>
      <point x="89" y="468" type="line"/>
      <point x="109" y="468" type="line" smooth="yes"/>
      <point x="140" y="468"/>
      <point x="167" y="461"/>
      <point x="166" y="432" type="curve" smooth="yes"/>
    </contour>
    <contour>
      <point x="192" y="466" type="line"/>
      <point x="543" y="466" type="line"/>
      <point x="543" y="518" type="line"/>
      <point x="192" y="518" type="line"/>
    </contour>
    <contour>
      <point x="453" y="64" type="line" smooth="yes"/>
      <point x="453" y="54"/>
      <point x="415" y="50"/>
      <point x="381" y="50" type="curve" smooth="yes"/>
      <point x="357" y="50" type="line"/>
      <point x="357" y="0" type="line"/>
      <point x="690" y="0" type="line" smooth="yes"/>
      <point x="850" y="0"/>
      <point x="921" y="68"/>
      <point x="921" y="163" type="curve" smooth="yes"/>
      <point x="921" y="261"/>
      <point x="861" y="323"/>
      <point x="695" y="323" type="curve" smooth="yes"/>
      <point x="486" y="323" type="line"/>
      <point x="486" y="271" type="line"/>
      <point x="693" y="271" type="line" smooth="yes"/>
      <point x="788" y="271"/>
      <point x="821" y="231"/>
      <point x="821" y="162" type="curve" smooth="yes"/>
      <point x="821" y="96"/>
      <point x="789" y="52"/>
      <point x="688" y="52" type="curve" smooth="yes"/>
      <point x="557" y="52" type="line"/>
      <point x="557" y="422" type="line" smooth="yes"/>
      <point x="557" y="460"/>
      <point x="582" y="468"/>
      <point x="629" y="468" type="curve" smooth="yes"/>
      <point x="642" y="468" type="line"/>
      <point x="642" y="518" type="line"/>
      <point x="453" y="518" type="line"/>
    </contour>
  </outline>
</glyph>
<glyph name="njecyr" format="2">
  <advance width="1010"/>
  <unicode hex="045A"/>
  <outline>
    <contour>
      <point x="120" y="96" type="line" smooth="yes"/>
      <point x="120" y="58"/>
      <point x="95" y="50"/>
      <point x="48" y="50" type="curve" smooth="yes"/>
      <point x="31" y="50" type="line"/>
      <point x="31" y="0" type="line"/>
      <point x="314" y="0" type="line"/>
      <point x="314" y="50" type="line"/>
      <point x="300" y="50" type="line" smooth="yes"/>
      <point x="264" y="50"/>
      <point x="224" y="54"/>
      <point x="224" y="64" type="curve" smooth="yes"/>
      <point x="224" y="454" type="line" smooth="yes"/>
      <point x="224" y="464"/>
      <point x="264" y="468"/>
      <point x="300" y="468" type="curve" smooth="yes"/>
      <point x="314" y="468" type="line"/>
      <point x="314" y="518" type="line"/>
      <point x="31" y="518" type="line"/>
      <point x="31" y="468" type="line"/>
      <point x="48" y="468" type="line" smooth="yes"/>
      <point x="95" y="468"/>
      <point x="120" y="460"/>
      <point x="120" y="422" type="curve" smooth="yes"/>
    </contour>
    <contour>
      <point x="172" y="261" type="line"/>
      <point x="563" y="261" type="line"/>
      <point x="563" y="313" type="line"/>
      <point x="172" y="313" type="line"/>
    </contour>
    <contour>
      <point x="616" y="422" type="line" smooth="yes"/>
      <point x="616" y="460"/>
      <point x="641" y="468"/>
      <point x="688" y="468" type="curve" smooth="yes"/>
      <point x="701" y="468" type="line"/>
      <point x="701" y="518" type="line"/>
      <point x="427" y="518" type="line"/>
      <point x="427" y="468" type="line"/>
      <point x="441" y="468" type="line" smooth="yes"/>
      <point x="475" y="468"/>
      <point x="512" y="464"/>
      <point x="512" y="454" type="curve" smooth="yes"/>
      <point x="512" y="64" type="line" smooth="yes"/>
      <point x="512" y="54"/>
      <point x="475" y="50"/>
      <point x="441" y="50" type="curve" smooth="yes"/>
      <point x="427" y="50" type="line"/>
      <point x="427" y="0" type="line"/>
      <point x="749" y="0" type="line" smooth="yes"/>
      <point x="909" y="0"/>
      <point x="980" y="66"/>
      <point x="980" y="158" type="curve" smooth="yes"/>
      <point x="980" y="253"/>
      <point x="914" y="313"/>
      <point x="754" y="313" type="curve" smooth="yes"/>
      <point x="545" y="313" type="line"/>
      <point x="545" y="261" type="line"/>
      <point x="752" y="261" type="line" smooth="yes"/>
      <point x="848" y="261"/>
      <point x="880" y="223"/>
      <point x="880" y="157" type="curve" smooth="yes"/>
      <point x="880" y="94"/>
      <point x="848" y="52"/>
      <point x="747" y="52" type="curve" smooth="yes"/>
      <point x="616" y="52" type="line"/>
    </contour>
  </outline>
</glyph>
<glyph name="Geupcyr" format="2">
  <advance width="667"/>
  <unicode hex="0490"/>
  <outline>
    <contour>
      <point x="246" y="655" type="line"/>
      <point x="632" y="655" type="line"/>
      <point x="632" y="860" type="line"/>
      <point x="585" y="860" type="line"/>
      <point x="566" y="770" type="line" smooth="yes"/>
      <point x="555" y="719"/>
      <point x="523" y="710"/>
      <point x="441" y="710" type="curve" smooth="yes"/>
      <point x="40" y="710" type="line"/>
      <point x="40" y="660" type="line"/>
      <point x="65" y="660" type="line" smooth="yes"/>
      <point x="100" y="660"/>
      <point x="139" y="650"/>
      <point x="139" y="606" type="curve" smooth="yes"/>
      <point x="139" y="104" type="line" smooth="yes"/>
      <point x="139" y="60"/>
      <point x="101" y="50"/>
      <point x="65" y="50" type="curve" smooth="yes"/>
      <point x="40" y="50" type="line"/>
      <point x="40" y="0" type="line"/>
      <point x="375" y="0" type="line"/>
      <point x="375" y="50" type="line"/>
      <point x="337" y="50" type="line" smooth="yes"/>
      <point x="297" y="50"/>
      <point x="246" y="53"/>
      <point x="246" y="92" type="curve" smooth="yes"/>
    </contour>
  </outline>
</glyph>
<glyph name="geupcyr" format="2">
  <advance width="538"/>
  <unicode hex="0491"/>
  <outline>
    <contour>
      <point x="120" y="96" type="line" smooth="yes"/>
      <point x="120" y="58"/>
      <point x="95" y="50"/>
      <point x="48" y="50" type="curve" smooth="yes"/>
      <point x="31" y="50" type="line"/>
      <point x="31" y="0" type="line"/>
      <point x="344" y="0" type="line"/>
      <point x="344" y="50" type="line"/>
      <point x="300" y="50" type="line" smooth="yes"/>
      <point x="248" y="50"/>
      <point x="224" y="58"/>
      <point x="224" y="96" type="curve" smooth="yes"/>
      <point x="224" y="518" type="line"/>
      <point x="31" y="518" type="line"/>
      <point x="31" y="468" type="line"/>
      <point x="48" y="468" type="line" smooth="yes"/>
      <point x="95" y="468"/>
      <point x="120" y="460"/>
      <point x="120" y="422" type="curve" smooth="yes"/>
    </contour>
    <contour>
      <point x="169" y="518" type="line"/>
      <point x="169" y="466" type="line"/>
      <point x="523" y="466" type="line"/>
      <point x="523" y="658" type="line"/>
      <point x="476" y="658" type="line"/>
      <point x="458" y="561" type="line" smooth="yes"/>
      <point x="451" y="525"/>
      <point x="427" y="518"/>
      <point x="359" y="518" type="curve" smooth="yes"/>
    </contour>
  </outline>
</glyph>
<glyph name="gestrokecyr" format="2">
  <advance width="568"/>
  <unicode hex="0493"/>
  <outline>
    <contour>
      <point x="33" y="236" type="line"/>
      <point x="384" y="236" type="line"/>
      <point x="384" y="288" type="line"/>
      <point x="33" y="288" type="line"/>
    </contour>
    <contour>
      <point x="120" y="96" type="line" smooth="yes"/>
      <point x="120" y="58"/>
      <point x="95" y="50"/>
      <point x="48" y="50" type="curve" smooth="yes"/>
      <point x="31" y="50" type="line"/>
      <point x="31" y="0" type="line"/>
      <point x="344" y="0" type="line"/>
      <point x="344" y="50" type="line"/>
      <point x="300" y="50" type="line" smooth="yes"/>
      <point x="248" y="50"/>
      <point x="224" y="58"/>
      <point x="224" y="96" type="curve" smooth="yes"/>
      <point x="224" y="518" type="line"/>
      <point x="31" y="518" type="line"/>
      <point x="31" y="468" type="line"/>
      <point x="48" y="468" type="line" smooth="yes"/>
      <point x="95" y="468"/>
      <point x="120" y="460"/>
      <point x="120" y="422" type="curve" smooth="yes"/>
    </contour>
    <contour>
      <point x="194" y="466" type="line"/>
      <point x="394" y="466" type="line" smooth="yes"/>
      <point x="460" y="466"/>
      <point x="483" y="461"/>
      <point x="490" y="425" type="curve" smooth="yes"/>
      <point x="506" y="346" type="line"/>
      <point x="553" y="346" type="line"/>
      <point x="553" y="518" type="line"/>
      <point x="194" y="518" type="line"/>
    </contour>
  </outline>
</glyph>
<glyph name="Zhetailcyr" format="2">
  <advance width="1236"/>
  <unicode hex="0496"/>
  <guideline x="480" y="796" angle="90" identifier="LxfLwWU0sJ"/>
  <guideline x="480" y="796" angle="90" identifier="V7DxJSuQn6"/>
  <outline>
    <contour>
      <point x="899" y="0" type="line"/>
      <point x="1143" y="0" type="line"/>
      <point x="1143" y="55" type="line"/>
      <point x="792" y="408" type="line"/>
      <point x="788" y="365" type="line"/>
      <point x="1068" y="622" type="line" smooth="yes"/>
      <point x="1101" y="652"/>
      <point x="1122" y="660"/>
      <point x="1163" y="660" type="curve" smooth="yes"/>
      <point x="1177" y="660" type="line"/>
      <point x="1177" y="710" type="line"/>
      <point x="925" y="710" type="line"/>
      <point x="925" y="660" type="line"/>
      <point x="944" y="660" type="line" smooth="yes"/>
      <point x="972" y="660"/>
      <point x="1015" y="655"/>
      <point x="1015" y="646" type="curve"/>
      <point x="707" y="362" type="line"/>
      <point x="707" y="353" type="line"/>
      <point x="997" y="60" type="line"/>
      <point x="997" y="53"/>
      <point x="948" y="50"/>
      <point x="914" y="50" type="curve" smooth="yes"/>
      <point x="899" y="50" type="line"/>
    </contour>
    <contour>
      <point x="331" y="0" type="line"/>
      <point x="331" y="50" type="line"/>
      <point x="316" y="50" type="line" smooth="yes"/>
      <point x="282" y="50"/>
      <point x="233" y="53"/>
      <point x="233" y="60" type="curve"/>
      <point x="523" y="353" type="line"/>
      <point x="523" y="362" type="line"/>
      <point x="215" y="646" type="line"/>
      <point x="215" y="655"/>
      <point x="258" y="660"/>
      <point x="286" y="660" type="curve" smooth="yes"/>
      <point x="305" y="660" type="line"/>
      <point x="305" y="710" type="line"/>
      <point x="53" y="710" type="line"/>
      <point x="53" y="660" type="line"/>
      <point x="67" y="660" type="line" smooth="yes"/>
      <point x="107" y="660"/>
      <point x="127" y="652"/>
      <point x="159" y="622" type="curve" smooth="yes"/>
      <point x="439" y="365" type="line"/>
      <point x="444" y="408" type="line"/>
      <point x="121" y="83" type="line" smooth="yes"/>
      <point x="92" y="54"/>
      <point x="66" y="50"/>
      <point x="18" y="50" type="curve" smooth="yes"/>
      <point x="10" y="50" type="line"/>
      <point x="10" y="0" type="line"/>
    </contour>
    <contour>
      <point x="1039" y="0" type="line" smooth="yes"/>
      <point x="1118" y="0"/>
      <point x="1150" y="-11"/>
      <point x="1160" y="-59" type="curve" smooth="yes"/>
      <point x="1179" y="-150" type="line"/>
      <point x="1226" y="-150" type="line"/>
      <point x="1226" y="55" type="line"/>
      <point x="1014" y="55" type="line"/>
      <point x="1014" y="0" type="line"/>
    </contour>
    <contour>
      <point x="458" y="0" type="line"/>
      <point x="772" y="0" type="line"/>
      <point x="772" y="50" type="line"/>
      <point x="746" y="50" type="line" smooth="yes"/>
      <point x="712" y="50"/>
      <point x="669" y="55"/>
      <point x="669" y="66" type="curve" smooth="yes"/>
      <point x="669" y="644" type="line" smooth="yes"/>
      <point x="669" y="655"/>
      <point x="712" y="660"/>
      <point x="746" y="660" type="curve" smooth="yes"/>
      <point x="772" y="660" type="line"/>
      <point x="772" y="710" type="line"/>
      <point x="458" y="710" type="line"/>
      <point x="458" y="660" type="line"/>
      <point x="484" y="660" type="line" smooth="yes"/>
      <point x="518" y="660"/>
      <point x="561" y="655"/>
      <point x="561" y="644" type="curve" smooth="yes"/>
      <point x="561" y="66" type="line" smooth="yes"/>
      <point x="561" y="55"/>
      <point x="518" y="50"/>
      <point x="484" y="50" type="curve" smooth="yes"/>
      <point x="458" y="50" type="line"/>
    </contour>
  </outline>
</glyph>
<glyph name="Katailcyr" format="2">
  <advance width="848"/>
  <unicode hex="049A"/>
  <guideline x="480" y="796" angle="90" identifier="LxfLwWU0sJ"/>
  <outline>
    <contour>
      <point x="40" y="0" type="line"/>
      <point x="354" y="0" type="line"/>
      <point x="354" y="50" type="line"/>
      <point x="328" y="50" type="line" smooth="yes"/>
      <point x="292" y="50"/>
      <point x="246" y="55"/>
      <point x="246" y="66" type="curve" smooth="yes"/>
      <point x="246" y="644" type="line" smooth="yes"/>
      <point x="246" y="655"/>
      <point x="292" y="660"/>
      <point x="328" y="660" type="curve" smooth="yes"/>
      <point x="354" y="660" type="line"/>
      <point x="354" y="710" type="line"/>
      <point x="40" y="710" type="line"/>
      <point x="40" y="660" type="line"/>
      <point x="65" y="660" type="line" smooth="yes"/>
      <point x="100" y="660"/>
      <point x="139" y="650"/>
      <point x="139" y="606" type="curve" smooth="yes"/>
      <point x="139" y="104" type="line" smooth="yes"/>
      <point x="139" y="60"/>
      <point x="101" y="50"/>
      <point x="65" y="50" type="curve" smooth="yes"/>
      <point x="40" y="50" type="line"/>
    </contour>
    <contour>
      <point x="511" y="0" type="line"/>
      <point x="764" y="0" type="line"/>
      <point x="764" y="55" type="line"/>
      <point x="372" y="408" type="line"/>
      <point x="378" y="371" type="line"/>
      <point x="682" y="622" type="line" smooth="yes"/>
      <point x="716" y="650"/>
      <point x="734" y="660"/>
      <point x="775" y="660" type="curve" smooth="yes"/>
      <point x="789" y="660" type="line"/>
      <point x="789" y="710" type="line"/>
      <point x="537" y="710" type="line"/>
      <point x="537" y="660" type="line"/>
      <point x="556" y="660" type="line" smooth="yes"/>
      <point x="584" y="660"/>
      <point x="627" y="655"/>
      <point x="627" y="646" type="curve"/>
      <point x="284" y="362" type="line"/>
      <point x="284" y="353" type="line"/>
      <point x="609" y="60" type="line"/>
      <point x="609" y="53"/>
      <point x="560" y="50"/>
      <point x="526" y="50" type="curve" smooth="yes"/>
      <point x="511" y="50" type="line"/>
    </contour>
    <contour>
      <point x="651" y="0" type="line" smooth="yes"/>
      <point x="730" y="0"/>
      <point x="762" y="-11"/>
      <point x="772" y="-59" type="curve" smooth="yes"/>
      <point x="791" y="-150" type="line"/>
      <point x="838" y="-150" type="line"/>
      <point x="838" y="55" type="line"/>
      <point x="626" y="55" type="line"/>
      <point x="626" y="0" type="line"/>
    </contour>
  </outline>
</glyph>
<glyph name="katailcyr" format="2">
  <advance width="706"/>
  <unicode hex="049B"/>
  <guideline x="241" y="553" angle="90" identifier="lmgRx0QBdK"/>
  <outline>
    <contour>
      <point x="120" y="96" type="line" smooth="yes"/>
      <point x="120" y="58"/>
      <point x="95" y="50"/>
      <point x="48" y="50" type="curve"/>
      <point x="31" y="50" type="line"/>
      <point x="31" y="0" type="line"/>
      <point x="314" y="0" type="line"/>
      <point x="314" y="50" type="line"/>
      <point x="300" y="50" type="line" smooth="yes"/>
      <point x="264" y="50"/>
      <point x="224" y="54"/>
      <point x="224" y="64" type="curve" smooth="yes"/>
      <point x="224" y="454" type="line" smooth="yes"/>
      <point x="224" y="464"/>
      <point x="264" y="468"/>
      <point x="300" y="468" type="curve" smooth="yes"/>
      <point x="314" y="468" type="line"/>
      <point x="314" y="518" type="line"/>
      <point x="31" y="518" type="line"/>
      <point x="31" y="468" type="line"/>
      <point x="48" y="468" type="line"/>
      <point x="95" y="468"/>
      <point x="120" y="460"/>
      <point x="120" y="422" type="curve" smooth="yes"/>
    </contour>
    <contour>
      <point x="647" y="0" type="line"/>
      <point x="647" y="52" type="line"/>
      <point x="355" y="303" type="line"/>
      <point x="355" y="274" type="line"/>
      <point x="562" y="437" type="line" smooth="yes"/>
      <point x="600" y="467"/>
      <point x="625" y="468"/>
      <point x="656" y="468" type="curve" smooth="yes"/>
      <point x="663" y="468" type="line"/>
      <point x="663" y="518" type="line"/>
      <point x="418" y="518" type="line"/>
      <point x="418" y="468" type="line"/>
      <point x="426" y="468" type="line" smooth="yes"/>
      <point x="459" y="468"/>
      <point x="489" y="458"/>
      <point x="489" y="446" type="curve"/>
      <point x="260" y="265" type="line"/>
      <point x="260" y="260" type="line"/>
      <point x="494" y="58" type="line"/>
      <point x="494" y="51"/>
      <point x="451" y="50"/>
      <point x="424" y="50" type="curve" smooth="yes"/>
      <point x="417" y="50" type="line"/>
      <point x="417" y="0" type="line"/>
    </contour>
    <contour>
      <point x="514" y="0" type="line"/>
      <point x="532" y="0" type="line" smooth="yes"/>
      <point x="600" y="0"/>
      <point x="624" y="-7"/>
      <point x="631" y="-43" type="curve" smooth="yes"/>
      <point x="649" y="-140" type="line"/>
      <point x="696" y="-140" type="line"/>
      <point x="696" y="52" type="line"/>
      <point x="514" y="52" type="line"/>
    </contour>
  </outline>
</glyph>
